<svg width="5120" height="2130" viewBox="0 0 5120 2130" fill="none" xmlns="http://www.w3.org/2000/svg">
<path fill-rule="evenodd" clip-rule="evenodd" d="M5145.5 1378.91C5157.81 1414.2 5132.4 1412.62 5104.62 1419.01C5098.67 1420.38 5103.81 1433.97 5101.98 1439.02C5100.22 1443.86 5078.86 1432.64 5074.95 1431.74C5070.04 1430.61 5072.11 1443.92 5069.68 1448.11C5066.3 1453.93 5060.85 1451.81 5055.83 1451.75C5046.07 1451.63 5038.84 1443.42 5029.46 1440.84C5021.74 1438.71 5023.22 1452.05 5012.98 1449.02C4999.9 1445.15 4988.25 1434.85 4974.74 1431.74H4972.11C4967.97 1434.59 4966.5 1453.91 4961.56 1459.03C4954.53 1466.3 4943.36 1453.75 4935.85 1457.21C4933.62 1458.23 4932.78 1475.62 4931.23 1479.04C4924.61 1493.64 4914.94 1478.95 4906.84 1482.67C4899.06 1486.25 4897.65 1510.86 4887.72 1513.6C4874.8 1517.16 4866.73 1491.72 4852.78 1498.13C4844.96 1501.73 4840.26 1514.81 4833.66 1520.87C4830.94 1523.37 4824.37 1519.75 4821.13 1520.87C4820.24 1521.18 4816.7 1525.67 4815.86 1524.51C4809.08 1515.16 4806.25 1498.52 4799.38 1489.04C4796.08 1484.49 4786.11 1494.04 4782.9 1488.13C4780.55 1483.8 4779.83 1474 4774.99 1472.67C4768.9 1470.99 4763.1 1481.3 4758.51 1478.12C4754.29 1475.22 4752.46 1464.4 4747.3 1460.84C4737.93 1454.38 4729.78 1467.21 4721.59 1467.21H4720.27C4717.03 1464.97 4716.58 1453.79 4713.02 1450.84C4704.28 1443.61 4685.7 1449.02 4675.44 1449.02C4675.22 1449.02 4674.88 1449.29 4674.78 1449.02C4666.34 1425.75 4643.59 1451.47 4636.54 1441.75C4635.33 1440.07 4637.52 1434.67 4636.54 1432.65C4635.2 1429.88 4631.71 1432.57 4629.29 1432.65C4621.96 1432.89 4615.72 1439.76 4609.51 1444.47C4605.37 1447.62 4597.83 1457.95 4596.33 1451.75C4594.37 1443.66 4597.21 1432.97 4595.67 1424.46C4594.98 1420.66 4569.3 1430.5 4569.3 1409.91C4569.3 1406.84 4572.07 1391.72 4574.57 1391.72C4571.99 1392.55 4545.85 1405.9 4553.65 1392.45C4558.54 1384.02 4582.92 1333.94 4582.42 1332.55C4581.93 1331.2 4580.25 1333.28 4579.28 1334C4572.59 1338.97 4566.85 1345.8 4560.45 1351.32C4557.94 1353.48 4552.7 1361.17 4552.61 1357.09C4552.57 1355.72 4579.92 1306.95 4583.46 1303.69C4583.87 1303.32 4577.71 1309.33 4578.23 1305.13C4579.03 1298.77 4581.5 1293.87 4583.99 1288.54C4587.16 1281.73 4600.2 1266.66 4600.2 1258.23C4600.2 1256.08 4578.03 1268.2 4585.3 1248.15C4592.35 1228.71 4605.09 1209.42 4604.91 1209.17C4604.24 1208.24 4595.19 1211.31 4597.06 1207C4603.39 1192.46 4623.44 1169.71 4626.87 1158.66C4626.98 1158.31 4611.85 1154.64 4612.75 1138.45C4613.42 1126.52 4619.1 1117.35 4623.21 1107.43C4625.52 1101.86 4617.18 1105.14 4619.03 1098.77C4622.12 1088.11 4628.33 1078.15 4632.1 1067.74C4633.88 1062.85 4620.62 1076.62 4621.12 1067.74C4622.01 1052.13 4631.77 1039.47 4637.86 1027.33C4639.95 1023.16 4631.78 1027.7 4633.67 1023.01C4634.89 1019.97 4636.41 1017.18 4637.86 1014.35C4643.11 1004.05 4648.69 993.699 4655.64 985.48C4656.02 985.039 4656.69 984.719 4656.69 984.039C4656.69 982.668 4652.39 985.828 4642.56 994.859C4642.04 995.348 4641.19 997.129 4641 996.309C4638.39 985.539 4658.78 973.23 4658.78 960.949C4658.78 959.91 4651.19 967.629 4648.32 969.609C4646.99 970.531 4644.61 973.73 4644.13 971.781C4642.23 963.879 4659.26 935.109 4662.44 925.59C4662.9 924.211 4663.49 921.27 4663.49 921.27C4663.49 921.27 4651.36 934.859 4649.89 928.48C4648.18 921.09 4661.85 889.391 4664.53 880.141C4665.25 877.648 4664.39 877.25 4662.96 877.25C4653.86 877.25 4657.5 866.641 4661.92 857.77C4668.31 844.93 4678.9 837.051 4684.41 823.129C4689.99 809.008 4675.52 823.078 4675.52 818.078C4675.52 806.828 4688.72 779.121 4693.82 769.738C4686.09 771.07 4686.45 771.648 4679.49 771.648C4679.23 771.648 4677.18 771.648 4677.18 771.648C4679.01 769.129 4682.91 767.559 4685.04 765.27C4695.37 754.191 4704.89 740 4712.31 725.098C4715.26 719.191 4711.68 718.559 4706.76 721.27C4706.48 721.43 4705.77 721.68 4705.84 721.27C4708.39 707.219 4722.47 690.629 4730.8 683.008C4730.94 682.879 4743.83 673.031 4742.82 670.25C4742.5 669.371 4717.88 672.199 4717.86 672.168C4713.96 666.789 4728.39 639.289 4729.88 635.18C4731.34 631.129 4718.21 642.781 4722.48 630.711C4726.31 619.871 4739.58 605.918 4739.58 593.73C4739.58 591.129 4736.51 596.73 4734.96 598.191C4729.8 603.059 4723.12 611.191 4716.93 613.488C4716.87 613.52 4715.73 613.918 4715.55 613.488C4712.77 606.98 4725.85 585.98 4728.49 581.609C4729.85 579.348 4738.2 571.68 4738.2 568.219C4738.2 562.898 4725.36 577.418 4727.1 572.68C4733.5 555.238 4742.86 540.031 4749.29 522.301C4752.75 512.77 4738.75 531.051 4740.51 522.941C4743.23 510.441 4752.99 500.289 4759.92 492.328C4761.18 490.879 4763.62 487.859 4763.62 487.859C4763.62 487.859 4753.1 489.27 4754.38 485.309C4758.25 473.301 4766.95 464.539 4770.09 451.508C4763.17 452.191 4749.29 452.789 4749.29 452.789C4749.29 452.789 4751.76 449.691 4752.53 447.691C4756.51 437.25 4760.52 426.848 4764.55 416.441C4766.1 412.43 4772.4 401.789 4772.4 396.668C4772.4 391.691 4762.23 406.75 4762.23 401.77C4762.23 391.891 4782.85 370.25 4785.35 356.488C4785.75 354.27 4769.69 363.891 4770.09 361.59C4771.45 353.859 4774.56 347.27 4777.49 340.551C4779.14 336.75 4794.13 308.27 4794.13 304.828C4794.13 303.301 4792.17 306.348 4791.36 307.391C4787.64 312.121 4784.1 316.969 4779.8 320.781C4778.75 321.711 4775.45 324.098 4776.56 323.328C4785.7 317.031 4795.38 299.719 4802.45 289.531C4805.11 285.691 4812.11 280.531 4809.38 276.781C4808.82 276 4797.7 276.961 4797.83 276.781C4800.24 273.449 4816.55 246.168 4814.47 240.43C4812.58 235.219 4797.52 246.91 4794.59 244.891C4793.48 244.121 4795.49 236.18 4807.07 216.828C4807.61 215.941 4819.15 199.051 4817.24 196.418C4816.07 194.801 4808.68 198.289 4808 196.418C4807.18 194.148 4808.89 188.84 4809.38 187.488C4814.23 174.129 4823.22 162.301 4826.95 148.59C4826.98 148.488 4817.97 147.598 4820.94 137.75C4825.89 121.32 4832.27 104.578 4838.04 88.6484C4838.18 88.2578 4838.18 87.75 4838.04 87.3711C4837.06 84.6602 4824.82 92.25 4813.08 98.2109C4811.2 99.168 4805.87 102.93 4807.54 101.398C4816.91 92.7813 4840.14 75.0898 4841.74 57.3984C4842.27 51.6211 4839.87 48 4840.82 41.4492C4841.93 33.7695 4846.83 28.0508 4849.14 21.0508C4851.41 14.1289 4850.71 7.25781 4854.22 0C4864.07 17.4688 4873.45 35.4297 4883.71 52.418C4885.09 54.6992 4892.22 60.8984 4892.22 64.1602C4892.22 66.8984 4878.73 58.3984 4883.71 73.5391C4888.74 88.8398 4903.17 96.0586 4907.53 111.098C4908.92 115.891 4898.93 112.809 4897.32 113.441C4886 117.91 4904.58 144.43 4906.4 149.43C4909.74 158.66 4897.38 157.219 4901.86 165.078C4912.15 183.16 4931.56 197.258 4937.02 219.848C4939.74 231.109 4923.12 223.988 4927.95 235.488C4936.82 256.66 4947.84 276.41 4956.3 298.078C4963.1 315.508 4933.92 299.328 4939.86 316.859C4947.08 338.211 4964.12 352.281 4969.34 376.32C4970.48 381.551 4956.3 375.551 4955.17 383.359C4952.5 401.758 4966.22 415.789 4967.64 433.43C4968.45 443.48 4954.91 433.191 4957.44 445.949C4960.44 461.141 4989.18 488.258 4985.22 504.629C4984.92 505.879 4979.86 503.18 4978.98 506.191C4978.06 509.391 4978.15 520.961 4978.98 524.191C4983.91 543.148 4998.17 557.871 5003.94 577.391C5009.78 597.168 5002.75 601.758 5005.07 606.34C5010.85 617.73 5022.48 624.758 5026.62 637.629C5032.07 654.539 5008.98 643.941 5013.01 661.891C5015.47 672.84 5036.42 704.469 5031.73 717.441C5031.04 719.32 5016.11 717.441 5013.58 717.441C5018.45 722.059 5060.26 758.93 5057.55 766.41C5055.75 771.391 5036.66 760.789 5034.77 768.598C5030.27 787.211 5047.12 813.84 5042.19 816.109C5040.94 816.68 5031.65 811.461 5033.18 816.109C5038.81 833.211 5047.91 848.781 5055.43 864.348C5061.46 876.828 5036.17 864.348 5042.72 876.77C5051.67 893.758 5075.27 918.859 5079.27 938.168C5081.54 949.141 5055.22 932.93 5061.26 948.398C5065.3 958.75 5090.02 999.66 5087.75 1009.07C5087.31 1010.9 5079.05 1009.8 5077.68 1009.8C5073.44 1009.8 5073.96 1018.41 5076.09 1022.95C5079.45 1030.09 5085.85 1034.8 5089.87 1041.23C5098.93 1055.7 5108.83 1076.24 5111.59 1095.31C5112.55 1101.93 5091.17 1094.14 5096.23 1109.93C5100.41 1123.02 5132.93 1151.9 5126.42 1169.87C5124.68 1174.67 5117.1 1172.65 5115.83 1177.91C5112.79 1190.49 5135.22 1229.24 5138.61 1245.15C5141.15 1257.09 5131.93 1256.44 5134.9 1267.08C5137.13 1275.05 5151.13 1292.26 5156.09 1308.01C5157.98 1313.98 5163.44 1324.82 5156.62 1324.82C5151.42 1324.82 5140.2 1324.5 5144.97 1337.24C5146.96 1342.56 5151.39 1346.2 5153.44 1351.86C5156.05 1359.07 5157.8 1367.77 5160.86 1374.52C5166.02 1385.91 5150.45 1378.91 5145.5 1378.91Z" fill="#9AB968"/>
<path fill-rule="evenodd" clip-rule="evenodd" d="M4857.05 157.578L4810.41 1911.97H4903.69L4857.05 157.578Z" fill="#9AB968"/>
<path fill-rule="evenodd" clip-rule="evenodd" d="M2576.33 1268.51C2564.06 1299.39 2589.36 1298.01 2617.03 1303.6C2622.95 1304.8 2617.84 1316.7 2619.66 1321.11C2621.4 1325.35 2642.68 1315.53 2646.57 1314.74C2651.46 1313.75 2649.4 1325.4 2651.82 1329.07C2655.18 1334.16 2660.61 1332.3 2665.6 1332.25C2675.33 1332.14 2682.52 1324.96 2691.86 1322.7C2699.55 1320.84 2698.08 1332.51 2708.27 1329.86C2721.3 1326.48 2732.89 1317.46 2746.34 1314.74H2748.97C2753.09 1317.24 2754.55 1334.14 2759.47 1338.62C2766.47 1344.98 2777.59 1334 2785.07 1337.02C2787.28 1337.92 2788.12 1353.14 2789.67 1356.12C2796.25 1368.91 2805.88 1356.05 2813.95 1359.31C2821.7 1362.44 2823.1 1383.97 2832.99 1386.37C2845.85 1389.48 2853.89 1367.22 2867.78 1372.84C2875.56 1375.98 2880.25 1387.43 2886.81 1392.73C2889.52 1394.92 2896.06 1391.75 2899.28 1392.73C2900.18 1393 2903.7 1396.93 2904.54 1395.91C2911.29 1387.73 2914.11 1373.17 2920.95 1364.88C2924.23 1360.89 2934.16 1369.25 2937.36 1364.08C2939.7 1360.3 2940.42 1351.72 2945.23 1350.55C2951.3 1349.08 2957.07 1358.1 2961.64 1355.33C2965.84 1352.79 2967.67 1343.32 2972.8 1340.21C2982.13 1334.55 2990.24 1345.78 2998.4 1345.78H2999.71C3002.94 1343.82 3003.38 1334.04 3006.93 1331.45C3015.64 1325.12 3034.14 1329.86 3044.35 1329.86C3044.57 1329.86 3044.91 1330.1 3045.01 1329.86C3053.4 1309.5 3076.06 1332 3083.08 1323.5C3084.29 1322.03 3082.1 1317.31 3083.08 1315.54C3084.41 1313.11 3087.89 1315.47 3090.3 1315.54C3097.6 1315.75 3103.81 1321.76 3109.99 1325.88C3114.12 1328.64 3121.63 1337.67 3123.12 1332.25C3125.06 1325.17 3122.24 1315.82 3123.77 1308.38C3124.46 1305.05 3150.03 1313.66 3150.03 1295.64C3150.03 1292.96 3147.27 1279.73 3144.78 1279.73C3147.35 1280.45 3173.38 1292.13 3165.61 1280.36C3160.74 1272.98 3136.47 1229.16 3136.97 1227.95C3137.46 1226.76 3139.13 1228.59 3140.09 1229.21C3146.76 1233.57 3152.47 1239.55 3158.84 1244.37C3161.34 1246.27 3166.55 1253 3166.65 1249.42C3166.68 1248.22 3139.45 1205.55 3135.93 1202.7C3135.52 1202.37 3141.66 1207.63 3141.13 1203.96C3140.34 1198.39 3137.88 1194.1 3135.41 1189.44C3132.24 1183.48 3119.26 1170.3 3119.26 1162.93C3119.26 1161.04 3141.33 1171.65 3134.1 1154.1C3127.08 1137.09 3114.39 1120.21 3114.58 1119.99C3115.24 1119.18 3124.25 1121.86 3122.39 1118.1C3116.09 1105.37 3096.12 1085.46 3092.7 1075.8C3092.59 1075.49 3107.66 1072.29 3106.76 1058.12C3106.1 1047.67 3100.44 1039.65 3096.35 1030.97C3094.05 1026.1 3102.35 1028.97 3100.51 1023.39C3097.44 1014.07 3091.25 1005.35 3087.5 996.25C3085.73 991.961 3098.93 1004.02 3098.43 996.25C3097.55 982.578 3087.83 971.508 3081.77 960.891C3079.68 957.23 3087.81 961.211 3085.93 957.098C3084.72 954.449 3083.21 952.008 3081.77 949.531C3076.54 940.508 3070.98 931.461 3064.06 924.27C3063.69 923.879 3063.02 923.598 3063.02 923.008C3063.02 921.809 3067.3 924.57 3077.08 932.48C3077.6 932.898 3078.45 934.461 3078.64 933.738C3081.23 924.32 3060.94 913.551 3060.94 902.801C3060.94 901.891 3068.49 908.641 3071.35 910.379C3072.68 911.18 3075.05 913.98 3075.52 912.281C3077.42 905.371 3060.46 880.191 3057.29 871.871C3056.83 870.66 3056.25 868.078 3056.25 868.078C3056.25 868.078 3068.32 879.98 3069.79 874.391C3071.49 867.93 3057.88 840.191 3055.21 832.09C3054.49 829.918 3055.35 829.57 3056.77 829.57C3065.84 829.57 3062.21 820.281 3057.81 812.52C3051.44 801.289 3040.9 794.391 3035.42 782.211C3029.86 769.859 3044.27 782.168 3044.27 777.789C3044.27 767.949 3031.12 743.699 3026.05 735.488C3033.75 736.66 3033.38 737.168 3040.31 737.168C3040.57 737.168 3042.62 737.168 3042.62 737.168C3040.8 734.961 3036.91 733.578 3034.79 731.59C3024.51 721.891 3015.03 709.469 3007.64 696.43C3004.7 691.258 3008.26 690.711 3013.16 693.078C3013.45 693.219 3014.16 693.449 3014.08 693.078C3011.54 680.789 2997.52 666.27 2989.23 659.598C2989.09 659.5 2976.26 650.871 2977.26 648.441C2977.58 647.668 3002.09 650.148 3002.11 650.121C3006 645.41 2991.63 621.348 2990.15 617.75C2988.69 614.211 3001.76 624.41 2997.51 613.848C2993.69 604.359 2980.48 592.148 2980.48 581.48C2980.48 579.211 2983.54 584.109 2985.09 585.391C2990.22 589.648 2996.88 596.758 3003.03 598.781C3003.1 598.801 3004.24 599.148 3004.42 598.781C3007.19 593.078 2994.16 574.711 2991.53 570.879C2990.17 568.91 2981.86 562.199 2981.86 559.16C2981.86 554.508 2994.64 567.219 2992.91 563.07C2986.54 547.809 2977.22 534.5 2970.82 518.988C2967.38 510.648 2981.32 526.641 2979.56 519.539C2976.86 508.609 2967.13 499.73 2960.23 492.758C2958.98 491.488 2956.55 488.848 2956.55 488.848C2956.55 488.848 2967.03 490.09 2965.75 486.621C2961.9 476.109 2953.24 468.441 2950.11 457.051C2957 457.641 2970.82 458.16 2970.82 458.16C2970.82 458.16 2968.36 455.449 2967.59 453.699C2963.63 444.57 2959.64 435.469 2955.63 426.359C2954.09 422.848 2947.8 413.539 2947.8 409.059C2947.8 404.711 2957.93 417.879 2957.93 413.52C2957.93 404.879 2937.4 385.941 2934.92 373.898C2934.52 371.961 2950.51 380.379 2950.11 378.371C2948.76 371.598 2945.66 365.84 2942.74 359.949C2941.09 356.629 2926.17 331.711 2926.17 328.711C2926.17 327.359 2928.12 330.031 2928.93 330.941C2932.64 335.078 2936.16 339.32 2940.44 342.66C2941.48 343.469 2944.77 345.559 2943.66 344.891C2934.57 339.371 2924.93 324.23 2917.89 315.309C2915.24 311.949 2908.27 307.441 2910.98 304.148C2911.54 303.469 2922.62 304.309 2922.49 304.148C2920.09 301.238 2903.85 277.371 2905.92 272.348C2907.8 267.789 2922.79 278.02 2925.71 276.25C2926.82 275.578 2924.82 268.629 2913.29 251.699C2912.75 250.918 2901.26 236.141 2903.16 233.84C2904.33 232.43 2911.69 235.48 2912.37 233.84C2913.18 231.859 2911.47 227.211 2910.98 226.031C2906.16 214.34 2897.2 203.988 2893.5 191.988C2893.47 191.91 2902.43 191.121 2899.48 182.508C2894.55 168.129 2888.2 153.488 2882.45 139.539C2882.31 139.211 2882.31 138.758 2882.45 138.43C2883.43 136.059 2895.62 142.691 2907.3 147.91C2909.17 148.75 2914.49 152.039 2912.83 150.699C2903.49 143.16 2880.36 127.68 2878.77 112.199C2878.25 107.148 2880.63 103.98 2879.69 98.25C2878.58 91.5312 2873.7 86.5195 2871.4 80.3906C2869.14 74.3398 2869.83 68.3281 2866.34 61.9805C2856.54 77.2578 2847.2 92.9805 2836.98 107.84C2835.61 109.84 2828.51 115.258 2828.51 118.109C2828.51 120.508 2841.94 113.078 2836.98 126.328C2831.97 139.711 2817.6 146.031 2813.26 159.191C2811.88 163.379 2821.82 160.68 2823.43 161.238C2834.7 165.148 2816.2 188.359 2814.39 192.73C2811.06 200.801 2823.37 199.539 2818.91 206.418C2808.66 222.238 2789.34 234.578 2783.9 254.34C2781.19 264.199 2797.74 257.969 2792.94 268.031C2784.1 286.551 2773.13 303.828 2764.7 322.801C2757.93 338.039 2786.98 323.891 2781.08 339.23C2773.89 357.91 2756.92 370.211 2751.72 391.258C2750.59 395.828 2764.71 390.578 2765.83 397.418C2768.49 413.52 2754.83 425.789 2753.41 441.23C2752.61 450.02 2766.09 441.02 2763.58 452.18C2760.59 465.469 2731.97 489.199 2735.91 503.531C2736.21 504.621 2741.25 502.25 2742.12 504.891C2743.04 507.691 2742.95 517.809 2742.12 520.641C2737.22 537.23 2723.01 550.109 2717.27 567.191C2711.46 584.5 2718.46 588.52 2716.14 592.52C2710.39 602.48 2698.82 608.641 2694.69 619.898C2689.27 634.691 2712.25 625.418 2708.24 641.121C2705.79 650.711 2684.93 678.391 2689.61 689.73C2690.29 691.379 2705.16 689.73 2707.68 689.73C2702.82 693.77 2661.2 726.039 2663.89 732.578C2665.69 736.941 2684.7 727.66 2686.58 734.5C2691.05 750.781 2674.28 774.078 2679.19 776.07C2680.43 776.57 2689.68 772 2688.16 776.07C2682.55 791.031 2673.49 804.648 2666 818.281C2660 829.199 2685.18 818.281 2678.66 829.148C2669.75 844.008 2646.25 865.98 2642.26 882.871C2640 892.469 2666.21 878.281 2660.2 891.82C2656.18 900.879 2631.56 936.668 2633.83 944.898C2634.27 946.508 2642.49 945.539 2643.85 945.539C2648.07 945.539 2647.56 953.078 2645.43 957.059C2642.09 963.301 2635.72 967.418 2631.72 973.039C2622.7 985.711 2612.84 1003.68 2610.09 1020.37C2609.13 1026.16 2630.42 1019.34 2625.39 1033.16C2621.21 1044.61 2588.84 1069.88 2595.32 1085.6C2597.05 1089.81 2604.6 1088.04 2605.87 1092.64C2608.9 1103.65 2586.56 1137.55 2583.19 1151.48C2580.65 1161.93 2589.84 1161.36 2586.88 1170.66C2584.66 1177.64 2570.72 1192.7 2565.78 1206.48C2563.9 1211.71 2558.46 1221.18 2565.25 1221.18C2570.43 1221.18 2581.6 1220.91 2576.86 1232.06C2574.88 1236.71 2570.46 1239.9 2568.42 1244.85C2565.82 1251.15 2564.08 1258.77 2561.03 1264.68C2555.89 1274.64 2571.39 1268.51 2576.33 1268.51Z" fill="#9AB968"/>
<path fill-rule="evenodd" clip-rule="evenodd" d="M2863.53 199.859L2909.96 1734.94H2817.09L2863.53 199.859Z" fill="#9AB968"/>
<path fill-rule="evenodd" clip-rule="evenodd" d="M-104.402 1485.27C-115.539 1520.45 -92.5625 1518.88 -67.4375 1525.25C-62.0625 1526.61 -66.707 1540.16 -65.0546 1545.19C-63.4687 1550.02 -44.1484 1538.84 -40.6132 1537.94C-36.1718 1536.81 -38.0429 1550.07 -35.8476 1554.26C-32.7968 1560.05 -27.8632 1557.95 -23.3281 1557.88C-14.496 1557.76 -7.9648 1549.58 0.515671 1547C7.49614 1544.88 6.16411 1558.18 15.418 1555.16C27.2461 1551.31 37.7774 1541.04 49.9922 1537.94H52.375C56.1172 1540.79 57.4454 1560.04 61.9141 1565.14C68.2696 1572.39 78.3633 1559.88 85.1602 1563.32C87.1719 1564.34 87.9336 1581.68 89.3321 1585.08C95.3165 1599.64 104.063 1584.99 111.391 1588.71C118.422 1592.27 119.695 1616.8 128.676 1619.53C140.356 1623.08 147.652 1597.72 160.27 1604.12C167.34 1607.7 171.594 1620.74 177.555 1626.79C180.012 1629.27 185.953 1625.67 188.883 1626.79C189.695 1627.09 192.891 1631.57 193.648 1630.41C199.781 1621.09 202.34 1604.5 208.551 1595.05C211.535 1590.52 220.551 1600.04 223.453 1594.15C225.578 1589.84 226.234 1580.07 230.606 1578.73C236.113 1577.06 241.356 1587.33 245.512 1584.18C249.32 1581.28 250.981 1570.5 255.645 1566.95C264.113 1560.51 271.481 1573.3 278.891 1573.3H280.082C283.016 1571.07 283.414 1559.92 286.641 1556.98C294.543 1549.77 311.344 1555.16 320.617 1555.16C320.816 1555.16 321.125 1555.43 321.215 1555.16C328.84 1531.96 349.414 1557.61 355.785 1547.91C356.887 1546.24 354.902 1540.86 355.785 1538.84C357 1536.08 360.16 1538.77 362.344 1538.84C368.977 1539.08 374.609 1545.93 380.227 1550.63C383.977 1553.77 390.797 1564.06 392.148 1557.88C393.914 1549.82 391.352 1539.16 392.746 1530.68C393.367 1526.89 416.59 1536.7 416.59 1516.18C416.59 1513.13 414.082 1498.05 411.82 1498.05C414.156 1498.88 437.793 1512.18 430.734 1498.77C426.316 1490.37 404.273 1440.45 404.727 1439.07C405.172 1437.71 406.688 1439.79 407.563 1440.51C413.613 1445.46 418.809 1452.28 424.59 1457.77C426.859 1459.93 431.594 1467.6 431.684 1463.53C431.711 1462.16 406.984 1413.55 403.781 1410.3C403.41 1409.93 408.984 1415.92 408.508 1411.74C407.789 1405.39 405.551 1400.51 403.309 1395.2C400.438 1388.41 388.648 1373.39 388.648 1364.99C388.648 1362.84 408.691 1374.93 402.117 1354.94C395.746 1335.56 384.223 1316.34 384.391 1316.08C384.996 1315.16 393.18 1318.22 391.484 1313.93C385.766 1299.43 367.633 1276.75 364.527 1265.74C364.43 1265.39 378.113 1261.74 377.297 1245.6C376.695 1233.7 371.555 1224.57 367.84 1214.67C365.754 1209.12 373.293 1212.39 371.621 1206.04C368.828 1195.42 363.211 1185.48 359.801 1175.11C358.195 1170.24 370.188 1183.96 369.731 1175.11C368.93 1159.55 360.106 1146.93 354.598 1134.84C352.703 1130.67 360.09 1135.2 358.383 1130.52C357.277 1127.5 355.906 1124.72 354.598 1121.89C349.848 1111.62 344.801 1101.31 338.52 1093.12C338.18 1092.68 337.574 1092.36 337.574 1091.68C337.574 1090.31 341.461 1093.47 350.344 1102.47C350.816 1102.95 351.582 1104.73 351.762 1103.91C354.113 1093.18 335.684 1080.91 335.684 1068.67C335.684 1067.63 342.539 1075.32 345.141 1077.3C346.344 1078.21 348.496 1081.4 348.922 1079.46C350.648 1071.59 335.25 1042.91 332.371 1033.43C331.953 1032.05 331.426 1029.11 331.426 1029.11C331.426 1029.11 342.387 1042.66 343.723 1036.3C345.266 1028.94 332.906 997.34 330.481 988.109C329.828 985.641 330.606 985.238 331.898 985.238C340.133 985.238 336.84 974.66 332.844 965.82C327.063 953.02 317.484 945.16 312.508 931.289C307.461 917.219 320.551 931.238 320.551 926.258C320.551 915.039 308.606 887.418 303.996 878.07C310.992 879.398 310.656 879.98 316.953 879.98C317.188 879.98 319.043 879.98 319.043 879.98C317.391 877.469 313.859 875.898 311.938 873.621C302.598 862.57 293.992 848.43 287.277 833.57C284.613 827.68 287.848 827.059 292.293 829.758C292.555 829.918 293.199 830.168 293.129 829.758C290.828 815.75 278.09 799.219 270.559 791.621C270.438 791.5 258.785 781.668 259.691 778.91C259.981 778.031 282.242 780.848 282.262 780.809C285.789 775.449 272.742 748.039 271.395 743.941C270.066 739.91 281.941 751.52 278.082 739.488C274.617 728.691 262.617 714.781 262.617 702.629C262.617 700.039 265.395 705.609 266.797 707.078C271.461 711.93 277.504 720.031 283.098 722.328C283.16 722.359 284.191 722.75 284.352 722.328C286.867 715.84 275.039 694.91 272.648 690.551C271.418 688.301 263.871 680.648 263.871 677.199C263.871 671.898 275.477 686.379 273.902 681.648C268.117 664.258 259.652 649.109 253.84 631.43C250.719 621.93 263.379 640.148 261.781 632.07C259.324 619.609 250.496 609.5 244.227 601.551C243.09 600.109 240.887 597.098 240.887 597.098C240.887 597.098 250.398 598.508 249.242 594.559C245.742 582.578 237.879 573.848 235.031 560.871C241.293 561.551 253.84 562.141 253.84 562.141C253.84 562.141 251.606 559.051 250.914 557.059C247.316 546.648 243.688 536.289 240.051 525.91C238.645 521.91 232.941 511.309 232.941 506.199C232.941 501.238 242.137 516.25 242.137 511.289C242.137 501.441 223.496 479.871 221.238 466.16C220.879 463.941 235.398 473.531 235.031 471.238C233.809 463.531 230.996 456.969 228.348 450.258C226.848 446.48 213.301 418.09 213.301 414.668C213.301 413.141 215.066 416.168 215.809 417.211C219.172 421.93 222.367 426.758 226.258 430.559C227.199 431.48 230.188 433.859 229.184 433.098C220.922 426.82 212.168 409.57 205.777 399.41C203.367 395.578 197.043 390.441 199.508 386.699C200.016 385.93 210.074 386.879 209.953 386.699C207.773 383.379 193.027 356.191 194.91 350.461C196.613 345.281 210.231 356.93 212.883 354.91C213.887 354.148 212.074 346.23 201.598 326.941C201.113 326.051 190.68 309.219 192.402 306.598C193.465 304.98 200.145 308.469 200.762 306.598C201.504 304.34 199.949 299.051 199.508 297.699C195.129 284.391 186.992 272.59 183.625 258.93C183.598 258.828 191.738 257.93 189.059 248.121C184.578 231.738 178.816 215.059 173.594 199.18C173.469 198.789 173.469 198.281 173.594 197.898C174.481 195.199 185.555 202.758 196.16 208.711C197.863 209.66 202.684 213.418 201.18 211.891C192.703 203.289 171.699 185.668 170.25 168.031C169.777 162.27 171.941 158.66 171.086 152.129C170.078 144.48 165.648 138.77 163.563 131.789C161.504 124.898 162.137 118.051 158.965 110.82C150.063 128.219 141.578 146.129 132.301 163.07C131.055 165.34 124.609 171.52 124.609 174.758C124.609 177.5 136.801 169.031 132.301 184.121C127.754 199.371 114.707 206.57 110.766 221.551C109.508 226.34 118.535 223.258 119.992 223.891C130.231 228.34 113.43 254.781 111.789 259.77C108.766 268.961 119.938 267.531 115.891 275.359C106.582 293.379 89.0352 307.441 84.1016 329.949C81.6407 341.18 96.6641 334.09 92.3047 345.551C84.2813 366.648 74.3165 386.328 66.668 407.941C60.5196 425.301 86.8985 409.18 81.5352 426.648C75.0079 447.93 59.6016 461.949 54.8711 485.918C53.8438 491.129 66.668 485.148 67.6915 492.941C70.1055 511.281 57.6954 525.258 56.4102 542.848C55.6797 552.859 67.9219 542.609 65.6407 555.328C62.9258 570.461 36.9375 597.5 40.5157 613.82C40.7891 615.059 45.3633 612.371 46.1563 615.379C46.9922 618.559 46.9141 630.09 46.1563 633.309C41.7032 652.219 28.8047 666.891 23.5938 686.34C18.3125 706.059 24.668 710.641 22.5704 715.199C17.3438 726.551 6.83208 733.559 3.08208 746.391C-1.8398 763.238 19.0352 752.68 15.3907 770.57C13.1641 781.488 -5.7773 813.008 -1.5312 825.941C-0.91011 827.82 12.5938 825.941 14.879 825.941C10.4727 830.539 -27.332 867.301 -24.8828 874.75C-23.25 879.719 -5.99213 869.148 -4.2851 876.93C-0.218697 895.48 -15.4531 922.031 -10.9882 924.289C-9.86714 924.859 -1.46088 919.66 -2.8476 924.289C-7.94135 941.328 -16.164 956.859 -22.9648 972.379C-28.4179 984.82 -5.55073 972.379 -11.4687 984.758C-19.5664 1001.69 -40.9062 1026.71 -44.5234 1045.96C-46.5781 1056.9 -22.7734 1040.74 -28.2343 1056.16C-31.8867 1066.48 -54.2421 1107.25 -52.1875 1116.63C-51.7851 1118.45 -44.3203 1117.36 -43.0859 1117.36C-39.2539 1117.36 -39.7187 1125.94 -41.6484 1130.47C-44.6796 1137.59 -50.4687 1142.28 -54.1015 1148.68C-62.2929 1163.11 -71.2421 1183.59 -73.7421 1202.6C-74.6093 1209.19 -55.2773 1201.43 -59.8515 1217.17C-63.6406 1230.21 -93.0429 1259 -87.1562 1276.91C-85.582 1281.7 -78.7226 1279.68 -77.5781 1284.92C-74.8281 1297.47 -95.1054 1336.09 -98.1718 1351.95C-100.477 1363.85 -92.1328 1363.2 -94.8203 1373.8C-96.8359 1381.76 -109.496 1398.91 -113.98 1414.61C-115.684 1420.56 -120.629 1431.36 -114.461 1431.36C-109.758 1431.36 -99.6132 1431.04 -103.922 1443.75C-105.719 1449.05 -109.73 1452.68 -111.586 1458.32C-113.949 1465.5 -115.527 1474.17 -118.293 1480.9C-122.961 1492.26 -108.883 1485.27 -104.402 1485.27Z" fill="#9AB968"/>
<path fill-rule="evenodd" clip-rule="evenodd" d="M156.406 267.891L198.578 2016.62H114.238L156.406 267.891Z" fill="#9AB968"/>
<path fill-rule="evenodd" clip-rule="evenodd" d="M2190.51 395.75L2136.46 2182.58H2244.56L2190.51 395.75Z" fill="#9AB968"/>
<path fill-rule="evenodd" clip-rule="evenodd" d="M2195.11 207.75C2203.22 234.379 2213.11 259.648 2221.55 285.77C2225.22 297.121 2233.57 306.578 2236.38 318.43C2238.58 327.68 2222.9 327.801 2225.42 340.211C2228.58 355.738 2245.44 361.18 2249.28 377.398C2250.02 380.52 2241.85 384.32 2244.12 392.828C2249.84 414.281 2246.71 414.66 2249.93 437.281C2251.81 450.508 2259.01 461.258 2260.89 474.48C2262.12 483.16 2259.16 493.199 2260.89 501.699C2265 521.941 2286.04 534.781 2286.04 540.711C2286.04 542.801 2280.06 542.879 2280.88 549.781C2282.12 560.258 2289.82 566.129 2291.84 576.09C2292.95 581.539 2282.47 587.809 2285.39 598.77C2286.59 603.281 2289.65 605.5 2290.55 610.559C2291.83 617.758 2287.21 618.148 2287.97 627.801C2288.88 639.238 2295.07 647.098 2295.07 659.559C2295.07 661.508 2291.38 663.738 2293.13 666.809C2297.69 674.82 2322.43 705.949 2318.28 717.621C2318.03 718.34 2309.72 716.801 2310.54 718.531C2315.78 729.57 2330.54 733.078 2334.4 746.648C2335.19 749.41 2323.64 754.07 2322.79 761.168C2321.57 771.531 2340.62 780.879 2336.98 791.109C2336.3 793.039 2325.11 790.32 2322.79 792.918C2317.95 798.379 2327.76 812.789 2326.02 820.141C2325.04 824.258 2315.06 820.148 2315.06 829.211C2315.06 831.078 2314.45 834.699 2315.06 836.469C2319.23 848.57 2330.97 856.48 2336.34 868.219C2337.28 870.27 2338.04 872.469 2338.92 874.57C2343.39 885.359 2332.68 884.328 2335.05 896.348C2338.19 912.25 2359.55 921.781 2359.55 938.988C2359.55 939.59 2359.75 940.258 2359.55 940.801C2358.66 943.32 2351.61 938.359 2349.88 944.43C2348.43 949.539 2350.53 952.59 2353.1 955.32L2359.55 962.578C2373.47 979.98 2351.1 969.488 2345.23 977.75C2344.42 978.891 2342.29 983.449 2343.43 985.258C2350.47 996.41 2363.52 999 2371.16 1009.75C2381.09 1023.73 2364.81 1026.74 2369.23 1036.06C2371.32 1040.49 2387.36 1045.83 2384.06 1055.12C2382.92 1058.31 2363.44 1049.43 2367.29 1060.56C2371.39 1072.38 2386.32 1073.52 2389.22 1087.78C2392.23 1102.59 2364.01 1090.9 2371.16 1107.74C2374.12 1114.72 2390.36 1126.49 2387.93 1136.77C2386.46 1142.97 2376.01 1132.5 2376.01 1154.62C2376.01 1168.15 2393.29 1174.2 2395.67 1187.57C2396.91 1194.57 2385.99 1188.22 2385.99 1190.3C2385.99 1190.8 2403.1 1204.15 2407.92 1210.25C2416.39 1220.98 2405.75 1216.41 2401.47 1218.42C2400.39 1218.93 2400.84 1221.59 2400.97 1222.51C2401.63 1227.17 2421.1 1244.33 2416.3 1251.08C2414.01 1254.3 2405.94 1248.88 2402.76 1251.99C2394.21 1260.34 2412.8 1273.93 2415.01 1277.39C2422.78 1289.54 2408.41 1296.08 2417.59 1306.42C2419.53 1308.6 2423.16 1311.79 2424.04 1315.5C2426.39 1325.43 2410.23 1314.32 2412.55 1330.67C2413.95 1340.52 2449.19 1373.06 2449.19 1396.24C2449.19 1407.86 2458.29 1415.49 2463.93 1424.02C2464.02 1424.17 2465.83 1425.72 2465.4 1426.93C2465.3 1427.22 2440.94 1426.85 2440.94 1426.93C2440.94 1427.42 2441.57 1427.4 2441.82 1427.75C2445.18 1432.48 2447.84 1437.62 2450.08 1443.51C2450.56 1444.79 2451.99 1447.66 2450.96 1447.66C2449.85 1447.66 2443.82 1448.49 2444.77 1448.49C2451.23 1448.49 2454.34 1460.71 2459.21 1466.68C2462.51 1470.73 2467.33 1472.61 2470.34 1476.84C2470.62 1477.24 2469.54 1476.84 2469.14 1476.84C2467.15 1476.84 2466.83 1476.75 2464.62 1477.26C2461.15 1478.08 2453.85 1479.82 2452.29 1485.3C2451.51 1488.03 2470.93 1506 2472.14 1512.81C2472.42 1514.36 2460.75 1510.05 2461.92 1516.62C2463.74 1526.91 2474.51 1532.38 2477.56 1542.01C2477.76 1542.67 2478.22 1543.62 2477.86 1544.12C2475.69 1547.18 2461.83 1553.22 2466.43 1562.75C2468.73 1567.51 2473.56 1571 2476.66 1574.59C2481.62 1580.36 2500.09 1602.46 2502.52 1609.3C2505.57 1617.88 2486.23 1618.53 2491.09 1629.61C2494.83 1638.13 2510.03 1648.59 2511.55 1657.12C2511.82 1658.66 2497.95 1654.51 2501.02 1660.93C2502.98 1665.02 2516.25 1679.43 2514.86 1683.36C2514.16 1685.32 2507.23 1681.57 2506.43 1687.16C2504.98 1697.4 2511.15 1700.93 2513.35 1709.59C2514.43 1713.83 2510.04 1710.75 2510.04 1714.67C2510.04 1721.2 2516.49 1728.68 2519.07 1733.71C2519.21 1734 2526.17 1746.7 2524.78 1747.68C2523.28 1748.73 2518.72 1746.05 2517.56 1747.68C2516.83 1748.71 2517.1 1752.8 2517.26 1754.03C2517.91 1759.07 2521.31 1764.58 2523.58 1768.41C2523.64 1768.52 2524.11 1769.79 2523.88 1770.11C2521.96 1772.81 2501.98 1772.18 2498.5 1771.26C2496.67 1770.78 2490.86 1766.46 2489.29 1767.57C2489.02 1767.76 2489.22 1768.43 2489.29 1768.84C2489.73 1771.35 2495.51 1785.06 2493.5 1787.88C2492.23 1789.67 2481.03 1783.71 2480.87 1783.65C2476.82 1782 2470.95 1779.45 2467.03 1777.3C2465.96 1776.71 2450.96 1766.8 2451.09 1771.8C2451.36 1782.38 2458.61 1792.54 2458.61 1802.69C2458.61 1803.44 2456.23 1801.5 2451.39 1796.77C2445.98 1791.49 2445.06 1790.2 2439.36 1785.77C2428.37 1777.22 2427.29 1789.49 2415.31 1784.67C2413.15 1783.8 2398.98 1773.33 2398.75 1773.49C2395.04 1776.11 2388.81 1777.26 2382.81 1776.46C2382.24 1776.38 2377.89 1774.48 2377.09 1775.61C2375.54 1777.79 2382.36 1786.19 2377.09 1786.19C2376.29 1786.19 2375.49 1786.19 2374.68 1786.19C2373.48 1786.19 2372.28 1786.25 2371.07 1786.19C2363.91 1785.86 2357.6 1779.79 2350.62 1778.15C2349.93 1777.98 2348.83 1777.27 2348.51 1778.15C2347.47 1781.07 2350.11 1790.29 2348.51 1792.54C2346.1 1795.93 2328.13 1777.55 2321.44 1780.69C2321.22 1780.79 2321.7 1782.49 2321.14 1782.8C2309.54 1789.33 2300.56 1780.62 2290.46 1775.61C2290.44 1775.6 2286.25 1774.05 2286.25 1773.91C2288.35 1782.2 2289.91 1790.31 2291.87 1798.58C2294.32 1808.91 2278.86 1794.89 2275.99 1793.46C2273.82 1792.38 2264 1786.54 2261.44 1788.34C2260.18 1789.23 2261.06 1798.75 2254.16 1792.53C2251.41 1790.04 2240.66 1774.11 2238.29 1775.78C2238.18 1775.86 2237.53 1780.83 2237.3 1781.36C2235.39 1785.66 2229.67 1785.31 2228.37 1787.88C2226.14 1792.26 2223.08 1802.02 2218.77 1803.23C2218.34 1803.36 2216.5 1803.54 2216.13 1803.23C2211.01 1798.91 2209.75 1790.16 2202.9 1787.41C2200.92 1786.62 2198.54 1797.18 2190.66 1797.18C2187.65 1797.18 2183.95 1785.17 2181.07 1787.88C2176.05 1792.58 2176.68 1808.35 2168.83 1808.35H2166.18C2159.89 1806.14 2161.66 1791.8 2156.26 1789.27C2155.73 1789.02 2148.83 1804.26 2143.69 1801.37C2142.11 1800.48 2137.17 1783.52 2132.12 1779.96C2129.64 1778.23 2127.34 1794.78 2119.55 1790.67C2115.31 1788.43 2115.11 1778.24 2110.95 1775.31C2109.62 1774.38 2097.56 1773.29 2096.39 1774.38C2091.61 1778.87 2089.41 1790.38 2082.83 1793.46C2079.41 1795.07 2078.7 1787.64 2072.58 1787.88C2067.98 1788.05 2066.19 1796.17 2062 1797.65C2056.17 1799.7 2052.36 1776.17 2046.12 1782.76C2040.91 1788.26 2038.86 1799.96 2031.9 1802.77C2031.16 1803.07 2030.35 1802.73 2029.58 1802.77C2025.09 1802.99 2025.12 1763.73 2021.31 1775.78C2020.12 1779.55 2018.41 1782.71 2016.68 1786.02C2015.75 1787.8 2014.68 1790.58 2013.38 1792.06C2005.16 1801.38 2004.54 1782.12 1994.85 1787.41C1990.31 1789.89 1976.33 1805.7 1976.33 1791.13C1976.33 1789.43 1976.33 1786.02 1976.33 1786.02C1976.33 1786.02 1971.6 1795.53 1968.39 1799.04C1968 1799.47 1967.15 1800.66 1967.07 1799.97C1966.37 1794.04 1966.2 1783.9 1968.72 1778.57C1966.53 1780.57 1964.28 1782.47 1962.13 1784.57C1960.65 1786.02 1959.25 1787.62 1957.86 1789.22C1956.86 1790.36 1956.05 1791.77 1955.14 1793.04C1946.3 1805.47 1950.3 1777.57 1947.77 1776.39C1947.16 1776.1 1944.59 1782.46 1944.47 1782.66C1942.74 1785.68 1940.33 1787.85 1937.87 1789.49C1932.74 1792.91 1934.96 1784.67 1932.24 1784.03C1925.59 1782.47 1918.31 1801.91 1910.31 1803.96C1910.26 1803.97 1909.39 1804.07 1909.34 1803.69C1908.49 1797.7 1912.55 1782.96 1911.47 1779.93C1911.28 1779.39 1910.66 1780.39 1910.31 1780.75C1908.94 1782.15 1907.43 1783.44 1905.85 1784.3C1901.11 1786.89 1896.35 1788.25 1891.49 1789.49C1887.15 1790.6 1885.15 1787.29 1880.04 1788.67C1879.01 1788.95 1871.89 1790.35 1871.89 1790.31C1871.89 1789.66 1877.46 1781.12 1876.15 1780.21C1874.06 1778.73 1868.53 1786.68 1866.45 1783.76C1862.28 1777.88 1883.67 1749.52 1884.5 1742.53C1884.59 1741.72 1883.34 1742.26 1882.75 1742.26C1878.08 1742.26 1874.31 1745.22 1869.75 1746.35C1869.64 1746.38 1868.06 1747.24 1868.39 1746.08C1869 1743.95 1870.87 1741.51 1871.69 1739.8C1873.94 1735.13 1875.59 1729.99 1878.26 1725.75C1884.25 1716.28 1893.08 1707.16 1896.53 1695.02C1896.79 1694.13 1889.11 1698.85 1890.52 1691.75C1892.04 1684.04 1902.56 1662.03 1902.35 1661.44C1902.15 1660.87 1901.44 1661.59 1900.99 1661.71C1899.79 1662.05 1889.91 1663.26 1889.55 1661.71C1888.46 1657.15 1902.67 1626.12 1905.85 1620.76C1907.69 1617.65 1909.18 1613.61 1911.28 1610.66C1911.64 1610.16 1912.61 1609.52 1912.25 1609.02C1912.15 1608.88 1911.99 1609.2 1911.86 1609.29C1909.01 1611.52 1906.67 1614.81 1904 1617.45C1901.04 1620.39 1897.93 1622.84 1894.59 1624.86C1894.1 1625.15 1893.32 1624.77 1893.04 1625.4C1892.61 1626.38 1894.58 1624.52 1895.18 1623.73C1896.93 1621.45 1898.73 1618.53 1900.22 1616.12C1905.31 1607.91 1912.96 1598.32 1916.13 1588.27C1917.7 1583.31 1911.29 1591.82 1903.91 1591.82C1903.57 1591.82 1904.29 1591.74 1909.15 1583.63C1913.79 1575.88 1918.56 1568.15 1922.73 1559.88C1923.41 1558.54 1924.05 1557.17 1924.67 1555.78C1925.15 1554.71 1925.58 1553.6 1926.03 1552.5C1929.4 1544.32 1916.36 1554.63 1917.5 1549.29C1917.6 1548.8 1917.69 1548.3 1917.88 1547.86C1920.24 1542.24 1938.75 1519.93 1937.87 1516.19C1937.41 1514.26 1920.65 1517.11 1917.88 1517.29C1917.23 1517.32 1916.14 1518.15 1915.94 1517.29C1913.89 1508.65 1938.12 1485.02 1940.2 1473.33C1922.58 1473.33 1931.3 1459.61 1941.72 1439.64C1946.53 1430.44 1946.26 1426.81 1946.06 1426.74C1944.14 1426.07 1934.93 1428.65 1935.1 1427.82C1937.61 1415.48 1956.25 1404.45 1957.77 1391.62C1957.79 1391.51 1957.85 1391.3 1957.77 1391.27C1954.35 1389.66 1942.32 1391.75 1942.23 1391.27C1941.41 1386.63 1953.67 1373.02 1955.99 1369.77C1956.45 1369.11 1962.84 1361.8 1962.1 1359.73C1961.97 1359.37 1943.77 1362.63 1943.25 1361.17C1943.09 1360.7 1943.49 1360.16 1943.69 1359.72C1949.24 1348.02 1963.32 1345.65 1968.21 1332.86C1971.15 1325.18 1961.11 1324.54 1960.32 1316.73C1959.06 1304.34 1968.4 1301.6 1972.04 1293.08C1972.56 1291.86 1967.05 1293.61 1967.45 1290.21C1968.58 1280.72 1988.82 1267.2 1987.32 1262.98C1986.93 1261.89 1972.82 1264.68 1970.51 1265.49C1968.7 1266.13 1968.87 1266.11 1966.94 1266.92C1966.45 1267.13 1965.29 1267.98 1965.41 1267.28C1967.03 1258.19 1981.53 1242.35 1985.28 1231.8C1986.88 1227.3 1978.9 1230.03 1981.21 1226.79C1984.11 1222.7 1998.02 1211.43 1998.02 1205.29C1998.02 1204.55 1986.6 1208.01 1985.28 1207.08C1985.14 1206.98 1985.89 1205.66 1989.36 1200.99C1993.56 1195.32 2005.95 1179.08 2006.68 1170.89C2007.01 1167.12 1994.78 1173.35 1991.39 1170.17V1168.74C1991.39 1165.11 2004.82 1147.3 2006.17 1139.71C2006.83 1135.96 1996.84 1141.79 1996.74 1140.79C1995.2 1125.56 2009.73 1112.3 2009.73 1097.43C2001.19 1100.61 2000.7 1100.31 1993.78 1104.2C1991.12 1105.7 1986.85 1108.98 1986.85 1108.86C1986.85 1102.09 2014.11 1073.26 2015.45 1062.69C2015.91 1059.12 1996.34 1068.56 2004.29 1060.82C2012.81 1052.53 2044 1034.47 2043.15 1029.66C2043.09 1029.32 2024.69 1029.94 2024.18 1027.12C2022.48 1017.52 2034.14 1006.27 2036.23 997.469C2036.39 996.801 2036.68 995.66 2036.23 995.348C2032.24 992.551 2017.23 1000.09 2016.36 997.469C2014.56 992.078 2031.12 977.941 2033.82 974.59C2034.89 973.27 2037.54 971.348 2036.53 969.941C2035.21 968.078 2030.23 971.469 2028.7 968.238C2026.82 964.27 2032.95 962.031 2032.31 959.348C2031.91 957.648 2022.5 960.488 2020.87 959.348C2020.33 958.969 2020.74 957.629 2020.87 956.809C2022.41 947.48 2030.16 940.898 2033.82 933.508C2036.88 927.309 2038.63 923.34 2033.22 923.34C2032.18 923.34 2032.4 920.758 2032.61 919.531C2033.84 912.648 2036.19 906.168 2037.43 899.199C2034.06 898.02 2021.44 897.27 2022.52 887.289C2023.41 878.941 2049.63 868.57 2051.54 857.801C2052.32 853.41 2042.69 856.758 2041.87 852.129C2040.64 845.219 2053.06 832.488 2055.57 826.609C2057.75 821.5 2043.03 820.57 2052.75 807.891C2057.29 801.969 2066.86 790.879 2066.86 790.879C2066.86 790.879 2059.6 790.879 2055.97 790.879C2052.16 790.879 2052.18 788.48 2054.76 784.641C2058.83 778.609 2064.24 772.68 2067.67 765.918C2069.77 761.77 2055.38 770.48 2056.78 761.949C2059.37 746.148 2069.64 730.039 2076.13 717.148C2077.92 713.598 2083.71 703.309 2081.77 702.398C2078.12 700.691 2072.74 704.66 2069.28 702.398C2056.93 694.359 2081.96 669.879 2084.19 660.43C2084.65 658.488 2071.59 665.199 2073.31 656.461C2075.29 646.34 2084.47 635.738 2088.63 626.969C2090.16 623.75 2079.76 628.008 2079.76 625.84C2079.76 618.621 2085.88 614.711 2089.43 610.531C2091.52 608.07 2104.88 591.98 2104.75 591.809C2103.32 589.789 2093.94 594.988 2091.85 595.211C2084.16 596.039 2089.03 590.109 2091.45 579.898C2091.7 578.82 2092.17 577 2091.45 576.5C2089.46 575.09 2083.06 584.211 2079.36 581.598C2077.18 580.07 2083.79 572.641 2083.79 571.391C2083.79 568.93 2080.77 573.91 2079.36 575.359C2077.14 577.648 2078.26 563.129 2091.45 546.441C2095.04 541.891 2100.41 536.32 2103.14 530.559C2104.15 528.43 2096.53 530.109 2096.29 529.43C2093.36 521.191 2112.81 496.578 2112.81 481.781C2105.41 481.508 2097.5 485.461 2103.35 478.93C2109.22 472.379 2127.54 453.898 2130.62 444.371C2132.53 438.469 2120.02 446.371 2120.99 436.871C2122.1 425.898 2132.45 419.371 2134.68 409.18C2135.88 403.66 2127.42 406.969 2129.85 397.57C2132.78 386.23 2146.95 366.539 2148.87 357.488C2150.17 351.441 2141.13 358.84 2141.93 349.809C2142.45 344.008 2151.9 326.32 2154.06 317.23C2154.26 316.398 2149.74 317.488 2149.33 316.91C2148.44 315.668 2149.91 311.129 2150.41 310.059C2154.31 301.828 2165.39 285.461 2166.9 276.961C2166.98 276.539 2160.02 278.941 2159.02 278.23C2158.02 277.531 2160.39 275.699 2161.27 274.738C2165.05 270.648 2168.22 265.051 2171.19 259.84C2173.16 256.379 2175.51 253.121 2177.72 250.008C2177.74 249.988 2179.53 248.699 2179.53 248.109C2179.53 247.629 2173.25 249.09 2172.54 248.418C2172.41 248.309 2172.54 248 2172.54 247.789C2172.54 247.68 2172.48 247.539 2172.54 247.469C2176.69 242.609 2181.98 239.77 2186.06 234.469C2186.49 233.91 2186.84 233.238 2187.19 232.57C2189.57 227.961 2180.6 232.719 2182.46 227.5C2183.48 224.609 2192.88 210.891 2195.11 207.75Z" fill="#9AB968"/>
<path fill-rule="evenodd" clip-rule="evenodd" d="M3470.72 308.598L3419.05 2016.62H3522.39L3470.72 308.598Z" fill="#9AB968"/>
<path fill-rule="evenodd" clip-rule="evenodd" d="M3475.12 128.879C3482.87 154.34 3492.33 178.5 3500.39 203.461C3503.9 214.309 3511.89 223.359 3514.57 234.691C3516.66 243.531 3501.68 243.641 3504.09 255.5C3507.11 270.348 3523.22 275.539 3526.9 291.059C3527.61 294.039 3519.8 297.668 3521.97 305.801C3527.43 326.301 3524.44 326.668 3527.51 348.289C3529.31 360.941 3536.2 371.211 3537.99 383.848C3539.17 392.148 3536.34 401.75 3537.99 409.871C3541.92 429.219 3562.03 441.488 3562.03 447.16C3562.03 449.16 3556.32 449.23 3557.1 455.828C3558.29 465.84 3565.65 471.461 3567.58 480.98C3568.64 486.191 3558.63 492.18 3561.42 502.66C3562.57 506.969 3565.49 509.09 3566.35 513.93C3567.57 520.82 3563.16 521.18 3563.88 530.41C3564.75 541.34 3570.66 548.848 3570.66 560.758C3570.66 562.629 3567.15 564.77 3568.82 567.699C3573.17 575.359 3596.82 605.109 3592.86 616.27C3592.61 616.961 3584.68 615.48 3585.46 617.129C3590.46 627.691 3604.58 631.039 3608.27 644.02C3609.02 646.66 3597.98 651.109 3597.17 657.891C3596 667.801 3614.21 676.738 3610.73 686.508C3610.08 688.359 3599.38 685.758 3597.17 688.25C3592.54 693.461 3601.92 707.238 3600.25 714.258C3599.32 718.199 3589.77 714.281 3589.77 722.941C3589.77 724.73 3589.19 728.191 3589.77 729.879C3593.76 741.441 3604.99 749.008 3610.12 760.23C3611.01 762.191 3611.75 764.289 3612.58 766.301C3616.86 776.609 3606.62 775.621 3608.88 787.109C3611.88 802.309 3632.31 811.418 3632.31 827.871C3632.31 828.449 3632.49 829.09 3632.31 829.609C3631.45 832.008 3624.71 827.281 3623.06 833.078C3621.67 837.961 3623.68 840.879 3626.14 843.48L3632.31 850.418C3645.61 867.051 3624.23 857.031 3618.62 864.93C3617.84 866.02 3615.81 870.371 3616.9 872.098C3623.63 882.758 3636.1 885.238 3643.4 895.52C3652.9 908.879 3637.33 911.75 3641.55 920.668C3643.56 924.891 3658.89 930.008 3655.73 938.879C3654.65 941.93 3636.02 933.449 3639.71 944.078C3643.62 955.391 3657.9 956.469 3660.66 970.098C3663.54 984.258 3636.57 973.078 3643.4 989.18C3646.23 995.848 3661.76 1007.1 3659.43 1016.93C3658.03 1022.86 3648.04 1012.85 3648.04 1034C3648.04 1046.93 3664.56 1052.71 3666.83 1065.49C3668.02 1072.18 3657.58 1066.11 3657.58 1068.1C3657.58 1068.58 3673.93 1081.34 3678.54 1087.18C3686.63 1097.42 3676.47 1093.06 3672.38 1094.98C3671.34 1095.46 3671.77 1098.01 3671.89 1098.89C3672.53 1103.34 3691.14 1119.75 3686.55 1126.2C3684.37 1129.28 3676.65 1124.09 3673.61 1127.07C3665.44 1135.05 3683.21 1148.04 3685.32 1151.35C3692.75 1162.96 3679 1169.22 3687.79 1179.1C3689.64 1181.18 3693.11 1184.23 3693.95 1187.77C3696.2 1197.27 3680.75 1186.66 3682.97 1202.28C3684.31 1211.69 3717.99 1242.8 3717.99 1264.96C3717.99 1276.06 3726.69 1283.36 3732.08 1291.51C3732.17 1291.65 3733.9 1293.14 3733.49 1294.29C3733.39 1294.57 3710.1 1294.21 3710.1 1294.29C3710.1 1294.77 3710.71 1294.75 3710.95 1295.08C3714.16 1299.6 3716.7 1304.51 3718.84 1310.14C3719.3 1311.36 3720.66 1314.11 3719.68 1314.11C3718.62 1314.11 3712.86 1314.9 3713.77 1314.9C3719.94 1314.9 3722.91 1326.59 3727.57 1332.29C3730.72 1336.16 3735.33 1337.96 3738.21 1342C3738.48 1342.38 3737.44 1342 3737.06 1342C3735.16 1342 3734.85 1341.91 3732.74 1342.41C3729.42 1343.18 3722.44 1344.86 3720.95 1350.09C3720.21 1352.7 3738.78 1369.88 3739.93 1376.39C3740.19 1377.87 3729.04 1373.75 3730.16 1380.03C3731.9 1389.87 3742.2 1395.09 3745.11 1404.3C3745.31 1404.93 3745.74 1405.84 3745.39 1406.32C3743.32 1409.24 3730.07 1415.01 3734.47 1424.12C3736.67 1428.68 3741.29 1432.01 3744.24 1435.45C3748.99 1440.96 3766.65 1462.08 3768.97 1468.62C3771.89 1476.82 3753.4 1477.45 3758.05 1488.04C3761.62 1496.18 3776.15 1506.18 3777.6 1514.33C3777.86 1515.8 3764.6 1511.84 3767.53 1517.97C3769.41 1521.88 3782.09 1535.66 3780.76 1539.41C3780.09 1541.28 3773.47 1537.7 3772.71 1543.05C3771.32 1552.83 3777.22 1556.21 3779.32 1564.49C3780.35 1568.54 3776.16 1565.59 3776.16 1569.34C3776.16 1575.58 3782.33 1582.74 3784.79 1587.55C3784.93 1587.82 3791.58 1599.96 3790.25 1600.89C3788.81 1601.91 3784.46 1599.34 3783.35 1600.89C3782.65 1601.88 3782.91 1605.79 3783.06 1606.96C3783.68 1611.78 3786.93 1617.05 3789.1 1620.71C3789.16 1620.82 3789.6 1622.03 3789.39 1622.34C3787.55 1624.91 3768.46 1624.32 3765.13 1623.44C3763.37 1622.97 3757.83 1618.85 3756.32 1619.91C3756.06 1620.09 3756.25 1620.73 3756.32 1621.12C3756.75 1623.52 3762.26 1636.62 3760.35 1639.32C3759.13 1641.03 3748.42 1635.34 3748.27 1635.28C3744.41 1633.71 3738.79 1631.27 3735.04 1629.21C3734.03 1628.65 3719.68 1619.17 3719.8 1623.95C3720.06 1634.06 3726.99 1643.78 3726.99 1653.48C3726.99 1654.2 3724.72 1652.34 3720.09 1647.82C3714.93 1642.77 3714.04 1641.54 3708.59 1637.3C3698.09 1629.14 3697.06 1640.86 3685.6 1636.26C3683.54 1635.43 3669.99 1625.41 3669.77 1625.57C3666.23 1628.07 3660.28 1629.17 3654.53 1628.4C3653.99 1628.33 3649.84 1626.52 3649.07 1627.59C3647.59 1629.67 3654.11 1637.71 3649.07 1637.71C3648.3 1637.71 3647.54 1637.71 3646.77 1637.71C3645.62 1637.71 3644.47 1637.76 3643.32 1637.71C3636.48 1637.39 3630.44 1631.59 3623.77 1630.02C3623.11 1629.87 3622.06 1629.18 3621.75 1630.02C3620.76 1632.82 3623.28 1641.63 3621.75 1643.77C3619.45 1647.02 3602.27 1629.45 3595.88 1632.45C3595.67 1632.55 3596.12 1634.17 3595.59 1634.47C3584.5 1640.71 3575.91 1632.39 3566.26 1627.59C3566.24 1627.58 3562.24 1626.11 3562.24 1625.98C3564.25 1633.89 3565.74 1641.65 3567.61 1649.55C3569.95 1659.43 3555.17 1646.02 3552.43 1644.66C3550.36 1643.62 3540.97 1638.04 3538.52 1639.77C3537.31 1640.61 3538.16 1649.71 3531.57 1643.77C3528.93 1641.39 3518.66 1626.16 3516.39 1627.75C3516.28 1627.83 3515.67 1632.58 3515.44 1633.09C3513.62 1637.2 3508.15 1636.87 3506.91 1639.32C3504.78 1643.51 3501.85 1652.84 3497.74 1654C3497.32 1654.12 3495.56 1654.29 3495.21 1654C3490.32 1649.87 3489.11 1641.51 3482.56 1638.88C3480.68 1638.12 3478.4 1648.21 3470.86 1648.21C3467.99 1648.21 3464.45 1636.73 3461.69 1639.32C3456.9 1643.82 3457.5 1658.89 3450 1658.89H3447.47C3441.45 1656.77 3443.14 1643.07 3437.98 1640.65C3437.48 1640.42 3430.88 1654.98 3425.97 1652.22C3424.45 1651.36 3419.73 1635.16 3414.9 1631.76C3412.54 1630.09 3410.34 1645.92 3402.89 1641.99C3398.84 1639.85 3398.65 1630.11 3394.67 1627.31C3393.4 1626.42 3381.87 1625.38 3380.76 1626.42C3376.18 1630.71 3374.08 1641.71 3367.79 1644.66C3364.52 1646.19 3363.84 1639.09 3357.99 1639.32C3353.59 1639.49 3351.88 1647.25 3347.88 1648.66C3342.3 1650.62 3338.66 1628.13 3332.7 1634.43C3327.72 1639.68 3325.76 1650.88 3319.1 1653.55C3318.39 1653.84 3317.63 1653.52 3316.89 1653.55C3312.6 1653.77 3312.62 1616.24 3308.99 1627.75C3307.85 1631.36 3306.21 1634.38 3304.56 1637.54C3303.67 1639.25 3302.65 1641.91 3301.4 1643.32C3293.54 1652.23 3292.95 1633.82 3283.69 1638.88C3279.35 1641.25 3265.99 1656.36 3265.99 1642.43C3265.99 1640.8 3265.99 1637.54 3265.99 1637.54C3265.99 1637.54 3261.47 1646.64 3258.4 1650C3258.03 1650.4 3257.21 1651.54 3257.14 1650.88C3256.46 1645.21 3256.3 1635.52 3258.72 1630.42C3256.61 1632.34 3254.46 1634.15 3252.41 1636.16C3251 1637.55 3249.66 1639.07 3248.33 1640.6C3247.38 1641.69 3246.6 1643.04 3245.73 1644.25C3237.28 1656.14 3241.1 1629.47 3238.68 1628.34C3238.1 1628.06 3235.64 1634.14 3235.53 1634.34C3233.88 1637.22 3231.57 1639.29 3229.22 1640.86C3224.31 1644.13 3226.44 1636.25 3223.84 1635.64C3217.48 1634.15 3210.53 1652.74 3202.88 1654.7C3202.83 1654.71 3202 1654.8 3201.95 1654.43C3201.14 1648.71 3205.02 1634.62 3203.99 1631.73C3203.81 1631.21 3203.21 1632.17 3202.88 1632.51C3201.57 1633.84 3200.12 1635.08 3198.61 1635.9C3194.08 1638.38 3189.53 1639.67 3184.89 1640.86C3180.74 1641.92 3178.83 1638.76 3173.94 1640.08C3172.96 1640.34 3166.15 1641.68 3166.15 1641.64C3166.15 1641.03 3171.47 1632.86 3170.23 1631.99C3168.22 1630.58 3162.94 1638.18 3160.95 1635.38C3156.96 1629.77 3177.42 1602.65 3178.21 1595.97C3178.3 1595.2 3177.1 1595.71 3176.54 1595.71C3172.07 1595.71 3168.47 1598.54 3164.11 1599.63C3164 1599.65 3162.5 1600.47 3162.81 1599.37C3163.39 1597.33 3165.18 1595 3165.96 1593.36C3168.11 1588.9 3169.69 1583.99 3172.25 1579.93C3177.97 1570.88 3186.41 1562.16 3189.71 1550.56C3189.95 1549.71 3182.62 1554.22 3183.96 1547.43C3185.42 1540.06 3195.47 1519.02 3195.27 1518.46C3195.08 1517.91 3194.4 1518.6 3193.97 1518.72C3192.83 1519.05 3183.38 1520.2 3183.03 1518.72C3182 1514.36 3195.58 1484.7 3198.61 1479.57C3200.38 1476.6 3201.8 1472.74 3203.81 1469.92C3204.15 1469.44 3205.08 1468.83 3204.73 1468.35C3204.64 1468.21 3204.48 1468.52 3204.36 1468.61C3201.64 1470.74 3199.4 1473.89 3196.85 1476.41C3194.01 1479.22 3191.04 1481.57 3187.85 1483.49C3187.38 1483.77 3186.64 1483.4 3186.37 1484.01C3185.96 1484.94 3187.85 1483.17 3188.42 1482.42C3190.09 1480.23 3191.81 1477.44 3193.23 1475.14C3198.1 1467.29 3205.41 1458.12 3208.44 1448.52C3209.94 1443.78 3203.81 1451.91 3196.76 1451.91C3196.44 1451.91 3197.12 1451.84 3201.77 1444.08C3206.2 1436.67 3210.76 1429.29 3214.75 1421.38C3215.4 1420.1 3216.01 1418.79 3216.61 1417.46C3217.06 1416.44 3217.47 1415.38 3217.91 1414.33C3221.13 1406.5 3208.66 1416.36 3209.75 1411.26C3209.85 1410.79 3209.94 1410.31 3210.11 1409.89C3212.37 1404.52 3230.07 1383.2 3229.22 1379.62C3228.78 1377.77 3212.76 1380.49 3210.11 1380.66C3209.5 1380.7 3208.45 1381.49 3208.26 1380.66C3206.3 1372.41 3229.46 1349.82 3231.45 1338.64C3214.61 1338.64 3222.94 1325.53 3232.91 1306.45C3237.5 1297.65 3237.24 1294.18 3237.05 1294.11C3235.21 1293.47 3226.42 1295.94 3226.58 1295.14C3228.97 1283.35 3246.79 1272.8 3248.25 1260.55C3248.26 1260.43 3248.32 1260.24 3248.25 1260.2C3244.97 1258.67 3233.48 1260.66 3233.39 1260.2C3232.61 1255.77 3244.33 1242.76 3246.54 1239.65C3246.99 1239.02 3253.09 1232.04 3252.39 1230.06C3252.26 1229.71 3234.87 1232.83 3234.37 1231.43C3234.21 1230.98 3234.59 1230.47 3234.79 1230.05C3240.09 1218.86 3253.55 1216.6 3258.23 1204.37C3261.04 1197.04 3251.44 1196.42 3250.68 1188.96C3249.48 1177.11 3258.41 1174.49 3261.88 1166.35C3262.38 1165.18 3257.11 1166.86 3257.5 1163.61C3258.57 1154.54 3277.92 1141.61 3276.49 1137.57C3276.12 1136.54 3262.64 1139.2 3260.42 1139.97C3258.7 1140.58 3258.86 1140.56 3257.01 1141.34C3256.54 1141.54 3255.43 1142.36 3255.55 1141.68C3257.1 1132.99 3270.96 1117.86 3274.54 1107.78C3276.07 1103.46 3268.45 1106.08 3270.65 1102.98C3273.43 1099.07 3286.72 1088.3 3286.72 1082.43C3286.72 1081.72 3275.8 1085.03 3274.54 1084.14C3274.41 1084.05 3275.13 1082.78 3278.44 1078.32C3282.45 1072.9 3294.3 1057.38 3294.99 1049.54C3295.31 1045.94 3283.62 1051.89 3280.39 1048.86V1047.49C3280.39 1044.02 3293.22 1027 3294.51 1019.74C3295.14 1016.15 3285.6 1021.73 3285.5 1020.77C3284.02 1006.21 3297.92 993.539 3297.92 979.32C3289.75 982.359 3289.28 982.078 3282.66 985.801C3280.12 987.23 3276.04 990.371 3276.04 990.25C3276.04 983.781 3302.11 956.219 3303.38 946.121C3303.82 942.711 3285.12 951.73 3292.71 944.328C3300.86 936.398 3330.68 919.141 3329.86 914.539C3329.8 914.219 3312.21 914.809 3311.73 912.109C3310.1 902.941 3321.25 892.191 3323.24 883.77C3323.39 883.129 3323.67 882.051 3323.24 881.75C3319.43 879.07 3305.09 886.281 3304.25 883.77C3302.53 878.621 3318.36 865.109 3320.94 861.91C3321.96 860.641 3324.49 858.809 3323.53 857.461C3322.27 855.68 3317.51 858.918 3316.05 855.84C3314.25 852.039 3320.11 849.898 3319.5 847.328C3319.11 845.711 3310.12 848.43 3308.56 847.328C3308.05 846.969 3308.43 845.691 3308.56 844.898C3310.03 835.988 3317.44 829.699 3320.94 822.641C3323.87 816.711 3325.54 812.918 3320.36 812.918C3319.37 812.918 3319.58 810.441 3319.79 809.281C3320.96 802.691 3323.21 796.5 3324.39 789.84C3321.17 788.711 3309.11 788 3310.14 778.461C3310.99 770.48 3336.05 760.559 3337.88 750.258C3338.63 746.07 3329.42 749.281 3328.63 744.84C3327.46 738.238 3339.34 726.07 3341.73 720.449C3343.81 715.57 3329.75 714.68 3339.04 702.559C3343.38 696.891 3352.52 686.289 3352.52 686.289C3352.52 686.289 3345.59 686.289 3342.12 686.289C3338.47 686.289 3338.49 684 3340.96 680.328C3344.84 674.559 3350.01 668.898 3353.29 662.441C3355.31 658.48 3341.55 666.801 3342.89 658.648C3345.37 643.539 3355.18 628.141 3361.39 615.82C3363.09 612.43 3368.63 602.59 3366.78 601.719C3363.29 600.078 3358.15 603.879 3354.84 601.719C3343.03 594.031 3366.95 570.629 3369.09 561.598C3369.53 559.75 3357.05 566.16 3358.69 557.809C3360.59 548.141 3369.36 538 3373.33 529.621C3374.79 526.539 3364.85 530.609 3364.85 528.531C3364.85 521.629 3370.71 517.898 3374.1 513.898C3376.09 511.551 3388.86 496.168 3388.75 496.008C3387.37 494.078 3378.41 499.039 3376.41 499.258C3369.06 500.059 3373.72 494.379 3376.03 484.621C3376.27 483.59 3376.72 481.848 3376.03 481.371C3374.12 480.031 3368.01 488.738 3364.47 486.25C3362.39 484.781 3368.71 477.68 3368.71 476.488C3368.71 474.129 3365.82 478.891 3364.47 480.281C3362.35 482.469 3363.43 468.59 3376.03 452.641C3379.46 448.289 3384.6 442.961 3387.2 437.461C3388.17 435.418 3380.88 437.02 3380.65 436.371C3377.86 428.5 3396.45 404.969 3396.45 390.828C3389.38 390.57 3381.81 394.348 3387.4 388.109C3393.02 381.84 3410.53 364.18 3413.47 355.07C3415.29 349.43 3403.34 356.98 3404.26 347.898C3405.33 337.418 3415.22 331.168 3417.35 321.43C3418.5 316.16 3410.41 319.32 3412.73 310.34C3415.54 299.488 3429.08 280.668 3430.92 272.031C3432.16 266.238 3423.52 273.309 3424.29 264.68C3424.78 259.141 3433.82 242.219 3435.88 233.531C3436.06 232.738 3431.75 233.789 3431.35 233.23C3430.51 232.039 3431.91 227.699 3432.39 226.691C3436.12 218.82 3446.71 203.168 3448.16 195.039C3448.23 194.641 3441.58 196.93 3440.62 196.258C3439.66 195.578 3441.92 193.84 3442.77 192.918C3446.38 189.008 3449.42 183.66 3452.25 178.68C3454.13 175.371 3456.39 172.25 3458.5 169.281C3458.51 169.258 3460.22 168.031 3460.22 167.461C3460.22 167.008 3454.22 168.398 3453.54 167.77C3453.42 167.648 3453.54 167.359 3453.54 167.16C3453.54 167.059 3453.49 166.918 3453.54 166.859C3457.51 162.211 3462.57 159.488 3466.47 154.43C3466.88 153.891 3467.22 153.25 3467.54 152.609C3469.82 148.199 3461.25 152.75 3463.02 147.758C3464 145 3472.98 131.891 3475.12 128.879Z" fill="#9AB968"/>
</svg>
