<svg width="6500" height="3023" viewBox="0 0 6500 3023" fill="none" xmlns="http://www.w3.org/2000/svg">
<path d="M0 645.031V3022.24H6500V395.519C6449.72 393.851 6398.94 397.66 6349.44 406.812C6351.84 371.019 6354.06 334.101 6339.68 300.371C6325.3 266.629 6289.83 236.621 6247.36 235.922L6175.98 316.519C6168.2 235.152 6108.47 204.711 6050.74 203.801C5993.02 202.89 5938.23 225.91 5891.83 254.91C5879.26 262.769 5866.74 271.472 5859.69 283.25C5851.23 297.359 5851.72 313.941 5852.4 329.742C5855.21 395.222 5858.02 460.711 5860.82 526.191C5815.95 549.242 5758.27 604.531 5762.6 669.179C5762.92 674.039 5763.59 678.832 5764.55 683.582C5771.49 718.429 5793.2 750.929 5800.36 786.062C5827.12 917.269 5654.06 1015.78 5615.69 1144.83C5615.17 1146.55 5614.68 1148.29 5614.21 1150.02C5601.07 1199.16 5608.8 1250.44 5603.51 1300.62C5598.22 1350.79 5574.96 1404.87 5521.77 1427.76C5503.6 1435.57 5483.37 1439.09 5463.37 1443.03C5445.02 1446.65 5426.87 1450.61 5410.71 1458.57C5342.15 1492.37 5345.31 1571.69 5358.79 1640.61C5360.34 1648.56 5362.04 1656.37 5363.78 1663.95C5383.05 1748.21 5394.19 1833.8 5397.04 1919.58C5397.83 1943.5 5396.08 1970.99 5373.85 1985.85C5357.96 1996.48 5336.02 1997.34 5315.77 1996.78C5246.69 1994.9 5178.07 1981.89 5114.68 1958.69C5095.48 1881.81 5076.29 1804.93 5057.1 1728.04C5033.07 1702.3 5011.29 1677.34 4991.41 1652.9C4932.19 1580.09 4889.85 1511.86 4855.2 1440.94C4840.15 1410.15 4824.08 1376.39 4789.58 1360.22C4755.08 1344.04 4698.79 1361.97 4702.63 1395.12C4665.12 1378.92 4638.18 1346.4 4633.06 1311.11C4561.02 1306.54 4487.57 1318.96 4423.19 1346.61C4420.21 1310.62 4417.23 1274.63 4414.26 1238.63C4407.01 1161.21 4405.75 1108.89 4384.78 1060.86C4380.72 1051.54 4375.37 1041.89 4365.35 1036.71C4354.87 1031.28 4341.68 1031.93 4329.42 1032.76C4281.93 1035.94 4234.44 1039.14 4186.93 1042.33C4126.62 1004.84 4063.18 994.09 4002.02 999.281C3993.28 1000.02 3984.59 1001.08 3975.96 1002.44C3957.51 1041.01 3939.08 1079.58 3920.63 1118.14C3915.56 1128.75 3910.49 1139.35 3905.42 1149.95C3895.21 1171.29 3883.29 1194.28 3859.26 1205.14C3843.56 1212.22 3824.85 1212.99 3808.62 1219.17C3771 1233.49 3756.36 1272.72 3756.57 1307.55C3756.77 1342.37 3767.45 1377.19 3762.1 1411.73C3750.8 1484.65 3670.61 1542.57 3670.27 1616.13C3670.12 1650.7 3688.13 1684.01 3687.67 1718.59C3686.98 1769.46 3647.44 1813.02 3618.91 1857.84C3590.37 1902.65 3574.06 1962.86 3614.25 2000.79C3636.67 2084.46 3380.65 2085.54 3346.94 2166.41C3321.97 2226.32 3151.85 2320.53 3100.06 2366.67C2916.65 2296.45 3125.35 2275.55 2960.51 2197.21C2924.99 2180.32 2889.43 2162.93 2850.86 2151.79C2796.99 2136.25 2739.35 2133.44 2682.62 2129.53C2511.26 2117.7 2341.02 2094.55 2173.95 2060.37C2140.35 2053.5 2106.88 2046.19 2073.55 2038.42C2048.27 2039.02 2022.55 2009.3 2018.97 1977.14C1973.27 1971.06 1927.58 1964.98 1881.88 1958.89C1839.74 1888.76 1806.65 1834.21 1785.43 1776.54C1782.73 1769.19 1779.98 1761.45 1773.51 1756.02C1765.89 1749.62 1754.62 1747.69 1744.03 1746.15C1621.91 1728.48 1496.83 1725.5 1373.73 1737.33C1285.27 1641.62 1229.58 1555.6 1181.77 1466.58C1130.25 1460.16 1078.74 1453.74 1027.23 1447.32C984.957 1391.79 964.285 1352.44 943.617 1313.09C933.812 1275.01 959.703 1254.62 985.605 1234.23C978.238 1216.43 971.402 1199.75 964.945 1183.98C939.512 1121.86 919.859 1074.03 895.527 1027.94C887.77 1013.26 879.449 998.609 867.633 986C828.988 944.75 761.941 932.941 700.547 923.859C675.535 891.961 653.941 861.152 633.152 833.402C587.352 772.269 545.371 725.941 479.02 715.101C438.762 708.519 397.562 717.359 356.816 721.269C342.82 722.609 326.43 722.609 317.375 713.5C310.656 706.742 310.309 697.129 307.332 688.672C295.414 654.84 245.406 644.371 203.711 641.672C135.883 637.301 67.5664 638.441 0 645.031Z" fill="#215676"/>
<path d="M1510.51 1455.92C1469.66 1469.04 1431.53 1490.56 1399.18 1518.74C1397.96 1519.81 1396.7 1520.95 1396.14 1522.47C1394.97 1525.69 1397.53 1529.23 1400.65 1530.64C1403.77 1532.05 1407.32 1532 1410.71 1532.48C1427.02 1534.76 1438.74 1548.72 1449.43 1561.25C1460.12 1573.78 1473.63 1586.8 1491.54 1588.39C1487.45 1604.42 1485.08 1620.89 1484.48 1637.42C1484.33 1641.59 1484.49 1646.27 1487.48 1649.18C1490.9 1652.51 1496.41 1652 1501.06 1650.95C1512.34 1648.41 1523.19 1644 1533.05 1637.96C1520.42 1626.69 1512.16 1610.65 1510.34 1593.83C1517.96 1602.3 1529.07 1607.01 1540.3 1608.96C1551.53 1610.9 1563.03 1610.34 1580.3 1611.57C1581.08 1624.84 1593.07 1635.36 1605.98 1638.51C1618.89 1641.66 1632.47 1638.97 1645.32 1635.56C1688.11 1624.22 1728.77 1604.91 1764.6 1578.92C1764.2 1566.21 1763.8 1553.51 1764.43 1543.03C1770.84 1525.19 1786.38 1510.91 1804.62 1506.7C1832.15 1517.17 1857.97 1532.12 1878.99 1550.74C1887.97 1516.18 1894.6 1481 1898.64 1446.62C1865.36 1459.62 1831.73 1471.72 1798.24 1483.9C1774.82 1471.23 1750.24 1460.68 1724.35 1452.73C1736.64 1446.84 1748.92 1440.95 1756.19 1433.98C1695.22 1420.76 1633.09 1412.89 1571.42 1410.4C1552.81 1420.35 1534.19 1430.3 1514.84 1441.15C1513.2 1446.46 1511.56 1451.76 1510.51 1455.92Z" fill="#215676"/>
<path d="M1041.07 1322.69C1079.97 1303.66 1122.55 1292.21 1164.67 1290.17C1175.52 1282.68 1186.37 1275.19 1198.49 1268.87C1243.27 1265.88 1288.3 1266.75 1331.2 1274.56C1325.66 1279.03 1320.12 1283.51 1316.18 1290.95C1323.22 1290.97 1330.27 1291 1336.46 1291.63C1344.88 1286.73 1353.29 1281.83 1360.74 1280.13C1392.66 1284.19 1424.59 1288.26 1455.25 1295.21C1447.71 1301.8 1440.16 1308.39 1433.61 1317.1C1443.31 1317.12 1453 1317.13 1461.21 1318.1C1479.18 1298.06 1506.41 1286.69 1532.75 1289.64C1522.52 1310.11 1502.6 1325.47 1479.42 1333.41C1497.07 1346.3 1505.51 1370.55 1493.88 1392.86C1482.2 1376.68 1470.53 1360.51 1455.77 1345.24C1443.25 1343.56 1430.74 1341.87 1420.31 1344.88C1410.9 1349.94 1401.49 1354.99 1387.63 1362.14C1394.75 1365.22 1401.88 1368.3 1409 1371.38C1369.43 1390.3 1321.67 1391.23 1281.64 1374.55C1242.02 1384.94 1199.43 1383.75 1162.5 1374.52C1166.31 1388.59 1170.12 1402.65 1173.03 1415.44C1151.99 1402.97 1134.64 1384.36 1127.82 1367.16C1093.38 1364.83 1060.09 1348.38 1041.07 1322.69Z" fill="#215676"/>
<path d="M4653.3 1382.27C4621.24 1321.28 4661.81 1243.01 4636.81 1178.81C4628.06 1156.34 4611.57 1136.72 4607.63 1112.93C4599.12 1061.47 4651.17 1018.95 4657.46 967.172C4661.35 935.101 4647.2 903.851 4642.8 871.851C4638.4 839.84 4649.84 799.91 4681.29 792.519C4661.84 806.011 4657.39 833.222 4660.52 856.679C4663.65 880.14 4672.54 902.812 4673.03 926.472C4673.63 955.851 4661.22 984.859 4665.18 1013.97C4667.5 1031.11 4675.43 1048.42 4670.59 1065.02C4667.13 1076.9 4657.68 1086.03 4652.25 1097.15C4635.37 1131.74 4660.68 1170.64 4672.81 1207.18C4693.22 1268.69 4675.07 1335.59 4653.3 1382.27Z" fill="#215676"/>
<path d="M4654.34 1357.62C4679.11 1295.09 4659.84 1217.46 4699.31 1162.99C4710.57 1147.44 4725.98 1135.01 4735.68 1118.44C4765.12 1068.08 4735.81 992 4778.99 952.789C4789.92 942.871 4806.21 930.082 4798.53 917.48C4798.06 942.062 4797.56 966.941 4791.13 990.672C4786.69 1007.07 4779.48 1022.68 4775.99 1039.31C4770.9 1063.53 4773.94 1088.73 4770.95 1113.3C4767.18 1144.32 4753.54 1174.06 4732.5 1197.16C4723.82 1206.68 4713.72 1215.41 4708.45 1227.16C4703.7 1237.77 4703.39 1249.74 4702.16 1261.31C4698.56 1294.91 4686.3 1327.56 4666.87 1355.22C4667 1351.13 4667.12 1347.04 4654.34 1357.62Z" fill="#215676"/>
<path d="M4668.73 1308.23C4662.08 1285.42 4654.66 1261.35 4636.93 1245.53C4623.53 1233.56 4604.85 1226.96 4595.58 1211.57C4586.36 1196.25 4589.21 1176.92 4587.03 1159.17C4585.33 1145.32 4580.43 1132.09 4575.57 1119.01C4567.51 1097.35 4559.46 1075.69 4551.41 1054.04C4539.13 1021.02 4526.68 987.652 4506.95 958.472C4511.93 988.941 4517.19 1020.21 4532.93 1046.77C4536.79 1053.28 4541.29 1059.56 4543.39 1066.82C4549.18 1086.92 4535.38 1106.72 4528.83 1126.58C4527.63 1130.2 4526.68 1134.11 4527.7 1137.78C4530.95 1149.45 4547.8 1147.66 4559.11 1151.98C4578.74 1159.48 4580.62 1186.39 4577 1207.08C4573.37 1227.78 4568.74 1252.36 4583.75 1267.07C4589.65 1272.86 4597.67 1275.87 4605.43 1278.73C4628.73 1287.32 4652.03 1295.91 4668.73 1308.23Z" fill="#215676"/>
<path d="M6036.04 266.371C6031.71 244.492 6035.95 221.379 6034.65 198.859C6033.35 176.34 6022.78 151 6005.25 149.91C5996.65 149.371 5988 154.929 5979.66 152.16C5964.83 147.222 5962.39 122.289 5957.42 103.64C5948.22 69.1012 5920.23 45.5895 5891.87 44.7614C5863.5 43.9216 5836.01 63.8512 5819.13 93.1911C5839.9 72.0622 5868.21 69.3708 5894.65 67.5505C5900.4 67.1598 5906.68 66.9489 5911.31 71.3591C5924.06 83.5114 5910.66 111.812 5918.54 129.519C5920.72 134.41 5924.33 137.91 5927.84 141.269C5937.06 150.101 5946.29 158.929 5955.5 167.761C5959.04 171.14 5962.65 174.582 5966.86 176.261C5971.92 178.281 5977.36 177.582 5982.64 178.129C6005.43 180.519 6024.15 210.402 6036.04 266.371Z" fill="#215676"/>
<path d="M6026.88 279.051C6025.85 239.961 6025.83 196.902 6045.46 167.031C6051.24 158.242 6059.57 150.691 6068.44 152.179C6074.5 153.199 6079.66 158.242 6085.48 160.652C6110.12 170.89 6136.75 132.539 6160.27 146.5C6166.4 150.129 6171.05 156.871 6176.76 161.511C6185.14 168.32 6195.81 170.261 6205.33 166.679C6210.15 164.871 6216.17 162.121 6219.5 166.949C6220.89 168.949 6221.3 171.75 6221.65 174.402C6222.62 181.672 6223.59 188.941 6224.55 196.222C6212.69 181.422 6194.09 176.34 6178.58 183.652C6169.44 187.949 6160.83 196.261 6151.15 195.129C6146.31 194.57 6141.87 191.66 6137.45 189.062C6117.06 177.082 6090.78 172.07 6073.96 191.14C6071.44 194 6069.16 197.371 6066.09 199.129C6062.72 201.07 6058.81 200.8 6055.35 202.449C6049.05 205.441 6045.46 214.109 6044.01 222.539C6042.56 230.98 6042.65 239.8 6040.8 248.101C6038.28 259.429 6032.39 268.91 6026.88 279.051Z" fill="#215676"/>
<path d="M6040.89 201.972C6042.09 182.23 6043.27 162.121 6039.81 142.832C6036.35 123.539 6027.46 104.832 6013.47 96.5701C6008.86 93.8397 6003.68 92.199 6000 87.7108C5995.62 82.3709 5994.3 74.2303 5992.2 66.949C5984.01 38.6209 5959.63 19.6287 5936.32 23.4295C5933.15 23.9412 5929.8 24.8006 5926.87 23.1795C5924.12 21.6717 5922.33 18.3123 5920.41 15.3592C5914.34 6.07013 5905.22 -0.308774 5895.79 0.0115388C5886.36 0.320132 5876.99 8.14045 5874.13 19.7108C5891.82 15.949 5912.36 19.3787 5923.44 37.5194C5926.2 42.0389 5928.23 47.2615 5931.19 51.5623C5944.48 70.8397 5973.94 69.1287 5979.2 93.992C5981.24 103.68 5978.38 114.39 5980.98 123.859C5985.25 139.472 6000.79 142.91 6011.73 151.609C6029.71 165.91 6035.65 195.902 6040.89 201.972Z" fill="#215676"/>
<path d="M6034.13 214.289C6033.18 188.41 6035.51 161.332 6046.2 139.371C6056.89 117.422 6077.54 102.07 6097.21 107.59C6109.08 110.93 6120.03 121.332 6132.11 119.66C6140.04 118.562 6146.88 112.402 6153.85 107.402C6162.22 101.402 6171.24 96.8904 6180.57 94.0389C6185.14 92.6404 6190.16 91.699 6194.39 94.3318C6197.6 96.3318 6199.93 100.129 6203.02 102.422C6210.08 107.64 6219.86 104.121 6226.37 110.422C6234.33 118.109 6231.9 133.98 6228.67 146.101C6222.19 137.519 6215.57 128.789 6207.36 123.16C6199.16 117.519 6188.96 115.371 6180.54 120.461C6175.09 123.75 6170.88 129.711 6165.66 133.582C6151.93 143.781 6134.81 137.832 6119.15 134.629C6103.5 131.43 6083.9 133.961 6077.15 152.41C6075.52 156.859 6074.8 161.961 6072.35 165.73C6069.43 170.25 6064.7 171.879 6060.46 174.09C6044.71 182.269 6032.92 201.922 6034.13 214.289Z" fill="#215676"/>
<path d="M6048.85 180.359C6035.03 161.281 6029.59 132.75 6035 107.609C6040.4 82.4724 6056.46 61.5896 6075.94 54.3709C6089.14 49.4803 6103.43 50.5193 6116.34 44.492C6134.31 36.0896 6147.59 14.9217 6165.96 8.10916C6168.75 7.08182 6171.7 6.40213 6174.54 7.12088C6184.76 9.72244 6187.77 27.5506 6196.84 34.1599C6205.98 40.8318 6218.83 34.3318 6227.25 42.4412C6234.01 48.9724 6234.48 61.5701 6234.33 72.449C6212.73 42.5388 6171.23 42.2498 6149.37 71.8396C6146.85 75.2498 6144.42 79.1209 6140.98 80.7498C6135.68 83.281 6129.95 79.742 6124.37 78.5623C6113.97 76.3513 6103.63 82.5388 6094.7 89.7693C6071.29 108.75 6050.89 140.679 6048.85 180.359Z" fill="#215676"/>
<path d="M3196.24 2457.68C3161.08 2445.65 3139.44 2384.62 3132.83 2325.87C3126.08 2265.93 3130.5 2202.63 3145.33 2146.86C3162.15 2083.58 3191.24 2032.08 3216.27 1976.85C3228.52 1949.81 3240.32 1919.5 3240.7 1885.64C3241.15 1846.03 3225.8 1810.63 3208.29 1783.82C3190.78 1757.01 3170.35 1735.19 3155.28 1704.54C3122.65 1638.16 3121.58 1538.93 3143.67 1461.43C3165.76 1383.93 3207.52 1326.13 3252.93 1285.64C3213.1 1331.99 3175.83 1388.81 3155.46 1462.27C3135.08 1535.73 3134.58 1628.44 3163.98 1692.87C3189.27 1748.28 3234.19 1780.36 3246.51 1846.88C3253.24 1883.24 3248.33 1923.33 3238.14 1957.38C3227.96 1991.44 3212.89 2020.63 3198.17 2049.72C3184.5 2076.74 3170.91 2104.23 3160.81 2135.3C3126.73 2240.11 3140.02 2381.64 3196.24 2457.68Z" fill="#215676"/>
<path d="M3210.74 2473.54C3137.88 2425.32 3090.81 2287.11 3103.35 2158.21C3107.28 2117.77 3116.34 2078.96 3119.23 2038.27C3122.12 1997.59 3117.48 1951.99 3098.84 1925.26C3082.22 1901.43 3058.75 1897.94 3037.1 1892.11C2988.32 1879 2938.5 1845 2910.53 1777.16C2888.95 1724.84 2882.98 1657.01 2890.61 1594.82C2898.24 1532.62 2918.65 1476.01 2945.07 1430.26C2919.74 1510.36 2893.61 1597.7 2902.08 1687.12C2909.86 1769.24 2949.36 1840.5 2997.89 1859.97C3021.66 1869.5 3046.9 1867.56 3070.08 1880.52C3109.91 1902.78 3138.38 1971.94 3136.48 2041.84C3134.93 2099.25 3115.26 2153 3116.86 2210.41C3117.58 2236.11 3122.56 2260.93 3128.42 2284.73C3143.74 2347.06 3165.37 2405.09 3210.74 2473.54Z" fill="#215676"/>
<path d="M3201.59 2466.27C3162.18 2397.71 3138.48 2304.69 3136.26 2209.85C3135.54 2178.93 3137.19 2146.86 3145.92 2119.56C3156.8 2085.57 3177.35 2063.08 3198.53 2047.61C3219.71 2032.14 3242.28 2022.23 3263.05 2005.29C3290.41 1982.99 3314.16 1948.54 3331.18 1906.47C3341.56 1880.81 3349.61 1851.43 3350.17 1820.49C3351.74 1734.21 3296.3 1658.02 3310.98 1575.23C3321.71 1514.72 3363.97 1488.51 3388.28 1440.12C3415.01 1386.92 3416.86 1303.26 3392.55 1246.93C3423.57 1314.09 3418.55 1419.95 3381.59 1478.18C3362.58 1508.1 3336.18 1527.47 3324.86 1566.74C3314.29 1603.42 3320.15 1647.34 3329.65 1684.83C3339.15 1722.32 3352.21 1758.08 3356.14 1798.24C3361.99 1857.91 3346.15 1919.55 3320.86 1962.91C3295.57 2006.28 3261.84 2033.45 3227.37 2052.41C3213.87 2059.84 3199.95 2066.28 3187.87 2078.79C3164.55 2102.93 3150.82 2147.71 3147.35 2193.08C3143.88 2238.45 3149.58 2284.51 3158.21 2327.93C3169.5 2384.76 3185.86 2438.78 3201.59 2466.27Z" fill="#215676"/>
<path d="M3203.89 2459.71C3178.69 2420.43 3141.85 2399.82 3125.72 2348.99C3119.07 2328.05 3116.79 2304.14 3114.74 2280.7C3108.93 2214.31 3104.34 2144.95 3117.32 2081.43C3132.22 2008.48 3167.94 1953.85 3195.72 1892.23C3223.5 1830.61 3244.14 1747.08 3223.81 1677.86C3213.24 1641.86 3193.39 1616.45 3175.29 1590.05C3157.11 1563.52 3139.83 1534.15 3128.73 1498.39C3117.63 1462.63 3113.29 1419.45 3121.61 1381.65C3128.68 1349.55 3143.88 1324.49 3154.09 1294.82C3167 1257.28 3171.57 1211.99 3166.75 1169.48C3181.35 1224.27 3167.39 1288.51 3148.2 1339.21C3141.01 1358.21 3132.96 1376.85 3129.24 1398.44C3118.72 1459.59 3145.54 1520.41 3173.54 1563.67C3201.54 1606.92 3234.54 1650.19 3241.56 1712.72C3248.06 1770.67 3229.96 1827.84 3210.78 1877.39C3194.17 1920.3 3176.26 1961.81 3157.14 2001.71C3148.04 2020.7 3138.57 2039.58 3132.33 2061.55C3125.69 2084.92 3122.98 2110.87 3121.84 2136.65C3116.35 2260.08 3147.88 2387.79 3203.89 2459.71Z" fill="#215676"/>
<path d="M3172.74 2391.91C3142.47 2334.36 3119.22 2265.56 3109.28 2190.85C3099.34 2116.15 3103.29 2035.44 3123.94 1967.09C3131.47 1942.16 3141.11 1919.01 3147.55 1893.26C3154 1867.51 3157.01 1837.74 3150.75 1811.87C3144.55 1786.29 3130.5 1768.76 3117.1 1752.57C3094 1724.66 3070.9 1696.76 3047.81 1668.86C3028.09 1645.04 3007.45 1619.31 2998.14 1581.82C2986.68 1535.63 2995.2 1482.41 3008.03 1437.22C3020.85 1392.03 3038.02 1349.47 3044.74 1300.75C3046.89 1285.16 3047.91 1268.75 3045.57 1253.24C3043.39 1238.84 3038.48 1226.11 3034.34 1212.97C3018.79 1163.7 3014.23 1101.15 3031.22 1053.22C3019.96 1080.75 3023.74 1118.31 3031.69 1148.87C3039.64 1179.43 3051.34 1207.75 3055.37 1240.37C3062.54 1298.31 3044.37 1355.58 3027.82 1407.92C3011.26 1460.27 2995.37 1520.8 3006.99 1576.7C3014.09 1610.88 3030.65 1637.45 3048.75 1657.43C3066.84 1677.42 3086.86 1692.1 3105.37 1711.03C3119.85 1725.85 3133.38 1743.27 3145.64 1762.89C3155.03 1777.93 3164.05 1795.44 3166.36 1816.8C3169.06 1841.78 3162.11 1866.55 3155.46 1889.39C3140.11 1942.14 3125.16 1996.29 3119.93 2054.26C3107.97 2186.8 3148.17 2316.61 3172.74 2391.91Z" fill="#215676"/>
<path d="M3122.25 1445.38C3116.69 1413.02 3096.23 1388.56 3097.31 1354.95C3097.73 1341.82 3101.53 1329.74 3105.25 1318.14C3112.06 1296.87 3118.87 1275.6 3125.68 1254.33C3129.82 1241.41 3133.99 1228.37 3136.45 1214.32C3141.95 1182.97 3138.17 1147.5 3126.54 1121.21C3137.6 1130.51 3144.16 1150.96 3145.55 1171.47C3146.94 1191.97 3143.84 1212.61 3139.69 1232.05C3136.24 1248.17 3132.06 1263.86 3127.17 1278.91C3119.87 1301.42 3110.84 1323.38 3108.76 1348.73C3106.23 1379.67 3114.48 1409.92 3122.25 1445.38Z" fill="#215676"/>
<path d="M2999.46 1496.19C3012.14 1458.29 3010.51 1408.34 2995.42 1372.96C2988.75 1357.31 2979.84 1344.66 2972.68 1329.62C2953.24 1288.8 2948.33 1230.11 2960.34 1181.99C2955.78 1204.08 2951.49 1226.61 2950.54 1249.92C2949.6 1273.22 2952.27 1297.66 2960.55 1316.51C2965.74 1328.32 2972.83 1337.39 2978.67 1348.32C2999.9 1388.09 3001.95 1446.06 2999.46 1496.19Z" fill="#215676"/>
<path d="M3051.01 1230.54C3046.31 1221.71 3045.11 1208.81 3046.44 1197.21C3047.76 1185.62 3051.31 1175.08 3055.21 1165.22C3067.29 1134.63 3083.06 1108.46 3095.2 1077.94C3107.35 1047.42 3115.85 1010.02 3110.78 974.39C3120.1 1003.72 3116.04 1040.42 3106.78 1069.8C3097.52 1099.18 3083.64 1123.68 3072.2 1150.85C3060.76 1178.02 3051.47 1210.13 3051.01 1230.54Z" fill="#215676"/>
<path d="M3228.88 1678.66C3213.24 1643.33 3200.53 1601 3203.17 1557.33C3206.55 1501.56 3233.46 1458.8 3259.25 1422.78C3285.03 1386.75 3313.09 1347.73 3320.38 1293.01C3323.18 1272 3322.62 1250.21 3322.05 1228.72C3331.09 1263.49 3325.84 1304.78 3314.31 1337.45C3302.79 1370.12 3285.7 1396.1 3269.36 1422.47C3254.83 1445.91 3240.7 1470.05 3227.01 1494.85C3223.4 1501.37 3219.79 1508.04 3217.35 1515.92C3214.77 1524.25 3213.63 1533.58 3212.69 1542.82C3207.64 1592.56 3208.94 1648.53 3228.88 1678.66Z" fill="#215676"/>
<path d="M3324.74 1540.49C3330.79 1516.18 3336.84 1491.88 3342.89 1467.57C3345.44 1457.28 3348.02 1446.89 3349.15 1435.91C3351.61 1412.08 3347.07 1388.01 3345.06 1364.06C3343.05 1340.11 3344.43 1312.45 3355.52 1296.85C3349.3 1309.47 3347.84 1326.95 3348.59 1343.24C3349.34 1359.52 3352.03 1375.41 3353.09 1391.65C3356.25 1440.12 3344.89 1487.59 3324.74 1540.49Z" fill="#215676"/>
<path d="M3193.8 1915.92C3197.75 1892.3 3214.48 1883.58 3227.38 1871.79C3235.78 1864.12 3243.3 1853.78 3249.4 1841.48C3252.53 1835.19 3255.31 1828.29 3256.86 1820.55C3260.83 1800.69 3256.21 1778.11 3260.45 1758.41C3264.39 1740.02 3275 1728.46 3283.29 1714.65C3291.59 1700.84 3298 1678.75 3291.57 1662.42C3288.68 1655.1 3283.8 1650.72 3280.16 1644.39C3272.53 1631.14 3271.21 1610.93 3272.34 1592.67C3270.81 1603.28 3274.13 1614.25 3278.44 1622.47C3282.76 1630.69 3288.13 1637.32 3292 1646.12C3299.92 1664.1 3300.14 1690.47 3292.53 1708.81C3286.95 1722.26 3277.95 1730.96 3272.4 1744.45C3259.5 1775.81 3268.99 1821.9 3256.84 1854.07C3242.72 1891.47 3207.34 1890.75 3193.8 1915.92Z" fill="#215676"/>
<path d="M3181.04 1738.38C3176.73 1726.7 3170.73 1716.76 3163.7 1709.62C3152.7 1698.46 3139.7 1694.48 3127.33 1688.5C3114.95 1682.52 3102.25 1673.47 3094.93 1655.81C3083.77 1628.88 3088.76 1592.48 3094.19 1561.04C3095.14 1555.57 3096.09 1549.88 3095.57 1544.26C3094.06 1527.74 3082.05 1521.82 3073.47 1513.16C3055.9 1495.4 3050.1 1451.91 3061.51 1423.43C3055.79 1453.68 3060.4 1492.14 3077.18 1507.13C3083.96 1513.19 3092.22 1515.1 3097.83 1523.89C3106.4 1537.34 3105.05 1560.9 3100.36 1578.9C3098.19 1587.21 3095.42 1595.45 3095.25 1604.5C3095.11 1612.1 3096.85 1619.42 3098.69 1626.37C3104.82 1649.56 3114.5 1674.06 3129.54 1677.87C3135.13 1679.28 3140.88 1677.58 3146.46 1679.08C3161.34 1683.07 3170.54 1707.54 3181.04 1738.38Z" fill="#215676"/>
<path d="M3039.83 1878.92C3026.06 1869.32 3013.24 1855.97 3002.03 1839.56C2994.48 1828.5 2987.4 1815.29 2985.07 1798.99C2982.87 1783.63 2985.22 1767.28 2989.43 1753.12C2998.61 1722.18 3015.8 1700.42 3029.57 1674.63C3043.34 1648.84 3054.3 1613 3047.15 1580.6C3044.83 1570.09 3040.76 1560.86 3038.33 1550.42C3033.39 1529.32 3035.93 1503.87 3044.7 1486.56C3039.29 1505.59 3039.04 1528.49 3044.02 1547.84C3047.59 1561.68 3053.63 1573.53 3056.85 1587.61C3060.44 1603.3 3060.23 1621.31 3056.27 1636.76C3051.11 1656.9 3040.4 1671.26 3030.71 1686.07C3013.92 1711.76 2998.35 1744.65 2998.27 1782.63C2998.21 1808.96 3005.82 1834.06 3016.2 1853.92C3026.58 1873.78 3039.64 1889.16 3039.83 1878.92Z" fill="#215676"/>
<path d="M2897.24 1702.11C2902.83 1644.01 2859.84 1600.52 2858.58 1541.71C2858.08 1518.63 2864.22 1496.73 2870.59 1476.22C2876.99 1455.62 2883.78 1435.36 2890.94 1415.46C2895.09 1403.91 2899.55 1391.15 2898.25 1377.85C2896.9 1364.12 2889.87 1354.27 2885.25 1342.69C2874.57 1315.97 2876.98 1280.88 2879.79 1249.13C2871.51 1279.97 2871.19 1316.48 2878.91 1347.72C2881.85 1359.61 2885.94 1370.99 2887.02 1383.72C2889.94 1418.03 2871.14 1445.27 2861.33 1475.83C2854.12 1498.27 2851.63 1524.2 2851.6 1549.65C2851.57 1568.06 2852.82 1586.82 2857.37 1603.59C2867.23 1639.93 2891.21 1662.64 2897.24 1702.11Z" fill="#215676"/>
<path d="M3145.82 2354.52C3114.46 2330.42 3085.14 2296.54 3064.65 2250.24C3044.16 2203.93 3033.25 2144.22 3039.78 2087.73C3047.22 2023.36 3075.54 1970.82 3086.59 1907.9C3088.88 1894.84 3090.42 1881.11 3089.21 1867.66C3086.04 1832.59 3065.48 1809.29 3045.3 1797.99C3025.12 1786.68 3003.18 1782.56 2984.94 1764.26C2954.42 1733.63 2941.41 1662.57 2956.48 1608.79C2937.03 1662.73 2943.61 1742.89 2975.76 1775.93C2994.2 1794.86 3016.94 1796.31 3038.01 1804.67C3059.07 1813.03 3081.55 1833.83 3085.52 1869.29C3088.68 1897.46 3079.08 1924.71 3070.35 1949.42C3049.7 2007.91 3031.58 2071.05 3028.32 2138.69C3025.05 2206.33 3039.15 2279.55 3072.29 2319.03C3097.04 2348.52 3128.61 2355.86 3145.82 2354.52Z" fill="#215676"/>
<path d="M3041.54 2058.57C3046.57 2011.69 3021.92 1971.17 3015.15 1924.9C3007.96 1875.71 3021.87 1824.27 3040.79 1784.66C3053.73 1757.58 3069.23 1733.51 3079.24 1703.18C3089.25 1672.86 3092.69 1633.07 3080.74 1604.75C3082.17 1651.94 3078.01 1702.37 3059.96 1738.83C3053.76 1751.36 3046.16 1761.74 3039.39 1773.43C3016.67 1812.65 3003.83 1867.27 3004.5 1921.76C3005.18 1976.25 3019.37 2029.93 3041.54 2058.57Z" fill="#215676"/>
<path d="M3146.64 2359.73C3143.93 2333.07 3141.28 2305.19 3146.19 2279.41C3148.97 2264.8 3154.06 2251.71 3159.61 2239.48C3197.55 2155.94 3258.15 2106.38 3294.16 2020.51C3301.95 2001.93 3308.54 1981.58 3311.52 1959.47C3319.77 1898.27 3299.27 1836.53 3275.03 1788.53C3250.79 1740.52 3221.48 1697.54 3206.51 1639.99C3192.74 1587.03 3192.7 1525.78 3202.65 1470.5C3212.6 1415.22 3232.02 1365.59 3255.48 1323.12C3238.2 1368.99 3220.76 1415.4 3210.42 1466.74C3200.07 1518.07 3197.34 1575.59 3209.56 1625.77C3229.84 1709.01 3285.76 1755 3309.15 1835.94C3325.52 1892.61 3323.12 1963.18 3303.01 2016.41C3292.2 2044.99 3277.01 2068.09 3262 2090.8C3244.02 2118.03 3226.03 2145.26 3208.05 2172.49C3193.99 2193.78 3179.71 2215.49 3169.99 2242.67C3160.26 2269.86 3155.57 2303.82 3146.64 2359.73Z" fill="#215676"/>
<path d="M4505.97 721.051L4466.34 733.832C4465.21 734.199 4465.23 735.992 4466.38 736.312C4475.34 738.851 4496.38 745.41 4506.28 753.601C4510.59 757.16 4514.63 761.199 4519.41 763.922C4522.88 765.902 4526.67 767.129 4530.15 769.109C4534.79 771.761 4538.75 775.652 4542.56 779.59C4548.6 785.832 4554.53 792.39 4561.78 796.761C4568.66 800.902 4577.2 803.601 4580.64 811.39C4584.19 812.34 4585.36 810.422 4583.21 807.14C4576.59 797.019 4570.34 785.64 4560.85 778.511C4570.39 780.879 4578.65 787.281 4586.94 793.039C4595.24 798.801 4604.32 804.199 4614.11 804.16C4623.89 804.129 4634.31 796.812 4635.33 786.011C4635.97 779.211 4632.94 772.75 4630.48 766.492C4628.02 760.222 4626.08 752.871 4627.62 747.129L4636.59 763.269C4637.5 764.91 4638.52 766.652 4640.14 767.34C4641.93 768.09 4644.01 767.289 4645.44 765.879C4646.87 764.472 4647.77 762.531 4648.62 760.629C4655.67 744.761 4660.93 727.422 4660.33 709.742C4648.88 714.539 4637.04 718.172 4624.67 721.301C4628.87 706.961 4631.97 692.222 4633.93 677.301C4634.95 669.609 4635.06 660.289 4629.34 655.812C4627.19 654.129 4624.56 653.48 4621.93 653.051C4615.59 652.019 4609.22 651.269 4602.84 650.59C4592.53 649.511 4582.08 648.281 4571.74 649.48C4555.32 651.39 4539.55 659.59 4527.72 672.371C4515.89 685.16 4508.09 702.441 4505.97 721.051Z" fill="#215676"/>
<path d="M4729.3 621.43L4697.21 631.781C4696.3 632.07 4696.32 633.519 4697.24 633.781C4704.5 635.84 4721.54 641.152 4729.55 647.769C4733.03 650.66 4736.31 653.93 4740.17 656.129C4742.99 657.73 4746.05 658.73 4748.87 660.332C4752.63 662.472 4755.83 665.621 4758.92 668.82C4763.8 673.871 4768.6 679.18 4774.47 682.711C4780.04 686.062 4786.95 688.25 4789.74 694.562C4792.61 695.332 4793.56 693.769 4791.82 691.121C4786.46 682.922 4781.4 673.711 4773.71 667.941C4781.44 669.859 4788.13 675.039 4794.84 679.699C4801.56 684.359 4808.91 688.73 4816.83 688.711C4824.75 688.68 4833.18 682.762 4834.01 674.019C4834.53 668.512 4832.08 663.281 4830.08 658.211C4828.09 653.129 4826.52 647.191 4827.77 642.539L4835.03 655.601C4835.76 656.93 4836.59 658.34 4837.9 658.902C4839.35 659.512 4841.04 658.859 4842.19 657.722C4843.35 656.57 4844.08 655.012 4844.76 653.472C4850.47 640.621 4854.73 626.582 4854.25 612.269C4844.98 616.16 4835.39 619.101 4825.38 621.629C4828.78 610.019 4831.29 598.09 4832.88 586.012C4833.7 579.789 4833.79 572.242 4829.16 568.621C4827.42 567.262 4825.29 566.73 4823.16 566.39C4818.03 565.551 4812.87 564.941 4807.71 564.39C4799.36 563.512 4790.9 562.519 4782.54 563.492C4769.24 565.039 4756.47 571.68 4746.9 582.019C4737.33 592.371 4731.01 606.359 4729.3 621.43Z" fill="#215676"/>
<path d="M5006.02 833.902L4985.92 840.39C4985.35 840.57 4985.36 841.48 4985.94 841.64C4990.49 842.929 5001.16 846.261 5006.18 850.41C5008.37 852.211 5010.41 854.261 5012.84 855.64C5014.6 856.652 5016.52 857.269 5018.29 858.281C5020.64 859.621 5022.65 861.59 5024.58 863.601C5027.64 866.761 5030.65 870.09 5034.33 872.3C5037.82 874.402 5042.15 875.769 5043.89 879.73C5045.7 880.211 5046.29 879.23 5045.2 877.57C5041.84 872.429 5038.67 866.66 5033.86 863.05C5038.7 864.25 5042.89 867.5 5047.09 870.422C5051.3 873.34 5055.91 876.082 5060.87 876.062C5065.84 876.039 5071.12 872.332 5071.63 866.851C5071.96 863.41 5070.42 860.129 5069.18 856.949C5067.93 853.769 5066.94 850.039 5067.73 847.129L5072.27 855.32C5072.74 856.152 5073.25 857.031 5074.08 857.379C5074.98 857.761 5076.04 857.359 5076.76 856.64C5077.49 855.922 5077.95 854.941 5078.38 853.98C5081.95 845.929 5084.62 837.129 5084.32 828.172C5078.51 830.601 5072.5 832.441 5066.23 834.031C5068.36 826.75 5069.93 819.281 5070.93 811.711C5071.44 807.812 5071.5 803.082 5068.6 800.812C5067.5 799.961 5066.17 799.629 5064.84 799.41C5061.63 798.89 5058.39 798.511 5055.15 798.16C5049.93 797.609 5044.63 796.992 5039.38 797.601C5031.05 798.57 5023.05 802.73 5017.05 809.211C5011.06 815.691 5007.1 824.461 5006.02 833.902Z" fill="#215676"/>
<path d="M5006.02 680.66L4985.92 687.152C4985.35 687.332 4985.36 688.242 4985.94 688.402C4990.49 689.691 5001.16 693.019 5006.18 697.172C5008.37 698.972 5010.41 701.019 5012.84 702.41C5014.6 703.41 5016.52 704.039 5018.29 705.039C5020.64 706.379 5022.65 708.351 5024.58 710.359C5027.64 713.519 5030.65 716.851 5034.33 719.062C5037.82 721.16 5042.15 722.531 5043.89 726.492C5045.7 726.972 5046.29 725.992 5045.2 724.332C5041.84 719.191 5038.67 713.422 5033.86 709.812C5038.7 711.011 5042.89 714.261 5047.09 717.179C5051.3 720.101 5055.91 722.84 5060.87 722.82C5065.84 722.801 5071.12 719.09 5071.63 713.609C5071.96 710.16 5070.42 706.89 5069.18 703.711C5067.93 700.531 5066.94 696.801 5067.73 693.89L5072.27 702.07C5072.74 702.91 5073.25 703.789 5074.08 704.14C5074.98 704.519 5076.04 704.121 5076.76 703.402C5077.49 702.679 5077.95 701.699 5078.38 700.742C5081.95 692.691 5084.62 683.89 5084.32 674.929C5078.51 677.359 5072.5 679.199 5066.23 680.789C5068.36 673.511 5069.93 666.039 5070.93 658.472C5071.44 654.57 5071.5 649.84 5068.6 647.57C5067.5 646.722 5066.17 646.39 5064.84 646.172C5061.63 645.652 5058.39 645.261 5055.15 644.922C5049.93 644.371 5044.63 643.75 5039.38 644.359C5031.05 645.332 5023.05 649.492 5017.05 655.972C5011.06 662.461 5007.1 671.222 5006.02 680.66Z" fill="#215676"/>
<path d="M5120.22 815.519L5100.12 822C5099.55 822.191 5099.56 823.101 5100.14 823.261C5104.69 824.55 5115.36 827.879 5120.38 832.031C5122.56 833.832 5124.62 835.879 5127.04 837.261C5128.8 838.269 5130.72 838.89 5132.49 839.902C5134.84 841.242 5136.85 843.211 5138.78 845.211C5141.84 848.379 5144.85 851.711 5148.53 853.922C5152.02 856.019 5156.35 857.39 5158.1 861.34C5159.9 861.832 5160.49 860.851 5159.4 859.191C5156.04 854.05 5152.87 848.281 5148.06 844.66C5152.9 845.871 5157.09 849.109 5161.29 852.031C5165.5 854.961 5170.11 857.691 5175.07 857.679C5180.04 857.66 5185.32 853.949 5185.84 848.472C5186.16 845.019 5184.63 841.742 5183.38 838.562C5182.13 835.379 5181.14 831.66 5181.93 828.75L5186.47 836.929C5186.94 837.761 5187.46 838.652 5188.28 839C5189.19 839.379 5190.24 838.972 5190.96 838.261C5191.69 837.539 5192.15 836.562 5192.58 835.59C5196.15 827.55 5198.82 818.75 5198.52 809.781C5192.71 812.222 5186.71 814.062 5180.43 815.652C5182.56 808.371 5184.13 800.902 5185.13 793.332C5185.64 789.429 5185.7 784.699 5182.8 782.429C5181.71 781.57 5180.38 781.25 5179.04 781.031C5175.83 780.511 5172.59 780.121 5169.36 779.781C5164.13 779.23 5158.83 778.609 5153.58 779.222C5145.25 780.179 5137.25 784.34 5131.25 790.832C5125.26 797.312 5121.3 806.082 5120.22 815.519Z" fill="#215676"/>
<path d="M5081.47 725.191L5059.57 732.261C5058.94 732.461 5058.95 733.449 5059.59 733.629C5064.54 735.031 5076.17 738.66 5081.64 743.179C5084.03 745.152 5086.26 747.379 5088.9 748.89C5090.82 749.98 5092.92 750.66 5094.84 751.761C5097.4 753.222 5099.59 755.371 5101.7 757.551C5105.04 761 5108.31 764.629 5112.32 767.039C5116.12 769.332 5120.84 770.82 5122.74 775.129C5124.71 775.66 5125.35 774.59 5124.17 772.781C5120.5 767.179 5117.05 760.89 5111.8 756.949C5117.08 758.269 5121.64 761.801 5126.23 764.992C5130.81 768.172 5135.84 771.152 5141.24 771.129C5146.65 771.109 5152.41 767.07 5152.97 761.101C5153.33 757.34 5151.65 753.769 5150.29 750.312C5148.93 746.84 5147.86 742.781 5148.71 739.609L5153.67 748.531C5154.17 749.429 5154.74 750.402 5155.63 750.781C5156.62 751.191 5157.77 750.75 5158.56 749.972C5159.35 749.191 5159.85 748.121 5160.32 747.07C5164.22 738.301 5167.13 728.711 5166.79 718.941C5160.47 721.59 5153.92 723.601 5147.09 725.332C5149.4 717.402 5151.12 709.261 5152.2 701.011C5152.76 696.761 5152.83 691.609 5149.66 689.129C5148.47 688.199 5147.02 687.84 5145.57 687.609C5142.07 687.039 5138.54 686.621 5135.02 686.25C5129.32 685.64 5123.54 684.972 5117.83 685.629C5108.75 686.691 5100.03 691.222 5093.49 698.289C5086.96 705.351 5082.64 714.902 5081.47 725.191Z" fill="#215676"/>
<path d="M4768.94 811.39L4747.03 818.461C4746.4 818.66 4746.42 819.652 4747.05 819.832C4752.01 821.242 4763.64 824.859 4769.11 829.379C4771.49 831.351 4773.72 833.59 4776.36 835.09C4778.29 836.179 4780.38 836.871 4782.3 837.961C4784.87 839.422 4787.05 841.57 4789.16 843.761C4792.5 847.199 4795.78 850.832 4799.79 853.242C4803.59 855.531 4808.31 857.019 4810.21 861.332C4812.17 861.859 4812.82 860.801 4811.63 858.98C4807.97 853.39 4804.52 847.101 4799.27 843.16C4804.54 844.472 4809.11 848 4813.69 851.191C4818.28 854.371 4823.3 857.351 4828.71 857.34C4834.12 857.32 4839.87 853.269 4840.44 847.301C4840.79 843.551 4839.12 839.972 4837.76 836.511C4836.4 833.039 4835.32 828.98 4836.18 825.812L4841.13 834.73C4841.64 835.64 4842.2 836.601 4843.1 836.98C4844.09 837.402 4845.24 836.961 4846.03 836.172C4846.82 835.39 4847.32 834.32 4847.78 833.269C4851.68 824.5 4854.59 814.922 4854.26 805.14C4847.93 807.801 4841.38 809.801 4834.55 811.539C4836.87 803.609 4838.58 795.461 4839.67 787.211C4840.23 782.961 4840.29 777.812 4837.13 775.332C4835.94 774.41 4834.49 774.051 4833.04 773.812C4829.53 773.242 4826 772.82 4822.48 772.449C4816.78 771.851 4811 771.172 4805.29 771.84C4796.21 772.89 4787.5 777.422 4780.96 784.492C4774.42 791.562 4770.11 801.109 4768.94 811.39Z" fill="#215676"/>
<path d="M4878.76 661.222L4856.85 668.289C4856.23 668.492 4856.24 669.48 4856.87 669.66C4861.83 671.062 4873.46 674.691 4878.93 679.211C4881.31 681.179 4883.54 683.41 4886.18 684.91C4888.11 686.011 4890.2 686.691 4892.12 687.789C4894.69 689.25 4896.87 691.402 4898.98 693.582C4902.32 697.031 4905.6 700.66 4909.61 703.07C4913.41 705.351 4918.13 706.851 4920.03 711.16C4921.99 711.679 4922.64 710.621 4921.45 708.812C4917.79 703.211 4914.34 696.922 4909.09 692.98C4914.37 694.289 4918.93 697.832 4923.51 701.011C4928.1 704.199 4933.12 707.179 4938.53 707.16C4943.94 707.14 4949.69 703.101 4950.26 697.129C4950.61 693.371 4948.94 689.801 4947.58 686.332C4946.22 682.871 4945.14 678.812 4946 675.64L4950.95 684.551C4951.46 685.461 4952.02 686.429 4952.92 686.801C4953.91 687.222 4955.06 686.781 4955.85 686C4956.64 685.222 4957.14 684.152 4957.6 683.101C4961.5 674.332 4964.41 664.742 4964.08 654.972C4957.75 657.621 4951.21 659.629 4944.37 661.359C4946.69 653.429 4948.4 645.289 4949.49 637.039C4950.05 632.789 4950.11 627.629 4946.94 625.16C4945.76 624.23 4944.31 623.871 4942.86 623.629C4939.35 623.062 4935.83 622.652 4932.3 622.269C4926.6 621.672 4920.82 621 4915.11 621.66C4906.03 622.711 4897.32 627.25 4890.78 634.312C4884.24 641.379 4879.93 650.929 4878.76 661.222Z" fill="#215676"/>
<path d="M4878.76 770.14L4856.85 777.211C4856.23 777.41 4856.24 778.402 4856.87 778.582C4861.83 779.98 4873.46 783.609 4878.93 788.129C4881.31 790.101 4883.54 792.332 4886.18 793.84C4888.11 794.929 4890.2 795.621 4892.12 796.711C4894.69 798.172 4896.87 800.32 4898.98 802.5C4902.32 805.949 4905.6 809.582 4909.61 811.992C4913.41 814.281 4918.13 815.769 4920.03 820.082C4921.99 820.609 4922.64 819.539 4921.45 817.73C4917.79 812.129 4914.34 805.851 4909.09 801.91C4914.37 803.222 4918.93 806.75 4923.51 809.941C4928.1 813.121 4933.12 816.101 4938.53 816.082C4943.94 816.07 4949.69 812.019 4950.26 806.051C4950.61 802.289 4948.94 798.722 4947.58 795.261C4946.22 791.789 4945.14 787.73 4946 784.562L4950.95 793.48C4951.46 794.39 4952.02 795.351 4952.92 795.73C4953.91 796.14 4955.06 795.711 4955.85 794.922C4956.64 794.14 4957.14 793.07 4957.6 792.019C4961.5 783.25 4964.41 773.66 4964.08 763.89C4957.75 766.551 4951.21 768.551 4944.37 770.281C4946.69 762.351 4948.4 754.211 4949.49 745.961C4950.05 741.711 4950.11 736.562 4946.94 734.082C4945.76 733.16 4944.31 732.801 4942.86 732.562C4939.35 731.992 4935.83 731.57 4932.3 731.199C4926.6 730.601 4920.82 729.922 4915.11 730.582C4906.03 731.64 4897.32 736.172 4890.78 743.242C4884.24 750.301 4879.93 759.859 4878.76 770.14Z" fill="#215676"/>
<path d="M4074.06 1019.14C4076.09 1002.9 4076.47 986.461 4075.22 970.152C4074.69 963.261 4073.4 955.57 4067.78 951.562C4063.91 948.789 4058.83 948.449 4054.52 946.429C4043.78 941.402 4040.54 927.492 4041.53 915.672C4042.51 903.84 4046.33 892.031 4044.35 880.332C4038.5 845.781 3988.37 834.402 3979.63 800.461C3975.51 784.441 3981.97 767.812 3988.32 752.539C3989.76 768.769 3991.46 785.761 4000.49 799.32C4010.18 813.84 4026.64 822.019 4040.35 832.832C4054.06 843.629 4066.12 860.742 4061.14 877.472C4059.18 884.019 4054.69 890.461 4056.44 897.07C4057.4 900.652 4060.05 903.48 4062.57 906.199C4077.09 921.832 4090.51 939.371 4096.09 959.961C4101.67 980.551 4097.94 1004.78 4074.06 1019.14Z" fill="#215676"/>
<path d="M4091.22 974.191C4107.19 958.519 4117.49 933.172 4109.12 911.761C4105.77 903.191 4099.82 896.109 4095.71 887.929C4084.49 865.562 4088.33 837.949 4095.97 813.902C4101.9 795.211 4110.07 776.211 4107.75 756.621C4105.57 738.191 4094.13 722.191 4080.19 711.14C4090.51 736.59 4089.59 766.98 4077.76 791.672C4070.47 806.871 4059.07 820.789 4058.03 837.851C4056.13 869.34 4089.69 891.449 4093.86 922.691C4095.95 938.332 4090.3 954.031 4091.22 974.191Z" fill="#215676"/>
<path d="M4103.75 1045.46C4082.6 1010.61 4088.01 961.812 4116.28 932.441C4143.51 904.16 4188.03 893.312 4206.78 858.832C4217.57 838.992 4217.4 814.922 4213.22 792.742C4209.87 774.949 4204.1 757.289 4205.12 739.211C4206.14 721.14 4216.25 701.859 4233.78 697.359C4219.03 718.039 4221.99 746.41 4229.21 770.769C4236.44 795.121 4247.39 819.152 4246.7 844.551C4245.92 873.121 4229.03 900.73 4203.94 914.429C4191.77 921.07 4178.1 924.539 4165.82 930.961C4129.26 950.062 4110.87 991.242 4103.75 1045.46Z" fill="#215676"/>
<path d="M4106.99 1014.4C4093.73 978.531 4095.85 937.269 4112.7 902.961C4119.17 889.789 4127.72 877.531 4132.12 863.531C4143.15 828.39 4126.19 788.91 4137.67 753.91C4145.38 730.422 4165.64 709.082 4160.87 684.82C4157.42 667.289 4141.26 653.801 4139.73 636C4137.42 609.09 4145.76 593.422 4161.6 559.949C4159.02 583.441 4156.51 607.742 4163.61 630.281C4171.27 654.609 4189.99 677.73 4184.3 702.601C4178.57 727.672 4149.68 743.062 4145.98 768.511C4141.83 797.019 4171.47 824.992 4160.88 851.769C4153.88 869.5 4130.46 881.539 4133.89 900.289C4134.74 904.929 4137.31 909.289 4137.07 913.992C4136.53 924.761 4122.39 930.25 4120.12 940.789C4118.49 948.351 4123.48 955.511 4126.62 962.582C4135.15 981.812 4129.1 1006.44 4106.99 1014.4Z" fill="#215676"/>
<path d="M134.481 674.351C135.199 654.59 131.582 634.922 131.149 615.152C130.719 595.379 133.953 574.461 146.41 559.101C160.469 541.769 183.25 534.789 204.156 526.992C225.063 519.191 247.238 507.8 255.18 486.949C263.281 465.672 253.828 441.769 256.578 419.172C258.731 401.449 268.84 384.851 283.594 374.812C298.348 364.761 317.492 361.429 334.77 365.922C325.621 381.16 301.762 376.371 286.746 385.89C276.43 392.441 271.609 405.172 270.641 417.351C269.672 429.531 271.852 441.722 272.18 453.941C272.492 465.39 271.164 476.879 268.25 487.949C266.813 493.41 264.926 498.902 261.383 503.289C257.731 507.82 252.598 510.859 247.574 513.812C236.867 520.082 226.125 526.379 214.692 531.211C194.629 539.679 171.496 544.289 157.211 560.73C145.649 574.031 142.336 592.66 142.356 610.289C142.375 627.91 145.25 645.519 144.07 663.109C143.598 670.179 140.176 679.191 134.481 674.351Z" fill="#215676"/>
<path d="M138.891 657.152C126.172 633.429 113.219 608.961 110.285 582.211C108.406 565.031 110.777 547.64 114.551 530.781C117.18 519.051 120.566 507.289 126.953 497.101C133.277 487.012 142.285 478.879 149.297 469.25C157.68 457.73 163.109 444.09 164.93 429.961C166.684 416.32 164.668 401.332 155.445 391.129C151.074 386.301 145.402 382.871 139.82 379.511C123.133 369.48 106.445 359.441 89.7578 349.41C86.957 347.73 83.957 345.992 80.6914 346.101C77.4297 346.199 74.043 349.031 74.6406 352.242C75.1992 355.242 78.5703 356.679 81.4609 357.691C107.25 366.672 131.094 381.199 150.91 399.992C153.582 402.531 156.258 405.25 157.535 408.711C159.176 413.16 158.254 418.09 157.316 422.742C154.684 435.75 151.937 449.062 145.027 460.402C139.992 468.66 132.969 475.492 127.039 483.129C111.812 502.769 104.145 527.519 102.035 552.281C98.8594 589.551 108.504 628.789 133.078 656.992C134.707 658.859 137.172 660.84 138.891 657.152Z" fill="#215676"/>
<path d="M141.109 668.051C141.41 648.902 144.934 629.301 155.047 613.039C165.156 596.769 182.691 584.34 201.84 583.91C209.637 583.73 217.336 585.492 225.094 586.32C249.93 588.972 277.566 580.261 290.613 558.961C295.234 551.422 297.789 542.789 302.023 535.019C311.312 517.992 328.996 505.812 348.223 503.211C356.648 502.07 365.652 502.789 372.926 507.199C378.094 510.34 382.039 515.101 386.695 518.961C393.637 524.722 402.242 528.449 411.191 529.582C414.621 530.011 418.273 530.129 421.152 532.039C424.027 533.949 425.453 538.531 422.894 540.851C421.223 542.371 418.672 542.281 416.449 541.89C394.394 538 379.887 514.261 357.801 510.562C345.465 508.492 332.68 513.32 323.055 521.312C313.43 529.301 306.605 540.16 301.098 551.379C297.285 559.152 293.898 567.359 287.883 573.57C282.5 579.129 275.391 582.672 268.238 585.621C255.309 590.961 241.504 594.75 227.519 594.429C218.598 594.222 209.727 592.359 200.812 592.832C182.602 593.801 165.34 605.371 157.516 621.84C151.285 634.961 150.941 650 147.5 664.101C146.914 666.492 146.109 669.051 144.09 670.461C142.07 671.859 138.547 671.14 141.109 668.051Z" fill="#215676"/>
<path d="M268.192 459.679C271.399 447.14 281.715 437.851 291.813 429.769C299.367 423.722 307.527 417.691 317.086 416.179C319.692 415.769 322.559 415.761 324.734 417.261C326.906 418.761 327.828 422.222 325.969 424.09C325.406 424.66 324.672 425.019 323.942 425.351C315.137 429.289 305.004 430.179 296.918 435.441C291.125 439.211 286.883 444.91 283.215 450.761C281.176 454.019 279.215 457.429 276.246 459.859C273.274 462.289 267.219 463.492 268.192 459.679Z" fill="#215676"/>
<path d="M296.762 429.39C295.359 426.019 296.269 422.179 297.305 418.679C299.676 410.679 302.851 402.511 309.113 397.011C311.476 394.929 314.297 393.269 317.402 392.781C318.086 392.672 318.906 392.679 319.316 393.23C319.523 393.511 319.574 393.871 319.598 394.211C319.875 398.66 316.18 402.211 313.023 405.359C308.859 409.519 305.059 414.281 303.34 419.91C302.457 422.801 302.012 426.09 296.762 429.39Z" fill="#215676"/>
<path d="M209.082 528.492C205.805 520.422 203.277 511.949 202.891 503.261C202.504 494.562 204.383 485.601 209.305 478.422C210.32 476.929 211.937 475.371 213.66 475.902C215.086 476.34 215.727 478.101 215.477 479.57C215.227 481.039 214.336 482.301 213.551 483.57C208.07 492.441 207.402 504.101 211.832 513.539C213.328 516.73 215.398 519.82 215.57 523.34C215.738 526.859 212.824 530.832 209.082 528.492Z" fill="#215676"/>
<path d="M207.227 493.379C206.98 491.629 207.613 489.851 208.602 488.39C209.59 486.929 210.918 485.742 212.23 484.562C214.168 482.832 216.199 481.039 218.703 480.332C219.207 480.191 219.812 480.109 220.203 480.461C220.574 480.789 220.59 481.39 220.375 481.84C220.156 482.281 219.758 482.609 219.363 482.91C217.297 484.48 215.031 485.789 212.977 487.379C210.918 488.972 209.031 490.91 207.227 493.379Z" fill="#215676"/>
<path d="M305.41 402.711C304.758 400.699 304.234 398.57 304.578 396.48C304.988 393.98 306.707 391.73 309.016 390.679C309.371 390.519 309.855 390.41 310.098 390.722C310.348 391.039 310.098 391.5 309.852 391.832C308.41 393.742 307.008 395.961 307.269 398.34C307.348 399.062 307.578 399.781 307.453 400.492C307.301 401.351 306.648 402.031 305.41 402.711Z" fill="#215676"/>
<path d="M306.195 394.781C305.184 394.41 304.527 393.429 304.094 392.449C303.418 390.922 303.121 389.062 304 387.64C304.133 387.422 304.312 387.211 304.562 387.152C304.855 387.082 305.168 387.25 305.336 387.511C305.508 387.761 305.559 388.07 305.59 388.371C305.727 389.812 305.395 391.351 306.008 392.672C306.164 393 306.383 393.312 306.477 393.672C306.617 394.199 306.461 394.879 306.195 394.781Z" fill="#215676"/>
<path d="M310.523 403.992C316.27 401.98 322.129 399.922 326.93 396.172C328.895 394.64 330.688 392.832 332.945 391.761C333.098 391.691 333.262 391.621 333.43 391.629C333.836 391.672 334.043 392.152 334.062 392.551C334.113 393.472 333.66 394.359 333.031 395.031C332.398 395.699 331.605 396.179 330.812 396.652C326.559 399.191 322.199 401.539 317.75 403.711C317.016 404.062 316.277 404.422 315.496 404.66C313.988 405.121 312.348 405.14 310.523 403.992Z" fill="#215676"/>
<path d="M325.715 398.66C326.156 399.16 326.891 399.242 327.555 399.289C329.23 399.422 330.973 399.511 332.539 398.91C333.352 398.59 334.105 398.09 334.965 397.961C335.281 397.91 335.633 397.922 335.871 398.129C336.184 398.41 336.152 398.941 335.906 399.281C335.66 399.621 335.266 399.812 334.879 399.98C332.852 400.84 330.617 401.23 328.426 401.019C327.68 400.949 326.926 400.801 326.269 400.441C325.613 400.09 325.059 399.492 325.715 398.66Z" fill="#215676"/>
<path d="M330.34 394.101C331.035 391.98 330.656 389.679 330.441 387.461C330.418 387.211 330.422 386.902 330.637 386.769C330.723 386.711 330.824 386.699 330.922 386.699C331.395 386.711 331.812 387.039 332.047 387.461C332.281 387.871 332.359 388.34 332.41 388.812C332.598 390.531 332.434 392.41 330.34 394.101Z" fill="#215676"/>
<path d="M205.082 513.351L199.957 509.582C197.656 507.89 195.328 506.179 193.566 503.929C192.133 502.101 191.105 499.539 192.219 497.492C192.312 497.312 192.434 497.14 192.613 497.039C192.805 496.949 193.035 496.961 193.242 497.011C194.613 497.371 194.992 499.07 195.504 500.39C196.504 502.992 198.797 504.851 201.062 506.472C202.227 507.3 203.422 508.121 204.309 509.25C205.191 510.371 205.73 511.859 205.082 513.351Z" fill="#215676"/>
<path d="M197.617 504.109C196.445 502.152 196.394 499.57 197.488 497.562C197.762 497.062 198.113 496.582 198.594 496.269C198.816 496.121 199.129 496.019 199.336 496.179C199.484 496.3 199.519 496.511 199.531 496.699C199.672 498.879 198.598 500.972 198.637 503.152C198.648 503.949 198.324 505.289 197.617 504.109Z" fill="#215676"/>
<path d="M232.82 589.781C230.148 579.98 231.676 569.121 236.941 560.441C239.063 556.941 242.133 553.582 246.18 552.992C246.719 552.91 247.293 552.89 247.797 553.109C248.836 553.562 249.203 554.929 248.902 556.031C248.598 557.121 247.805 558 247.043 558.84C242.23 564.14 237.398 570.191 237.043 577.34C236.945 579.351 237.211 581.371 237.047 583.379C236.766 586.801 235.176 590.101 232.82 589.781Z" fill="#215676"/>
<path d="M235.113 567.199C233.305 566.511 232.105 564.711 231.637 562.84C231.164 560.961 231.309 558.992 231.457 557.062C231.609 555.062 231.766 553.039 232.391 551.14C232.703 550.172 233.164 549.211 233.973 548.601C234.781 548 236.012 547.859 236.781 548.519C237.762 549.371 237.531 550.922 237.219 552.172C236.641 554.48 236.062 556.789 235.484 559.101C234.898 561.441 234.41 564.222 235.113 567.199Z" fill="#215676"/>
<path d="M345.742 506.269C349.406 496.539 356.965 488.34 366.363 483.902C375.762 479.461 386.891 478.82 396.738 482.16C397.937 482.562 399.355 483.41 399.164 484.66C399.023 485.59 398.019 486.129 397.098 486.332C395.074 486.769 392.98 486.301 390.937 485.961C378.414 483.902 364.324 487.5 356.601 497.57C354.504 500.301 352.922 503.422 350.613 505.98C348.305 508.539 344.211 510.332 345.742 506.269Z" fill="#215676"/>
<path d="M369.82 483.859C370.207 481.699 371.781 479.98 373.309 478.41C376.441 475.172 379.766 471.922 383.953 470.262C385.867 469.5 388.355 469.222 389.73 470.762C388.887 472.222 387.539 473.312 386.207 474.34C383.102 476.762 379.895 479.039 376.598 481.18C374.484 482.562 372.227 483.992 369.82 483.859Z" fill="#215676"/>
<path d="M254.25 498.539C241.344 485.379 229.391 471.062 220.84 454.73C212.285 438.39 207.258 419.879 208.742 401.512C210.223 383.129 218.676 364.992 233.266 353.722C236.953 350.871 242.289 348.5 245.996 351.32C249.149 353.711 249.059 358.699 247.059 362.121C245.063 365.531 241.695 367.871 238.727 370.48C229.215 378.851 223.199 391.082 222.379 403.722C221.766 413.129 223.899 422.472 226.02 431.652C227.965 440.09 229.938 448.601 233.699 456.402C238.797 466.961 246.918 475.699 253.684 485.269C255.992 488.539 258.106 493.199 254.25 498.539Z" fill="#215676"/>
<path d="M224.594 522.379C245.828 520.211 265.723 510.262 282.445 496.992C299.168 483.73 313.008 467.211 326.016 450.289C332.562 441.781 340.781 432.211 351.5 432.89C352.48 432.949 353.586 433.179 354.098 434.019C354.602 434.84 354.336 435.902 354.008 436.801C351.07 444.992 344.816 451.492 338.734 457.711C314.879 482.14 290.32 507.082 259.426 521.609C248.07 526.949 235.168 530.82 224.594 522.379Z" fill="#215676"/>
<path d="M277.953 577.55C297.039 581.972 318.141 576.5 332.68 563.359C342.734 554.269 349.547 542.05 359.539 532.902C361.211 531.371 363.262 529.84 365.508 530.152C363.91 541.711 355.336 550.91 346.906 558.98C335.711 569.691 323.691 580.07 309.273 585.75C294.855 591.429 277.492 591.699 277.953 577.55Z" fill="#215676"/>
<path d="M109.145 533.051C92.918 517.441 82.0313 496.371 78.6837 474.101C77.0899 463.512 77.2774 452.18 82.3438 442.742C83.4923 440.601 84.9844 438.5 87.1876 437.48C89.3946 436.461 92.4376 436.949 93.6133 439.07C94.5743 440.812 94.043 442.961 93.4766 444.859C91.793 450.492 89.9688 456.121 89.2579 461.961C86.7149 482.801 98.4532 502.332 108.16 520.949C110.316 525.09 112.453 529.711 109.145 533.051Z" fill="#215676"/>
<path d="M132.215 482.082C153.137 479.472 173.051 469.429 187.602 454.179C188.855 452.859 190.117 451.472 191.766 450.699C193.414 449.929 195.582 449.941 196.852 451.242C198.164 452.582 198.07 454.84 197.152 456.48C196.23 458.109 194.668 459.261 193.152 460.371C177.797 471.539 161.98 482.929 143.645 487.851C138.797 489.16 133.008 489.769 132.215 482.082Z" fill="#215676"/>
<path d="M211.68 396.472C206.562 390.691 201.605 384.492 199.227 377.14C196.844 369.789 197.496 361.031 202.672 355.301C203.687 354.172 205.539 353.191 206.57 354.301C204.977 362.062 203.43 370.379 206.48 377.691C207.742 380.722 209.738 383.39 211.094 386.371C212.449 389.359 213.117 392.941 211.68 396.472Z" fill="#215676"/>
<path d="M203.176 372.269C202.102 370.062 203.504 367.5 204.91 365.492C207.586 361.672 210.609 357.859 214.777 355.769C215.727 355.289 217.215 355.121 217.547 356.121C217.656 356.461 217.578 356.832 217.477 357.16C216.578 360.109 213.942 362.121 211.672 364.199C208.582 367.019 205.934 370.32 203.176 372.269Z" fill="#215676"/>
<path d="M219.957 430.629C231.207 418.441 241.223 403.84 242.379 387.289C242.477 385.922 242.887 384.121 244.262 384.031C245.055 383.972 245.734 384.59 246.191 385.242C248.762 388.89 247.234 393.922 245.414 398.011C241.551 406.66 236.715 414.879 231.027 422.472C227.953 426.562 224.363 430.66 219.957 430.629Z" fill="#215676"/>
<path d="M237.309 410.351C242.023 408.031 245.52 403.789 250.012 401.062C250.434 400.801 251.016 400.57 251.375 400.91C251.609 401.121 251.633 401.48 251.598 401.789C251.379 403.972 249.488 405.562 247.688 406.812C246.219 407.82 244.707 408.781 243.16 409.672C241.465 410.64 239.258 411.531 237.309 410.351Z" fill="#215676"/>
<path d="M248.004 405.051C248.641 405.711 249.574 406.082 250.488 406.019C251.184 405.98 251.84 405.722 252.52 405.582C253.199 405.449 253.977 405.472 254.5 405.929C254.664 406.07 254.801 406.281 254.773 406.5C254.762 406.601 254.715 406.699 254.66 406.789C253.988 407.902 252.504 408.332 251.238 408.051C249.969 407.761 248.906 406.89 248.004 405.051Z" fill="#215676"/>
<path d="M228.895 421.14C228.418 417.922 226.688 415.031 225.586 411.961C224.969 410.25 224.547 408.461 224.328 406.66C224.188 405.511 224.168 404.23 224.891 403.32C226.344 406.562 227.668 409.851 228.859 413.191C229.652 415.402 230.379 417.871 228.895 421.14Z" fill="#215676"/>
<path d="M227.188 410.722C227.359 408.59 227.594 406.289 228.992 404.672C229.215 404.41 229.551 404.152 229.863 404.281C230.27 404.449 230.211 405.039 230.066 405.449C229.34 407.519 228.234 409.461 227.188 410.722Z" fill="#215676"/>
<path d="M174.09 467.371C174.781 463.609 175.285 459.82 175.594 456.011C175.676 454.972 175.746 453.922 175.551 452.902C175.309 451.609 174.715 450.09 175.625 449.152C176.746 449.582 177.52 450.66 177.879 451.812C178.238 452.961 178.242 454.179 178.246 455.39C178.254 459.761 178.152 464.472 174.09 467.371Z" fill="#215676"/>
<path d="M185.879 465.039C189.758 463.57 193.695 462.281 197.684 461.152C199.91 460.519 202.238 459.941 204.516 460.351C204.883 460.422 205.297 460.551 205.441 460.89C205.512 461.07 205.496 461.269 205.461 461.461C205.141 463.031 203.457 463.879 201.938 464.379C196.914 466.051 191.484 466.48 185.879 465.039Z" fill="#215676"/>
<path d="M177.172 456.629C178.418 454.539 179.687 452.39 180.117 450C180.191 449.59 180.246 449.16 180.48 448.812C180.711 448.461 181.187 448.242 181.555 448.441C181.734 448.539 181.855 448.722 181.945 448.91C182.75 450.539 181.898 452.519 180.699 453.89C179.5 455.25 177.949 456.32 177.172 456.629Z" fill="#215676"/>
<path d="M199.102 462.672L203.84 456.949C204.609 456.019 205.473 455.039 206.652 454.82C207.012 454.75 207.488 454.851 207.547 455.211C207.57 455.34 207.527 455.472 207.48 455.59C206.312 458.781 203.629 461.371 199.102 462.672Z" fill="#215676"/>
<path d="M91.0781 495.711C97.0664 490.211 101.293 482.832 102.996 474.879C104.266 468.961 104.18 462.722 106.25 457.019C106.723 455.711 107.621 454.242 109.008 454.281C110.605 454.332 111.336 456.289 111.523 457.871C112.691 467.722 109.066 477.582 103.922 486.062C100.484 491.711 95.8867 497.269 91.0781 495.711Z" fill="#215676"/>
<path d="M84.3673 484.301C78.629 481.062 71.6212 480.949 65.629 478.222C59.004 475.199 53.9845 468.871 52.5509 461.742C52.3555 460.761 52.6368 459.312 53.6251 459.441C54.1055 459.5 54.422 459.961 54.6798 460.371C61.1993 470.801 71.4766 478.832 84.3673 484.301Z" fill="#215676"/>
<path d="M107.152 472.551C110.672 469.109 113.629 465.082 115.859 460.691C116.715 459.019 117.469 457.281 118.547 455.73C119.031 455.039 119.602 454.379 120.359 454C121.117 453.629 122.102 453.609 122.754 454.152C123.746 454.972 123.531 456.539 123.082 457.75C121.66 461.57 118.859 464.711 115.887 467.5C113.344 469.89 110.418 472.179 107.152 472.551Z" fill="#215676"/>
<path d="M102.43 484.051C101.91 480.949 100.863 477.949 99.3437 475.199C97.5469 471.961 95.0664 468.992 94.3008 465.371C94.2344 465.039 94.1797 464.699 94.3047 464.39C94.4219 464.082 94.7812 463.851 95.0859 463.972C95.1953 464.019 95.2852 464.101 95.3711 464.179C100.664 469.23 103.352 476.879 102.43 484.051Z" fill="#215676"/>
<path d="M97.8789 492.179C101.734 489.039 105.59 485.91 109.445 482.781C110.223 482.152 111.184 481.48 112.133 481.789C112.887 482.039 113.332 482.879 113.316 483.672C113.301 484.472 112.906 485.211 112.422 485.832C110.996 487.691 108.805 488.762 106.695 489.762C103.973 491.062 101.09 492.402 97.8789 492.179Z" fill="#215676"/>
<path d="M120.527 461.109C123.703 459.191 126.613 456.84 129.152 454.129C129.965 453.269 130.762 452.351 131.816 451.812C131.965 451.742 132.133 451.672 132.297 451.691C132.621 451.75 132.773 452.121 132.84 452.449C133.309 454.73 132.605 457.222 131.008 458.922C129.578 460.441 127.57 461.281 125.551 461.781C123.531 462.289 121.449 462.511 120.527 461.109Z" fill="#215676"/>
<path d="M318.766 578.16C321.965 582.691 327.406 584.98 332.613 586.879C338.367 588.992 344.195 590.902 350.082 592.601C361.141 595.789 373.535 598.14 383.746 592.82C385.184 592.07 386.871 591.172 388.32 591.89C389.926 592.699 390.023 595.14 388.945 596.582C387.867 598.011 386.062 598.679 384.348 599.211C372.52 602.91 359.605 603.992 347.742 600.41C341.172 598.422 335.105 595.082 329.098 591.761C322.359 588.039 315.359 584.082 318.766 578.16Z" fill="#215676"/>
<path d="M341.418 592.011C347.57 592.222 352.961 588.199 357.812 584.41C362.668 580.629 368.164 576.691 374.305 577.129C374.547 577.14 374.809 577.172 375.008 577.32C375.648 577.781 375.117 578.789 374.559 579.351C367.516 586.39 358.316 591.261 348.527 593.121C345.711 593.652 342.746 593.929 341.418 592.011Z" fill="#215676"/>
<path d="M359.348 600.699C359.699 603.261 361.688 605.261 363.625 606.98C368.555 611.359 373.898 615.332 379.875 618.109C380.906 618.59 382.016 619.05 383.141 618.91C384.629 618.722 385.781 617.562 386.809 616.472C387.289 615.961 387.805 615.359 387.766 614.66C387.711 613.691 386.66 613.129 385.746 612.789C383.074 611.789 380.309 611.031 377.504 610.519C375.066 610.082 372.539 609.812 370.328 608.691C365.234 606.109 362.82 599.562 359.348 600.699Z" fill="#215676"/>
<path d="M335.109 563.332C328.562 555.179 327.656 543.441 331.074 533.57C331.523 532.269 332.062 530.961 333.015 529.98C333.234 529.75 333.492 529.539 333.805 529.492C334.812 529.32 335.164 530.781 335.086 531.801C334.816 535.23 334.551 538.672 334.281 542.109C335.707 540.621 336.676 538.691 337.023 536.66C337.187 535.699 337.223 534.699 337.613 533.801C338.008 532.91 338.894 532.129 339.859 532.261C340.789 532.39 341.437 533.332 341.535 534.261C341.637 535.191 341.308 536.109 340.949 536.972C339.965 539.359 338.711 541.629 337.215 543.73C336.117 545.281 334.875 546.761 334.191 548.531C333.144 551.23 333.531 554.25 333.933 557.109C334.269 559.519 334.605 561.922 335.109 563.332Z" fill="#215676"/>
<path d="M346.926 554.562C351.703 553.902 356.52 553.222 361.059 551.59C365.598 549.961 369.895 547.289 372.652 543.332C374.332 540.922 375.484 538 377.891 536.32C378.414 535.949 379.035 535.64 379.672 535.742C381.262 535.98 381.414 538.25 380.898 539.769C378.898 545.699 373.598 549.781 368.574 553.5C371.473 554.801 374.371 556.109 377.273 557.422C377.879 557.691 378.512 557.992 378.91 558.519C379.887 559.801 378.883 561.812 377.375 562.371C375.867 562.929 374.176 562.449 372.711 561.789C370.562 560.82 368.578 559.492 366.879 557.859C366.262 557.269 365.648 556.621 364.84 556.34C363.48 555.871 362.035 556.582 360.719 557.16C355.594 559.41 349.699 559.84 346.926 554.562Z" fill="#215676"/>
<path d="M315.164 476.289C317.535 477.64 320.5 476.832 323.098 475.992C330.352 473.629 337.852 471.129 343.473 465.972C346.473 463.211 348.824 459.781 351.973 457.199C352.809 456.511 353.805 455.859 354.879 455.98C356.145 456.121 357.074 457.371 357.223 458.64C357.367 459.91 356.891 461.16 356.289 462.289C352.621 469.16 344.73 472.441 337.449 475.199C339.738 478.859 345.609 478.511 348.27 481.91C348.527 482.242 348.758 482.621 348.766 483.039C348.789 484.019 347.691 484.621 346.73 484.8C344.105 485.289 341.371 484.429 339.121 482.992C336.871 481.55 335.023 479.582 333.203 477.621C325.84 481.519 317.156 482.879 315.164 476.289Z" fill="#215676"/>
<path d="M277.887 503.769C280.633 501.34 282.613 498.062 283.492 494.5C284.426 490.722 284.121 486.769 283.859 482.89C283.449 476.801 283.152 470.64 284.273 464.652C285.395 458.66 288.062 452.769 292.711 448.82C293.066 448.519 293.465 448.222 293.93 448.199C294.648 448.172 295.234 448.851 295.344 449.562C295.453 450.269 295.211 450.98 294.953 451.652C293.195 456.269 290.664 460.59 289.379 465.359C289.145 466.222 288.961 467.172 289.344 467.98C290.336 470.09 293.617 469.14 295.695 470.199C296.137 470.43 296.547 470.789 296.66 471.269C296.93 472.379 295.535 473.199 294.391 473.172C293.246 473.129 292.082 472.672 290.988 473.012C289.172 473.57 288.695 475.879 288.531 477.769C288.25 480.972 287.969 484.18 288.297 487.371C288.469 489.082 288.816 490.781 288.73 492.492C288.445 498.082 283.785 502.312 277.887 503.769Z" fill="#215676"/>
<path d="M200.031 376.55C194.574 373.672 189.055 370.75 184.492 366.601C179.93 362.449 176.359 356.859 175.918 350.711C175.762 348.472 176.043 346.129 177.234 344.23C177.648 343.57 178.309 342.91 179.086 343C180.246 343.14 180.539 344.66 180.613 345.832C180.969 351.722 183.215 357.48 186.941 362.05C190.418 366.312 195.047 369.472 199.711 372.39C200.586 372.941 201.504 373.519 201.988 374.441C202.473 375.351 202.32 376.691 200.031 376.55Z" fill="#215676"/>
<path d="M373.668 510.441C378.527 512.531 383.434 514.562 388.562 515.851C393.691 517.129 399.086 517.64 404.281 516.66C412.652 515.07 420.156 509.429 424.008 501.832C424.895 500.082 425.574 497.902 424.539 496.242C424.414 496.031 424.254 495.832 424.031 495.75C423.348 495.472 422.785 496.32 422.516 497.011C420.254 502.761 416.094 507.89 410.527 510.57C408.824 511.39 407.023 511.98 405.219 512.531C402.516 513.371 399.762 514.16 396.934 514.301C390.312 514.629 384.09 511.449 377.664 509.82C376.078 509.422 374.066 509.261 373.668 510.441Z" fill="#215676"/>
<path d="M405.484 514.601C409.746 510.101 411.422 503.312 409.738 497.351C409.621 496.922 409.484 496.492 409.543 496.051C409.602 495.621 409.922 495.179 410.363 495.152C410.82 495.121 411.184 495.531 411.438 495.91C413.645 499.211 413.594 503.679 411.977 507.301C410.359 510.929 407.367 513.789 405.484 514.601Z" fill="#215676"/>
<path d="M396.738 527.711C404 527.14 411.055 524.16 416.535 519.359C418.676 517.492 420.871 515.211 423.711 515.101C423.949 515.09 424.203 515.101 424.395 515.242C424.762 515.5 424.707 516.062 424.57 516.492C423.859 518.699 422.023 520.351 420.16 521.742C416.438 524.511 412.281 526.711 407.891 528.222C404.812 529.289 401.152 529.941 396.738 527.711Z" fill="#215676"/>
<path d="M263.438 584.781C263.879 575.5 259.852 566.551 259.332 557.269C258.516 542.672 266.512 528.871 276.563 518.242C283.633 510.761 292.359 504.129 302.547 502.672C304.039 502.461 305.629 502.371 307 503C308.371 503.629 309.418 505.199 309 506.652C308.535 508.261 306.68 508.929 305.082 509.429C293.52 513.039 282.691 519.679 275.379 529.332C268.07 538.992 264.598 551.812 267.453 563.582C268.645 568.48 270.891 573.402 269.949 578.351C269.25 582.011 266.879 585.129 263.438 584.781Z" fill="#215676"/>
<path d="M265.004 545.039C270.227 536.722 278.051 530.07 287.098 526.25C290.25 524.922 293.926 523.941 297.023 525.402C297.57 525.652 298.098 525.992 298.453 526.48C298.828 526.992 298.992 527.64 299.031 528.269C299.16 530.422 297.82 532.59 295.832 533.429C294.25 534.101 292.461 533.961 290.742 533.992C280.668 534.179 271.781 540.82 265.004 545.039Z" fill="#215676"/>
<path d="M137.852 592.191C134.93 588.832 133.207 584.609 131.539 580.472C129.805 576.172 128.059 571.851 127.098 567.312C125.434 559.461 126.191 551.25 128.094 543.449C130.473 533.722 134.598 524.48 139.504 515.75C142.77 509.941 146.414 504.281 151.016 499.461C155.613 494.629 161.227 490.64 167.59 488.652C168.934 488.23 170.367 487.89 171.75 488.179C173.129 488.472 174.438 489.539 174.59 490.941C174.68 491.801 174.344 492.64 173.941 493.402C172.285 496.539 169.496 498.902 166.852 501.269C158.41 508.84 150.785 517.312 144.148 526.511C141.52 530.152 139.027 533.929 137.336 538.09C134.023 546.23 133.945 555.32 134.93 564.051C135.914 572.781 137.906 581.379 137.852 592.191Z" fill="#215676"/>
<path d="M146.906 516.84C151.113 513.422 155.535 510.191 160.453 507.902C165.367 505.609 170.828 504.281 176.227 504.781C178.145 504.961 180.535 505.972 180.379 507.89C180.313 508.629 179.84 509.289 179.273 509.769C177.125 511.601 173.965 511.32 171.145 511.222C162.301 510.929 152.996 513.871 146.906 516.84Z" fill="#215676"/>
<path d="M129.402 377.972C128.234 371.25 123.062 366.062 118.394 361.09C113.727 356.109 109.055 350.191 109.293 343.379C109.367 341.18 110.598 338.512 112.797 338.621C113.363 338.64 113.91 338.871 114.402 339.16C116.988 340.672 118.234 343.711 118.945 346.621C119.66 349.531 120.055 352.601 121.637 355.14C123.152 357.57 125.602 359.262 127.519 361.39C132.199 366.59 133.32 374.699 129.402 377.972Z" fill="#215676"/>
<path d="M119.82 355.851C118.254 351.871 119.426 347.379 120.742 343.312C123.356 335.261 126.84 326.972 133.648 321.949C134.356 321.429 135.289 320.941 136.059 321.359C132.742 327.84 129.652 334.441 126.797 341.129C128.785 340.211 131.109 340.031 133.215 340.652C133.766 340.812 134.324 341.039 134.707 341.472C135.492 342.351 135.254 343.789 134.508 344.711C133.762 345.621 132.645 346.121 131.574 346.609C128.996 347.8 126.293 349.211 124.953 351.711C124.043 353.422 123.883 355.429 123.063 357.179C122.246 358.929 121.516 360.172 119.82 355.851Z" fill="#215676"/>
<path d="M162.012 413.332C155.285 415.84 147.836 414.59 140.656 414.679C134.785 414.761 128.953 415.761 123.078 415.832C112.082 415.972 101.223 412.82 91.3204 408.039C86.6993 405.812 81.7306 402.461 81.2423 397.351C81.0977 395.789 81.8165 393.8 83.3868 393.742C84.4024 393.699 85.2267 394.511 85.9376 395.242C96.3517 405.91 111.57 411.691 126.441 410.629C125.965 405.91 121.012 403.261 117.219 400.41C115.606 399.199 113.973 397.172 114.906 395.379C115.59 394.082 117.344 393.722 118.789 394.011C123.195 394.89 125.434 399.64 128.246 403.14C134.434 410.851 145.781 413.429 155.172 410.34C156.734 409.832 158.387 409.172 159.977 409.609C161.563 410.039 162.695 412.242 162.012 413.332Z" fill="#215676"/>
<path d="M107.812 411.89C102.328 413.129 96.496 412.781 91.2031 410.879C86.164 409.082 81.0898 405.879 75.8867 407.109C75.1328 407.289 74.3593 407.59 73.8867 408.211C73.207 409.101 73.3749 410.429 74.0117 411.351C74.6484 412.269 75.6562 412.859 76.6679 413.34C84.5468 417.09 93.871 415.84 102.297 418.101C100.91 419.16 99.5898 420.3 98.3437 421.519C97.1953 422.64 96.1406 424.64 97.3945 425.652C98.3632 426.422 99.7734 425.742 100.809 425.039L109.91 418.941C111.488 417.89 113.187 416.66 113.625 414.812C114.062 412.972 112.273 410.89 107.812 411.89Z" fill="#215676"/>
<path d="M96.2617 406.539C94.3398 403.39 92.6094 400.129 91.082 396.769C90.6133 395.75 90.1602 394.699 89.957 393.59C89.6758 392.07 89.875 390.5 90.2187 389C90.6797 386.972 91.4062 385.011 92.3672 383.172C92.6992 382.531 93.168 381.832 93.8867 381.761C94.6367 381.691 95.2773 382.39 95.4336 383.129C95.5859 383.859 95.3828 384.621 95.2148 385.359C94.332 389.261 94.3984 393.371 95.4141 397.242C96.3828 400.922 98.2109 404.511 96.2617 406.539Z" fill="#215676"/>
<path d="M277.578 383.832C274.461 378.691 274.305 372.14 276.004 366.371C277.703 360.59 281.09 355.472 284.742 350.691C286.606 348.25 288.938 345.672 292.004 345.551C292.363 345.539 292.77 345.582 293.008 345.851C293.402 346.312 293.051 347.011 292.699 347.492C288.586 353.172 284.016 358.59 280.992 364.922C277.973 371.242 276.656 378.801 277.578 383.832Z" fill="#215676"/>
<path d="M278.914 362.621C276.574 361.332 275.981 358.301 275.641 355.652C275.402 353.82 275.164 351.972 275.328 350.129C275.488 348.289 276.086 346.441 277.328 345.07C278.945 346.441 279.141 348.851 278.902 350.949C278.664 353.062 278.129 355.222 278.742 357.25C278.992 358.062 279.414 358.82 279.578 359.66C279.949 361.551 278.93 363.402 278.914 362.621Z" fill="#215676"/>
<path d="M303.078 371.711C311.781 366.492 317.738 356.941 318.609 346.832C318.844 344.14 318.801 341.211 320.41 339.039C320.781 338.539 321.336 338.051 321.957 338.129C322.84 338.25 323.184 339.32 323.293 340.199C324.211 347.359 322.754 354.812 319.203 361.09C315.656 367.379 310.039 372.472 303.078 371.711Z" fill="#215676"/>
<path d="M320.738 353.289C320.957 350.57 322.668 348.211 324.449 346.129C326.867 343.32 329.883 340.57 333.582 340.351C334.66 340.289 336.012 340.679 336.176 341.75C336.219 342.039 336.16 342.34 336.059 342.609C335.437 344.289 333.426 344.871 331.965 345.91C331.098 346.519 330.391 347.332 329.543 347.972C328.34 348.879 326.902 349.41 325.609 350.179C323.73 351.301 322.168 352.941 320.738 353.289Z" fill="#215676"/>
</svg>
