<svg width="6500" height="2866" viewBox="0 0 6500 2866" fill="none" xmlns="http://www.w3.org/2000/svg">
<path d="M2328.44 1223.29C2306.94 1200.73 2297.59 1167.22 2304.32 1136.8C2309.8 1112 2325.21 1087.74 2319.17 1063.07C2313.96 1041.75 2294.16 1027.34 2284.24 1007.75C2275.11 989.729 2275.16 967.33 2284.37 949.35C2277.37 969.037 2292.02 989.6 2307.51 1003.63C2323 1017.65 2341.51 1031.53 2345.29 1052.08C2350.25 1078.97 2327.84 1102.63 2320.75 1129.04C2312.13 1161.2 2326.83 1194.51 2328.44 1223.29Z" fill="#163047"/>
<path d="M2317.17 1202.79C2312.24 1192.17 2312.48 1179.99 2310.48 1168.46C2308.47 1156.93 2302.85 1144.54 2291.78 1140.75C2279.83 1136.66 2263.51 1143.07 2255.91 1132.98C2253.88 1130.28 2253.04 1126.88 2252.37 1123.56C2249.13 1107.38 2248.9 1090.61 2251.69 1074.34C2253.14 1065.87 2255.41 1057.46 2255.38 1048.86C2255.36 1040.26 2252.61 1031.14 2245.84 1025.84C2242.06 1022.87 2237.37 1021.34 2232.79 1019.87C2218.12 1015.16 2203.44 1010.45 2188.76 1005.73C2198.81 1027.58 2234.31 1026.15 2245.66 1047.35C2254.59 1064.03 2243.45 1083.71 2237.63 1101.72C2233.09 1115.76 2232.48 1132.77 2242.44 1143.66C2251.7 1153.78 2266.85 1155.36 2279.04 1161.65C2296.54 1170.67 2307.04 1188.83 2317.17 1202.79Z" fill="#163047"/>
<path d="M2326.2 1217.85C2312.67 1200.64 2312.31 1176.86 2312.56 1154.97C2312.65 1146.8 2312.94 1138.03 2317.82 1131.49C2326.94 1119.25 2345.66 1121.72 2360.39 1125.69C2375.13 1129.65 2393.5 1132.86 2403.42 1121.25C2410.84 1112.56 2409.56 1099.73 2408.61 1088.34C2407.64 1076.95 2408.37 1063.49 2417.77 1057C2429.13 1049.15 2444.19 1056.79 2457.31 1061.09C2477.54 1067.71 2500.52 1065.43 2519.05 1054.94C2510.66 1066.37 2497.14 1073.88 2483.01 1074.97C2474.45 1075.64 2465.86 1074.07 2457.29 1074.4C2448.71 1074.73 2439.51 1077.47 2434.62 1084.52C2424.73 1098.8 2437.89 1120.87 2427.8 1135.01C2424.66 1139.41 2419.74 1142.17 2414.78 1144.34C2401.91 1149.97 2387.69 1152.5 2373.66 1151.65C2362.09 1150.95 2349.48 1148.22 2339.66 1154.38C2331.08 1159.75 2327.44 1170.4 2326.08 1180.43C2324.72 1190.45 2324.97 1200.85 2326.2 1217.85Z" fill="#163047"/>
<path d="M2554.47 1466.55C2526.12 1482.75 2493.34 1489.64 2468.7 1510.25C2460.46 1502.34 2454.77 1491.81 2452.68 1480.58C2452.14 1477.62 2451.77 1474.49 2450.01 1472.06C2448.28 1469.66 2445.46 1468.34 2442.76 1467.13C2408.57 1451.8 2373.22 1439.08 2337.1 1429.11C2331.14 1427.47 2324.85 1425.73 2320.51 1421.33C2312.11 1412.82 2314.32 1398.25 2305.15 1382.79C2297.15 1381.06 2289.31 1378.64 2281.73 1375.55C2279.01 1374.44 2276.1 1373.04 2274.8 1370.4C2273.4 1367.55 2274.29 1364.18 2275.04 1361.1C2278.92 1345.15 2278.44 1328.17 2273.68 1312.46C2273.12 1310.64 2272.5 1308.68 2273.07 1306.85C2273.58 1305.21 2274.94 1304 2276.29 1302.94C2285.06 1296.05 2297.61 1300.1 2336.72 1287.36C2368.51 1277 2401.87 1271.45 2440.84 1271.54C2440.79 1285.53 2442.69 1299.52 2450.76 1313.36C2466.52 1320.42 2483.59 1324.53 2505.69 1328.91C2510.38 1344.43 2517.94 1359.07 2539.07 1371C2550.02 1394.29 2568.39 1414.02 2594.02 1440.79C2580.53 1448.9 2568.13 1458.74 2554.47 1466.55ZM6455.8 387.279C6434.26 382.9 6412.14 389.197 6391.07 395.428C6319.75 416.537 6247.82 437.9 6182.5 473.479C6166.61 482.139 6150.71 491.779 6132.86 494.748C6115.02 497.729 6094.32 492.24 6085.16 476.631C6081.29 470.029 6079.84 462.338 6078.35 454.838C6069.81 411.881 6054.82 365.131 6016.7 343.561C5970.32 317.311 5908.37 339.158 5861.06 314.619C5798.12 308.357 5753.92 312.729 5709.99 318.838C5689.08 321.74 5667.83 325.158 5649.12 334.369C5597.61 359.74 5580.07 419.619 5567.66 472.928C5460.28 457.08 5372.9 459.881 5285.51 462.689C5255.78 463.639 5221.78 466.619 5204.27 489.158C5195.06 501.029 5192.43 516.131 5188.13 530.248C5187.76 531.42 5187.4 532.568 5187.02 533.721C5140.69 674.889 4933.48 707.6 4841.54 828.768C4802.13 880.709 4788.81 942.689 4793.23 1006.02C4798.26 1078.1 4826.27 1151.94 4864.96 1214.76C4881.21 1241.14 4899.26 1266.9 4916 1293.17C4938.48 1328.45 4958.6 1364.62 4968.8 1404.4C4986.09 1471.81 4971.85 1545.78 4930.51 1603.27C4897.55 1558.43 4873.25 1529.29 4843.85 1505.71C4837.11 1500.3 4829.71 1495.14 4821.89 1490.75C4802.29 1479.75 4780.05 1473.59 4759.15 1480.64C4709.34 1497.42 4714.85 1564.76 4689.87 1608.5C4650.93 1576.44 4621.97 1481.71 4550 1482.14C4528.67 1482.26 4509.11 1491.53 4491.29 1503.05C4486.31 1506.27 4481.46 1509.66 4476.74 1513.08C4421.8 1552.97 4372.97 1600.25 4332.2 1653.02C4270.54 1611.21 4226.91 1576.68 4190.12 1544.92C4151.89 1511.9 4095.3 1505.79 4050 1529.68C4028.52 1541.02 4007.03 1552.35 3985.55 1563.68C3942.48 1503.39 3895.68 1454.94 3834.6 1454.59C3756.92 1454.16 3706.75 1529.94 3677.26 1597.32C3626.35 1713.64 3589.03 1835.18 3566.17 1959.07C3488.21 1931.88 3401.84 1950.11 3362.36 2004.37C3333.45 2044.12 3330.03 2094.95 3327.56 2143.01C3293.6 2142.78 3264.94 2119.93 3234.87 2104.14C3217.67 2095.11 3200.02 2088.39 3180.63 2089.52C3151.21 2091.24 3124.36 2111.35 3095.13 2107.8C3067.6 2104.45 3048.09 2081.32 3034.27 2058.75C2993.42 1992.15 2974.43 1914.51 2927.27 1851.67C2877.02 1784.7 2795.48 1739.17 2708.73 1729.64C2760.72 1637.94 2725.06 1540.96 2650.29 1500.6C2644.93 1497.7 2639.36 1495.1 2633.62 1492.81C2633.3 1431.6 2646.8 1383.31 2634.03 1341.08C2621.26 1298.84 2582.73 1264.37 2537.13 1254.4C2475.07 1240.82 2461.45 1178.69 2398.94 1190.21C2373.88 1138.57 2308.73 1185.78 2272.06 1181.59C2177.89 1170.82 2136.71 1310.65 2117.39 1397.73C2109.55 1433.09 2107.7 1468.84 2108.77 1504.81C2111.67 1601.74 2135.74 1700.24 2120.75 1796.5C2084.72 1755.55 2021.28 1760.15 1990.64 1791.58C1960.31 1822.7 1954.83 1868.31 1955.87 1910.51C1955.88 1910.93 1955.89 1911.35 1955.9 1911.76C1956.76 1942.68 1960.18 1973.97 1953.67 2004.29C1941.44 2061.3 1891.63 2109.65 1831.28 2123.09C1825.99 2075.77 1777.55 2058.56 1735.7 2064.4C1693.85 2070.25 1657.46 2093.74 1623.88 2117.88C1565.75 2060.77 1512.39 2066.04 1471.43 2086.89C1430.47 2107.73 1399.16 2141.61 1368.81 2174.77C1285.5 2078.6 1179.73 2054.71 1103.19 2093.42C1062.13 2047.73 1026.83 2035.37 998.02 2021.8C954.891 2001.5 917.969 1969.76 892.641 1931.24C857.609 1818.29 853.91 1743.29 829.879 1672.75C805.852 1602.21 758.629 1535.44 688.109 1502.06C671.66 1494.27 653.602 1488.01 641.262 1475.16C612.441 1445.18 625.141 1390.88 591.371 1365.84C575.719 1354.24 554.41 1352.7 534.492 1351.63C441.449 1346.64 348.41 1341.65 255.359 1336.66C254.25 1236.3 229.469 1136.23 183.309 1045.67C175.078 1029.52 165.121 1012.66 148.02 1004.69C128.711 995.689 105.672 1000.39 84.7422 1005.28C56.3398 1011.92 27.9492 1018.55 -0.449219 1025.19V2872.38H6499.55V1092.35C6499.55 1092.35 6500.45 700.67 6500.45 421.697C6497.64 410.529 6477.33 391.658 6455.8 387.279Z" fill="#163047"/>
<path d="M1990.07 1784.22C1983.19 1754.73 1966.26 1730.2 1949.91 1706.95C1946.62 1702.27 1941.92 1697.07 1937.84 1699.34C1936.4 1700.13 1935.39 1701.75 1934.29 1703.16C1930.34 1708.24 1924.72 1711.04 1918.89 1710.84C1913.64 1710.66 1907.08 1705.97 1907.33 1699.17C1907.56 1693.08 1912.85 1690.63 1917.21 1688.92C1921.56 1687.21 1926.54 1683.09 1925.27 1677.02C1914.44 1678.25 1903.16 1679.41 1892.5 1674.25C1883.63 1669.96 1875.9 1661.61 1867.06 1657.19C1860.48 1653.9 1853.37 1652.84 1847.19 1648.22C1841.32 1643.84 1836.88 1636.71 1832.62 1629.78C1827.79 1621.93 1822.72 1613.34 1822.16 1603.74C1822.09 1602.55 1822.18 1601.15 1822.96 1600.62C1823.79 1600.06 1824.85 1600.84 1825.69 1601.6C1833.48 1608.69 1840.44 1617.51 1846.11 1627.49C1849.25 1621.72 1845.87 1613.08 1842.25 1606.84C1838.63 1600.61 1834.41 1593.15 1836.03 1586.26C1836.59 1583.88 1838.3 1581.71 1840.23 1582.46C1841.45 1582.93 1842.34 1584.4 1843.12 1585.77C1853.44 1604.14 1861.97 1624.06 1872.78 1641.97C1874.56 1644.92 1877.71 1648.12 1879.68 1645.93C1880.33 1645.21 1880.61 1644.06 1880.8 1642.94C1882.38 1633.33 1878.94 1622.84 1874.67 1613.9C1870.41 1604.95 1865.18 1596.53 1862.44 1586.77C1861.85 1584.66 1861.6 1581.77 1863.09 1580.98C1864.28 1580.36 1865.67 1581.63 1866.73 1582.83C1871.16 1587.88 1875.3 1593.4 1879.07 1599.28C1878.93 1594.25 1878.78 1589.22 1878.64 1584.19C1878.61 1583.17 1878.59 1582.06 1879.04 1581.29C1880.17 1579.35 1882.72 1581.2 1884.1 1583.22C1887.85 1588.75 1890.27 1595.78 1890.83 1602.83C1891.42 1610.23 1890.02 1617.37 1889.73 1624.68C1889.43 1632 1890.53 1640.29 1894.89 1645.58C1900.08 1651.86 1907.66 1651.56 1914.21 1654.43C1918.31 1656.23 1922.09 1659.34 1925.79 1662.45C1947.31 1680.52 1969.34 1701.15 1980.72 1731.04C1978.7 1715.1 1976.61 1698.89 1971.18 1683.92C1967.32 1673.26 1961.88 1663.55 1956.22 1654.2C1942.53 1631.58 1927.02 1610.18 1908.39 1595.01C1898.18 1586.7 1887.07 1580.27 1877.85 1570.06C1870.05 1561.43 1863.96 1550.49 1858.21 1539.49C1843.69 1511.75 1830.39 1481.69 1826.81 1449.59C1826.53 1447.07 1826.36 1444.31 1827.44 1442.39C1828.92 1439.76 1832.26 1439.97 1834.55 1441.97C1836.84 1443.97 1838.31 1447.24 1839.57 1450.42C1847.15 1469.53 1850.75 1490.65 1858.84 1509.45C1868.19 1531.17 1882.96 1548.45 1898.37 1563.35C1913.77 1578.25 1930.16 1591.32 1944.82 1607.52C1959.49 1623.71 1972.64 1643.72 1978.44 1667.08C1982.51 1683.46 1983.07 1701.54 1990.19 1715.4C1991.27 1705.09 1992.34 1694.78 1993.41 1684.47C1994.15 1677.25 1994.89 1669.79 1993.34 1662.47C1990.51 1649.17 1981.04 1639.79 1972.96 1630.33C1965.29 1621.35 1958.25 1611.11 1953.63 1599.23C1949.82 1589.42 1947.79 1578.82 1945.79 1568.35C1938.42 1529.79 1931 1489.89 1935.88 1452.33C1936.25 1449.45 1936.83 1446.33 1938.69 1444.85C1941.56 1442.56 1945.88 1445.88 1947.44 1450.24C1948.99 1454.6 1948.62 1459.41 1948.31 1463.97C1946.02 1498.1 1949.5 1533.66 1958.46 1567.44C1961.95 1580.61 1966.4 1593.81 1973.7 1604.37C1981.55 1615.74 1992.26 1623.4 1999.77 1636.17C1996.69 1612.89 2003.61 1590.8 2011.51 1571.08C2019.42 1551.36 2028.62 1531.87 2030.58 1509.07C2033.27 1477.75 2021.88 1444.58 2024.69 1413.3C2025.51 1404.15 2028.22 1394.39 2034.7 1391.31C2035.45 1390.95 2036.31 1390.7 2037.12 1391.1C2037.91 1391.49 2038.49 1392.44 2038.92 1393.41C2041.01 1398.11 2040.38 1403.64 2040.02 1408.76C2038.82 1425.63 2041.42 1443.13 2045.32 1460C2047.77 1470.6 2050.75 1481.22 2051.31 1492.02C2051.84 1502.34 2050.11 1512.36 2047.54 1521.72C2037.53 1558.28 2014.78 1587.43 2011.48 1626.86C2010.65 1636.78 2011.11 1646.99 2010.46 1656.95C2009.9 1665.49 2008.52 1673.79 2007.15 1682.06C2004.8 1696.3 2002.44 1710.54 1999 1726.54C2007.68 1710.92 2016.43 1695.19 2027.41 1682.37C2033.6 1675.15 2040.47 1668.88 2045.97 1660.77C2051.47 1652.66 2055.59 1642.21 2054.99 1630.76C2054.61 1623.57 2052.41 1616.53 2051.02 1609.41C2047.72 1592.52 2049 1575.32 2051.02 1558.82C2052.43 1547.28 2054.72 1534.81 2062.07 1528.79C2067.7 1542.44 2067.93 1558.12 2066.99 1572.76C2066.05 1587.4 2064.1 1602.04 2065.92 1616.91C2067.41 1629.07 2071.4 1641.47 2069.8 1653.18C2068.98 1659.14 2066.76 1664.42 2064.32 1669.36C2060.48 1677.12 2056.04 1684.33 2051.06 1690.83C2036.07 1710.43 2015.67 1724.91 2008.46 1751.51C2006.21 1759.82 2005.41 1768.89 2005.48 1778C2005.5 1780.35 2005.55 1782.81 2004.75 1784.79C2003.44 1788.03 2000.12 1789.02 1997.23 1788.02C1994.33 1787.03 1991.8 1784.47 1990.07 1784.22Z" fill="#163047"/>
<path d="M1845.76 1506.72C1841.62 1509.73 1836.13 1508.65 1831.38 1506.1C1819.08 1499.5 1810.04 1484.26 1804.51 1468.36C1802.02 1461.18 1800.19 1452.4 1803.47 1446.58C1803.77 1446.05 1804.16 1445.52 1804.69 1445.49C1805.16 1445.46 1805.62 1445.84 1806.03 1446.23C1810.12 1450.15 1812.57 1456.27 1814.95 1462.07C1819.69 1473.66 1825.49 1485.84 1834.57 1491.33C1837.23 1492.94 1840.09 1493.91 1842.59 1495.98C1845.09 1498.05 1847.24 1501.72 1845.76 1506.72Z" fill="#163047"/>
<path d="M1872.79 1545.31C1876.32 1536.22 1877.3 1525.51 1877.33 1514.9C1877.36 1504.28 1876.49 1493.56 1876.53 1482.95C1876.54 1480.21 1876.84 1477 1878.69 1475.97C1879.71 1475.41 1880.95 1475.7 1882.06 1476.27C1887.47 1479.04 1890.09 1487.42 1890.92 1494.79C1892 1504.45 1891.27 1514.03 1890.33 1523.44C1889.68 1530.02 1888.9 1536.7 1886.61 1542.42C1885.4 1545.43 1883.68 1548.23 1881.2 1549.35C1878.73 1550.47 1875.4 1549.42 1872.79 1545.31Z" fill="#163047"/>
<path d="M1882.22 1525.27C1878.63 1525.48 1874.95 1523.15 1872.11 1519.81C1869.28 1516.48 1867.18 1512.22 1865.36 1507.88C1862.58 1501.25 1860.31 1494.09 1860.07 1486.84C1860 1484.7 1860.26 1482.25 1861.65 1481.33C1863.39 1480.17 1865.62 1482.12 1867.06 1484.19C1874.71 1495.16 1875.71 1512.48 1882.22 1525.27Z" fill="#163047"/>
<path d="M1965.15 1612.59C1959.4 1613.33 1953.37 1610.89 1948.02 1607.05C1942.66 1603.22 1937.87 1598.04 1933.16 1592.85C1929.12 1588.4 1925.1 1583.91 1921.11 1579.38C1916.97 1574.67 1912.82 1569.9 1909.31 1564.38C1901.3 1551.79 1896.95 1535.51 1897.46 1520.07C1897.54 1517.91 1897.91 1515.39 1899.44 1514.72C1900.19 1514.39 1901.08 1514.62 1901.87 1515.05C1904.15 1516.29 1905.86 1519.1 1906.88 1522.07C1907.89 1525.03 1908.32 1528.2 1908.84 1531.32C1909.71 1536.46 1910.87 1541.55 1912.31 1546.54C1913.37 1550.24 1914.98 1554.38 1917.85 1555.53C1913.31 1546.82 1911.11 1536.25 1911.81 1526.36C1911.97 1524.01 1912.31 1521.64 1913.25 1519.72C1914.19 1517.8 1915.83 1516.39 1917.66 1516.57C1919.74 1516.77 1921.62 1518.96 1922.65 1521.46C1923.68 1523.96 1924.03 1526.75 1924.37 1529.48C1925.67 1539.7 1927.23 1550 1930.45 1559.72C1933.68 1569.44 1938.73 1578.62 1945.62 1584.39C1948.8 1587.06 1952.28 1588.93 1955.6 1591.24C1958.92 1593.55 1962.18 1596.43 1964.36 1600.48C1966.54 1604.53 1967.41 1609.98 1965.15 1612.59Z" fill="#163047"/>
<path d="M1952.67 1557.77C1948.71 1535.43 1952.52 1511.97 1962.81 1495.42C1963.84 1493.75 1965.21 1492.02 1966.93 1492.36C1969.05 1492.76 1970.3 1495.93 1970.89 1498.66C1973.49 1510.61 1971.76 1522.89 1968.83 1533.95C1965.91 1545.01 1961.81 1555.41 1959.52 1566.81C1959.21 1568.4 1958.58 1570.34 1957.28 1570.14C1956.9 1570.08 1956.53 1569.82 1956.19 1569.54C1953.87 1567.55 1953.73 1563.74 1952.67 1557.77Z" fill="#163047"/>
<path d="M1938.98 1499.92C1934.96 1499.58 1931.02 1496.78 1927.95 1492.97C1924.89 1489.15 1922.62 1484.38 1920.77 1479.47C1919.16 1475.19 1917.81 1470.66 1917.51 1466.06C1917.21 1461.45 1918.07 1456.73 1920.42 1453.65C1922 1451.57 1924.52 1450.34 1926.73 1451.72C1927.98 1452.49 1928.93 1453.96 1929.68 1455.48C1934.07 1464.32 1933.33 1475.93 1938.16 1484.39C1939.83 1487.31 1942.08 1489.69 1943.43 1492.85C1944.78 1496 1944.81 1500.4 1938.98 1499.92Z" fill="#163047"/>
<path d="M2002.95 1615.99C1994.08 1607.17 1988.61 1593.52 1985.55 1579.85C1981.61 1562.24 1981.18 1543.75 1984.31 1526.82C1984.77 1524.32 1985.58 1521.5 1987.52 1521C1988.92 1520.65 1990.46 1521.73 1991.45 1523.26C1992.43 1524.79 1992.96 1526.69 1993.39 1528.57C1998.07 1549.13 1993.23 1571.64 2001.18 1590.81C2002.99 1595.16 2005.45 1599.28 2006.23 1604.02C2007.01 1608.75 2005.19 1614.39 2002.95 1615.99Z" fill="#163047"/>
<path d="M1992.29 1574.57C1990.23 1565.22 1992.47 1555.73 1995.68 1547.68C1997.16 1543.95 1999.1 1540.14 2002.26 1539.09C2002.98 1538.86 2003.77 1538.78 2004.5 1539.17C2005.49 1539.7 2006.18 1540.97 2006.62 1542.24C2007.73 1545.46 2007.66 1549.05 2007.02 1552.25C2006.37 1555.45 2005.2 1558.34 2004.13 1561.29C2001.53 1568.43 1999.51 1576 1998.11 1583.83C1998.02 1584.33 1997.92 1584.87 1997.61 1585.16C1996.94 1585.8 1995.94 1584.87 1995.35 1583.95C1993.47 1581.03 1992.92 1577.39 1992.29 1574.57Z" fill="#163047"/>
<path d="M2033.66 1524.69C2024.98 1520.86 2017.1 1513.43 2010.83 1504.33C2004.56 1495.23 1999.83 1484.5 1996.3 1473.37C1992.54 1461.49 1990.1 1448.13 1993.36 1436.96C1993.73 1435.68 1994.19 1434.41 1995.02 1433.6C1996.89 1431.76 1999.87 1433.07 2001.84 1435.28C2005.47 1439.39 2006.9 1445.75 2008.11 1451.66C2009.48 1458.34 2010.86 1465.02 2012.23 1471.7C2014.27 1481.65 2016.72 1492.43 2023.01 1499.09C2025.6 1501.84 2028.65 1503.64 2031.44 1506C2034.23 1508.37 2036.9 1511.59 2037.79 1515.69C2038.59 1519.36 2037.73 1523.34 2033.66 1524.69Z" fill="#163047"/>
<path d="M2017.27 1498.71C2013.62 1488.09 2014.29 1476.42 2015.05 1465.38C2015.38 1460.48 2015.74 1455.46 2017.41 1451.22C2018.03 1449.62 2019.04 1448.03 2020.47 1448.06C2022.29 1448.09 2023.63 1450.65 2024.38 1452.92C2025.82 1457.25 2026.65 1461.84 2026.81 1466.39C2027.03 1472.49 2026.06 1478.37 2025.1 1484.18C2024.46 1488.04 2023.82 1491.9 2023.18 1495.76C2022.94 1497.19 2022.65 1498.73 2021.76 1499.55C2020.86 1500.37 2019.18 1499.83 2017.27 1498.71Z" fill="#163047"/>
<path d="M2003.33 1485.33C1996.86 1485.22 1990.27 1484.89 1983.93 1482.18C1977.58 1479.47 1971.43 1474.05 1968.23 1466.25C1967.1 1463.5 1966.4 1460.05 1967.64 1457.72C1968.99 1455.16 1971.95 1455.21 1974.44 1455.92C1980.52 1457.63 1986.28 1461.77 1992.36 1463.46C1995.85 1464.43 1999.67 1464.73 2002.51 1467.81C2006.51 1472.13 2006.7 1479.9 2003.33 1485.33Z" fill="#163047"/>
<path d="M2043.26 1676.55C2036.85 1673.49 2031.83 1665.84 2029.29 1657.52C2026.76 1649.2 2026.43 1640.27 2026.96 1631.74C2027.46 1623.65 2028.76 1615.54 2032.13 1609.1C2033.12 1607.22 2034.32 1605.45 2035.97 1604.6C2037.61 1603.76 2039.76 1604.05 2041.14 1605.82C2042.06 1607.01 2042.51 1608.66 2042.76 1610.26C2044.63 1622.05 2037.8 1632.11 2037.41 1643.84C2037.23 1649.46 2038.6 1655.36 2041.23 1660.22C2043.12 1663.72 2045.61 1666.65 2047.54 1670.11C2047.94 1670.82 2048.33 1671.64 2048.25 1672.45C2048.17 1673.26 2047.66 1673.79 2047.18 1674.26C2045.86 1675.54 2044.51 1677.15 2043.26 1676.55Z" fill="#163047"/>
<path d="M2030.59 1640.44C2026.81 1635.65 2023.79 1629.71 2022.32 1623.26C2020.85 1616.82 2021 1609.88 2023.13 1604.26C2023.26 1603.91 2023.41 1603.55 2023.65 1603.33C2024.28 1602.74 2025.24 1603.25 2025.93 1603.92C2028.35 1606.22 2029.69 1610.02 2030.37 1613.72C2031.06 1617.42 2031.22 1621.18 2031.94 1624.88C2032.52 1627.83 2033.46 1630.73 2033.69 1633.72C2033.93 1636.71 2033.27 1639.96 2030.59 1640.44Z" fill="#163047"/>
<path d="M2062.54 1600.65C2068.33 1592.96 2074.24 1585.02 2077.28 1574.79C2079.45 1567.48 2080.32 1558.72 2085.02 1554.03C2086.45 1552.6 2088.65 1551.74 2090.18 1553.41C2090.76 1554.04 2091.14 1554.94 2091.45 1555.83C2094.92 1565.49 2093.52 1576.58 2089.76 1585.04C2085.99 1593.51 2080.14 1599.84 2074.36 1605.97C2072.22 1608.22 2069.83 1610.58 2066.94 1610.34C2064.04 1610.09 2059.7 1604.42 2062.54 1600.65Z" fill="#163047"/>
<path d="M2074.04 1589.74C2072.3 1578.84 2071.74 1567.79 2072.39 1557.02C2072.71 1551.71 2073.36 1546.33 2075.42 1541.97C2075.8 1541.15 2076.45 1540.29 2077.19 1540.65C2077.7 1540.9 2077.99 1541.63 2078.22 1542.29C2081.15 1550.89 2083.02 1560.17 2082.54 1569.14C2082.07 1578.1 2079.05 1586.7 2074.04 1589.74Z" fill="#163047"/>
<path d="M544.086 1436.09C530.094 1406.99 535.367 1371.69 549.414 1342.62C563.461 1313.54 585.355 1289.15 605.809 1264.17C631.84 1232.36 656.121 1198.66 672.801 1161.1C689.48 1123.54 698.277 1081.68 692.391 1041.01C688.738 1015.77 679.594 991.619 675.199 966.49C666.82 918.568 676.598 867.697 702.148 826.299C727.695 784.908 768.781 753.357 815.371 739.357C788.406 762.158 763.742 787.67 741.879 815.4C721.301 841.498 702.773 870.631 697.41 903.428C687.883 961.721 721.176 1018.55 723.699 1077.56C725.559 1121 710.437 1163.84 688.016 1201.1C665.59 1238.36 636.078 1270.77 606.504 1302.65C590.445 1319.96 574.094 1337.49 563.383 1358.53C552.672 1379.57 548.176 1404.98 544.086 1436.09Z" fill="#163047"/>
<path d="M554.027 1466.32C529.121 1443.54 523.828 1406.37 525.254 1372.64C526.676 1338.91 533.195 1304.69 525.82 1271.75C522.387 1256.42 516.039 1241.93 509.73 1227.54C500.316 1206.08 490.902 1184.62 481.488 1163.16C475.367 1149.22 469.066 1134.98 458.707 1123.82C435.676 1098.99 398.789 1094.82 365.883 1086.83C340.293 1080.61 315.586 1071.26 290.961 1061.93C277.871 1056.97 264.465 1051.83 253.992 1042.54C240.25 1030.35 233.172 1012.54 226.258 995.518C198.926 928.299 166.902 862.979 131.324 802.279C204.672 866.818 220.973 982.107 300.812 1038.42C323.156 1054.18 349.141 1064.12 375.594 1071.03C410.387 1080.13 448.719 1085.4 474.57 1110.4C486.977 1122.4 495.273 1137.95 502.867 1153.45C519.02 1186.4 532.949 1220.44 544.535 1255.27C555.18 1287.26 563.91 1321.41 557.086 1354.43C555.051 1364.28 551.656 1373.85 550.391 1383.83C546.895 1411.33 559.738 1437.97 554.027 1466.32Z" fill="#163047"/>
<path d="M707.633 831.678C707.504 803.58 713.988 775.479 726.41 750.279C734.918 783.889 727.535 821.17 707.633 831.678Z" fill="#163047"/>
<path d="M729.438 817.568C750.988 813.131 774.008 816.17 793.66 826.068C789.879 834.748 779.039 837.811 769.566 837.838C753.531 837.881 737.543 832.1 729.438 817.568Z" fill="#163047"/>
<path d="M682.867 935.158C655.07 924.381 636.422 893.721 639.633 864.08C639.895 861.631 640.832 858.639 643.27 858.318C644.094 873.049 658.363 882.639 668.348 893.51C678.5 904.568 685.023 918.9 682.867 935.158Z" fill="#163047"/>
<path d="M682.012 939.068C687.004 929.447 692.066 919.728 699.203 911.568C706.34 903.42 715.871 896.857 726.617 895.439C734.316 894.428 743.547 895.51 748.41 889.447C750.492 886.869 752.379 882.799 755.625 883.498C756.75 885.889 755.086 888.607 753.453 890.678C735.754 913.178 712.176 931.01 682.012 939.068Z" fill="#163047"/>
<path d="M698.652 990.131C695.121 992.318 690.547 992.139 686.609 990.811C682.676 989.479 679.184 987.119 675.57 985.068C665.445 979.318 654.129 975.811 644.246 969.65C634.359 963.49 625.637 953.58 625.438 941.928C635.293 946.881 647.066 946.908 656.871 951.959C661.746 954.459 665.926 958.1 670.051 961.709C678.324 968.928 686.598 976.158 698.652 990.131Z" fill="#163047"/>
<path d="M696.867 1002.88C692.93 994.857 694.176 985.287 696.512 976.67C701.379 958.709 710.84 941.729 724.937 929.58C727.547 927.338 730.418 925.197 733.781 924.471C729.203 938.6 731.207 954.369 725.687 968.158C720.852 980.24 710.156 989.811 696.867 1002.88Z" fill="#163047"/>
<path d="M709.934 1048.59C715.879 1035.39 723.043 1022.74 731.309 1010.86C737.699 1001.67 745.441 992.447 756.18 989.287C754.687 996.721 753.137 1004.14 751.527 1011.55C750.336 1017.02 749.086 1022.57 746.449 1027.52C739.996 1039.62 725.852 1046.27 709.934 1048.59Z" fill="#163047"/>
<path d="M711.863 1050.49C706.582 1039.77 700.891 1028.57 691.004 1021.87C687.051 1019.18 682.59 1017.35 678.504 1014.87C675.059 1012.79 671.891 1010.25 668.359 1008.32C661.262 1004.43 652.855 1003.03 646.348 998.221C650.348 1000.43 652.492 1004.97 653.52 1009.42C654.547 1013.87 654.715 1018.51 656.051 1022.88C657.652 1028.11 660.844 1032.69 663.137 1037.66C664.695 1041.04 665.934 1044.74 668.695 1047.24C670.809 1049.16 673.59 1050.14 676.328 1050.93C686.898 1053.99 698.098 1054.84 711.863 1050.49Z" fill="#163047"/>
<path d="M705.852 1108.05C690.691 1090.84 672.719 1076.13 652.859 1064.66C647.301 1061.45 641.199 1058.4 634.797 1058.9C638.273 1063.15 639.93 1068.55 642.078 1073.61C646.535 1084.08 653.418 1093.52 662.031 1100.97C665.91 1104.32 670.328 1107.35 675.387 1108.19C682.586 1109.37 689.656 1105.95 705.852 1108.05Z" fill="#163047"/>
<path d="M709.066 1114.68C709.949 1097.74 717.254 1081.41 728.355 1068.57C739.457 1055.74 754.199 1046.31 770.09 1040.35C765.395 1043.53 763.113 1049.29 762.215 1054.89C761.316 1060.49 761.535 1066.23 760.512 1071.81C758.211 1084.31 749.777 1095.01 739.629 1102.66C729.48 1110.31 717.629 1115.32 709.066 1114.68Z" fill="#163047"/>
<path d="M641.961 1236.65C631.336 1230.38 623.199 1220.02 619.617 1208.21C617.285 1200.52 616.848 1192.37 617.043 1184.33C617.324 1172.58 618.918 1160.87 621.781 1149.48C621.398 1153.72 621.019 1157.97 620.637 1162.21C620.5 1163.71 620.371 1165.26 620.871 1166.68C621.715 1169.06 624.074 1170.49 626.105 1171.99C632.668 1176.83 636.992 1184.05 641.148 1191.07C643.328 1194.75 645.543 1198.53 646.437 1202.72C648.683 1213.28 642.187 1223.64 641.961 1236.65Z" fill="#163047"/>
<path d="M646.219 1240.34C663.211 1223.69 686.57 1215.58 709.113 1207.97C711.258 1207.25 713.648 1206.53 715.715 1207.45C713.289 1215.33 709.414 1222.77 704.344 1229.28C701.176 1233.35 697.477 1237.11 692.977 1239.63C688.156 1242.33 682.629 1243.5 677.148 1244.21C666.137 1245.63 654.902 1245.31 646.219 1240.34Z" fill="#163047"/>
<path d="M588.02 1302.57C581.695 1299.27 577.727 1292.52 576.203 1285.54C574.684 1278.57 575.297 1271.32 576.137 1264.24C577.348 1254.03 579.18 1243.46 585.223 1235.15C588.367 1230.82 592.566 1227.24 595.082 1222.52C593.02 1230.08 593.168 1238.24 595.504 1245.73C598.434 1255.12 604.68 1263.39 606.426 1273.07C608.203 1282.92 604.789 1293.56 588.02 1302.57Z" fill="#163047"/>
<path d="M603.273 1291C614.344 1291.07 625.406 1291.92 636.355 1293.55C638.562 1293.88 640.793 1294.25 642.832 1295.16C647.09 1297.06 649.973 1301.06 652.648 1304.88C655.984 1309.64 659.488 1315.27 657.914 1320.86C653.199 1318.34 647.473 1319.53 642.168 1320.22C620.996 1322.95 598.766 1315.89 603.273 1291Z" fill="#163047"/>
<path d="M165.164 839.939C151.605 835.018 136.539 839.049 122.195 837.529C113.297 836.58 104.641 833.428 97.2109 828.439C99.7344 839.838 102.598 851.889 110.785 860.221C118.188 867.748 129.562 871.119 139.875 868.85C150.184 866.58 159.086 858.729 165.164 839.939Z" fill="#163047"/>
<path d="M168.723 857.26C160.02 847.838 150.934 837.67 148.758 825.029C147.305 816.619 149.105 808.037 150.504 799.619C151.988 790.689 153.02 781.689 153.602 772.658C157.988 785.42 172.754 792.1 177.992 804.537C179.914 809.088 180.406 814.119 180.445 819.061C180.531 830.037 178.453 841.029 168.723 857.26Z" fill="#163047"/>
<path d="M211.203 930.729C206.828 905.139 206.93 878.787 211.5 853.24C216.051 867.818 231.297 877.607 234.211 892.6C235.66 900.049 233.797 907.721 231.699 915.01C229.312 923.299 226.102 932.178 211.203 930.729Z" fill="#163047"/>
<path d="M218.277 918.107C196.215 918.131 174.187 911.35 155.957 898.928C154.719 911.58 161.777 924.65 173.031 930.549C184.293 936.447 199.055 934.818 218.277 918.107Z" fill="#163047"/>
<path d="M249.02 994.639C247.481 970.338 248.457 945.869 251.926 921.768C267.254 932.537 276.973 950.881 277.281 969.619C277.481 981.498 272.633 994.979 249.02 994.639Z" fill="#163047"/>
<path d="M253.375 1002.75C242.418 994.818 229.875 989.088 216.711 985.998C204.914 983.229 192.461 982.49 181.531 977.248C182.812 981.787 184.094 986.33 185.375 990.869C186.477 994.768 187.637 998.787 190.188 1001.94C192.418 1004.7 195.566 1006.59 198.848 1007.95C211.559 1013.24 225.984 1011.17 253.375 1002.75Z" fill="#163047"/>
<path d="M303.371 1053.15C295.789 1045.05 288.34 1036.33 284.969 1025.76C281.598 1015.19 283.242 1002.3 291.684 995.088C288.516 995.428 288.039 999.947 289.117 1002.95C292.746 1013.07 302.941 1019.25 308.812 1028.27C316.035 1039.35 315.762 1054.83 303.371 1053.15Z" fill="#163047"/>
<path d="M300.441 1045.43C277.125 1042.58 252.641 1053.93 239.758 1073.57C241.813 1077.66 246.844 1079.08 251.309 1080.09C257.703 1081.52 264.52 1082.93 270.684 1080.7C282.27 1076.52 286.25 1061.82 300.441 1045.43Z" fill="#163047"/>
<path d="M356.625 1075.82C342.117 1065.09 330.66 1050.28 323.906 1033.54C321.586 1027.79 319.793 1021.7 319.938 1015.51C320.078 1009.31 322.363 1002.95 327.082 998.928C327.469 1010.62 332.988 1022.05 341.899 1029.63C345.676 1032.84 350.055 1035.42 353.203 1039.24C358.113 1045.21 359.359 1053.37 359.438 1061.1C359.516 1068.83 358.356 1077.1 356.625 1075.82Z" fill="#163047"/>
<path d="M345.984 1074.08C321.246 1082.85 302.289 1106.16 298.738 1132.17C298.535 1133.65 299.148 1135.86 300.59 1135.43C301.043 1132.1 303.891 1129.55 306.961 1128.17C310.027 1126.79 313.414 1126.29 316.602 1125.22C326.223 1121.97 333.438 1113.62 337.645 1104.38C341.852 1095.15 343.457 1084.97 345.984 1074.08Z" fill="#163047"/>
<path d="M447.293 1100.93C437.711 1093.82 427.516 1085.84 424.438 1074.31C423.215 1069.71 423.242 1064.88 423.422 1060.12C423.914 1047.26 425.473 1034.44 428.074 1021.84C427.527 1033.45 432.316 1045.21 440.82 1053.13C443.797 1055.91 447.309 1058.38 448.941 1062.11C450.141 1064.85 450.16 1067.94 450.078 1070.94C449.789 1081.67 448.43 1092.38 447.293 1100.93Z" fill="#163047"/>
<path d="M440.012 1096.7C430.461 1100.44 419.574 1099.99 410.266 1104.31C394.969 1111.4 388.086 1128.98 382.617 1144.93C382.84 1139.53 389.746 1137 395.062 1137.94C400.379 1138.88 405.332 1141.84 410.73 1141.79C419.148 1141.72 425.844 1134.3 428.871 1126.45C431.898 1118.59 432.387 1109.99 440.012 1096.7Z" fill="#163047"/>
<path d="M505.254 1174.99C507.125 1160.82 508.992 1146.65 510.863 1132.49C511.352 1128.79 511.824 1124.94 510.598 1121.43C509.832 1119.24 508.445 1117.3 507.727 1115.1C506.684 1111.92 507.16 1108.28 508.984 1105.48C514.148 1113.68 523.633 1118.36 528.988 1126.44C535.051 1135.58 534.766 1147.8 530.945 1158.08C527.129 1168.37 520.215 1177.16 505.254 1174.99Z" fill="#163047"/>
<path d="M515.168 1174.8C497.414 1179.93 477.512 1170.36 460.223 1176.9C454.852 1178.93 450.109 1182.43 446.195 1186.63C442.844 1190.23 440.078 1194.33 437.383 1198.44C445.418 1195.49 454.422 1195.26 462.598 1197.79C465.816 1198.79 468.969 1200.21 472.332 1200.37C474.836 1200.49 477.312 1199.9 479.75 1199.31C484.008 1198.28 488.266 1197.25 492.523 1196.22C495.133 1195.59 497.801 1194.93 500.027 1193.44C506.859 1188.83 506.727 1178.81 515.168 1174.8Z" fill="#163047"/>
<path d="M548.945 1270.97C548.535 1250.86 564.086 1234.1 569.11 1214.62C572.715 1223.74 574.031 1233.76 572.906 1243.5C572.047 1250.96 569.703 1258.38 565.195 1264.38C560.688 1270.38 553.852 1274.83 548.945 1270.97Z" fill="#163047"/>
<path d="M532.141 1298.76C518.789 1292.87 505.098 1286.9 490.543 1285.91C475.988 1284.92 460.145 1289.89 451.938 1301.95C475.348 1298.15 497.34 1314.24 532.141 1298.76Z" fill="#163047"/>
<path d="M6227.57 518.4C6225.48 476.959 6207.37 439.697 6189.76 404.311C6186.21 397.178 6180.76 389.01 6174.18 391.037C6171.86 391.76 6169.95 393.678 6167.96 395.311C6160.81 401.158 6151.84 403.537 6143.37 401.818C6135.75 400.268 6127.43 392.311 6129.64 383.197C6131.61 375.061 6140.02 373.088 6146.84 371.869C6153.67 370.639 6162.06 366.338 6161.85 357.85C6145.68 356.799 6128.89 355.549 6114.7 345.947C6102.9 337.959 6093.86 324.779 6082.13 316.619C6073.4 310.549 6063.31 307.35 6055.51 299.58C6048.13 292.221 6043.56 281.51 6039.2 271.107C6034.27 259.338 6029.18 246.498 6030.96 233.439C6031.19 231.811 6031.7 229.939 6032.97 229.428C6034.33 228.881 6035.69 230.189 6036.7 231.428C6046.17 242.928 6053.95 256.537 6059.54 271.4C6065.69 264.408 6063.09 251.92 6059.48 242.619C6055.88 233.318 6051.72 222.221 6055.96 213.338C6057.43 210.279 6060.51 207.779 6063.13 209.268C6064.79 210.209 6065.69 212.4 6066.45 214.447C6076.57 241.76 6083.65 270.729 6094.61 297.549C6096.41 301.959 6100.15 307.049 6103.63 304.6C6104.77 303.787 6105.49 302.311 6106.06 300.838C6110.97 288.299 6108.78 273.311 6104.97 260.197C6101.15 247.088 6095.78 234.439 6094.42 220.607C6094.12 217.607 6094.54 213.658 6096.93 212.979C6098.84 212.428 6100.54 214.49 6101.76 216.381C6106.87 224.279 6111.42 232.74 6115.34 241.607C6116.49 234.799 6117.64 227.979 6118.79 221.17C6119.02 219.779 6119.3 218.287 6120.17 217.357C6122.35 215.029 6125.57 218.158 6127.03 221.229C6131.03 229.619 6132.65 239.678 6131.56 249.311C6130.42 259.439 6126.46 268.697 6124.05 278.479C6121.63 288.26 6121.01 299.709 6125.95 307.92C6131.83 317.678 6142.99 319.158 6151.79 324.658C6157.3 328.1 6161.97 333.229 6166.54 338.35C6193.11 368.049 6219.73 401.33 6228.29 444.428C6229.63 422.447 6230.96 400.088 6227.08 378.58C6224.32 363.248 6218.99 348.818 6213.24 334.811C6199.35 300.928 6182.47 268.24 6159.34 243.15C6146.68 229.42 6132.18 217.998 6121.46 201.939C6112.39 188.369 6106.45 172.107 6101.02 155.857C6087.31 114.881 6075.99 71.0605 6079.44 26.9395C6079.71 23.4785 6080.2 19.709 6082.31 17.3887C6085.19 14.2207 6089.99 15.3379 6092.8 18.5996C6095.61 21.8574 6096.88 26.6309 6097.86 31.2285C6103.77 58.8691 6103.32 88.209 6110.07 115.549C6117.86 147.139 6134.77 174.107 6153.25 198.018C6171.74 221.92 6192.16 243.619 6209.21 269.088C6226.27 294.561 6240.07 324.787 6242.24 357.697C6243.76 380.779 6239.68 405.287 6246.35 425.729L6259.41 384.85C6262.45 375.318 6265.55 365.447 6265.25 355.209C6264.72 336.588 6253.42 321.588 6244.17 306.838C6235.39 292.83 6227.86 277.279 6224.33 260.119C6221.41 245.959 6221.3 231.178 6221.21 216.568C6220.87 162.779 6220.82 107.189 6238.1 57.7988C6239.43 54.0176 6241.12 49.959 6244.23 48.4277C6249.05 46.0605 6254.46 51.6191 6255.56 57.8691C6256.65 64.1309 6254.81 70.5176 6253.13 76.5801C6240.54 121.99 6236.02 170.768 6239.97 218.498C6241.51 237.107 6244.46 255.998 6252.26 272.037C6260.67 289.318 6274.24 302.311 6281.77 321.389C6283.57 289.248 6299.64 261.221 6316.53 236.631C6333.41 212.029 6352.13 188.068 6361.16 157.838C6373.56 116.33 6365.88 68.7988 6378.45 27.3691C6382.13 15.248 6388.71 2.76758 6399.02 0.228516C6400.22 -0.0605459 6401.54 -0.189453 6402.61 0.548829C6403.66 1.2793 6404.26 2.69727 6404.63 4.10742C6406.41 10.9707 6403.98 18.2598 6402.07 25.0605C6395.77 47.4902 6394.84 71.7207 6395.97 95.4199C6396.68 110.311 6398.17 125.357 6396.06 140.037C6394.05 154.08 6388.81 167.139 6382.53 179.107C6358.01 225.869 6316.88 259.459 6301.4 311.76C6297.51 324.92 6295.42 338.779 6291.77 352.037C6288.64 363.408 6284.39 374.24 6280.15 385.037C6272.86 403.639 6265.56 422.229 6256.22 442.928C6273.12 424.049 6290.15 405.037 6309.68 390.498C6320.67 382.318 6332.41 375.58 6342.64 366.029C6352.87 356.479 6361.72 343.428 6363.93 327.85C6365.33 318.068 6364.02 308.037 6363.91 298.107C6363.65 274.529 6370.16 251.678 6377.58 229.947C6382.77 214.76 6389.49 198.529 6401.85 192.26C6406.39 212.037 6402.48 233.229 6397.15 252.709C6391.82 272.197 6385.02 291.428 6383.66 311.928C6382.54 328.678 6385.03 346.381 6379.52 361.748C6376.71 369.568 6372.04 376.131 6367.13 382.178C6359.43 391.678 6350.98 400.279 6341.94 407.799C6314.74 430.459 6281.01 444.881 6263.28 478.928C6257.74 489.561 6254.13 501.58 6251.77 513.869C6251.16 517.029 6250.58 520.357 6248.86 522.838C6246.08 526.857 6240.95 527.369 6236.99 525.311C6233.04 523.248 6230.03 519.178 6227.57 518.4Z" fill="#163047"/>
<path d="M6091.69 108.607C6084.83 111.639 6077.1 108.811 6070.84 104.19C6054.65 92.2403 6045.55 69.4473 6041.78 46.67C6040.07 36.3575 6039.77 24.0801 6046.13 17.0684C6046.72 16.42 6047.43 15.8106 6048.21 15.9004C6048.92 15.9708 6049.49 16.5997 6049.98 17.2286C6054.89 23.5176 6056.82 32.3809 6058.72 40.7872C6062.53 57.5801 6067.71 75.4278 6079.49 85.0879C6082.94 87.9278 6086.87 89.9395 6089.96 93.3575C6093.05 96.7676 6095.2 102.248 6091.69 108.607Z" fill="#163047"/>
<path d="M6120.76 167.33C6128.37 155.971 6132.7 141.787 6135.62 127.498C6138.53 113.197 6140.15 98.5488 6143.08 84.2598C6143.83 80.5801 6145.14 76.3301 6148.13 75.4082C6149.77 74.9004 6151.5 75.5879 6152.97 76.6309C6160.13 81.7285 6161.69 93.6582 6160.91 103.799C6159.88 117.08 6156.22 129.811 6152.31 142.24C6149.57 150.947 6146.62 159.76 6141.73 166.889C6139.15 170.639 6135.88 173.979 6131.96 174.869C6128.04 175.768 6123.46 173.518 6120.76 167.33Z" fill="#163047"/>
<path d="M6139.95 142.689C6134.65 142.068 6129.91 138.018 6126.66 132.818C6123.42 127.619 6121.5 121.357 6120.02 115.061C6117.74 105.439 6116.36 95.2285 6117.97 85.4082C6118.45 82.4981 6119.49 79.2676 6121.78 78.3692C6124.62 77.2481 6127.36 80.4278 6128.91 83.5684C6137.11 100.26 6133.9 123.838 6139.95 142.689Z" fill="#163047"/>
<path d="M6237.54 280.99C6228.95 280.561 6220.8 275.76 6214 269.26C6207.21 262.76 6201.61 254.588 6196.13 246.428C6191.43 239.42 6186.77 232.369 6182.16 225.268C6177.38 217.9 6172.62 210.439 6168.98 202.131C6160.67 183.178 6158.71 160.158 6163.64 139.49C6164.33 136.588 6165.56 133.287 6167.97 132.768C6169.17 132.51 6170.39 133.037 6171.43 133.818C6174.44 136.068 6176.18 140.268 6176.86 144.518C6177.54 148.768 6177.31 153.139 6177.23 157.471C6177.11 164.607 6177.43 171.76 6178.17 178.838C6178.73 184.088 6179.97 190.068 6183.85 192.33C6179.56 179.471 6179.21 164.678 6182.9 151.537C6183.78 148.408 6184.91 145.299 6186.81 142.939C6188.7 140.588 6191.48 139.107 6194.1 139.799C6197.09 140.588 6199.25 144.01 6200.08 147.631C6200.91 151.26 6200.66 155.107 6200.42 158.857C6199.55 172.947 6199.05 187.229 6201.13 201.119C6203.22 215.01 6208.12 228.65 6216.62 238.131C6220.55 242.518 6225.13 245.908 6229.36 249.85C6233.59 253.787 6237.58 258.471 6239.66 264.479C6241.75 270.479 6241.56 278.029 6237.54 280.99Z" fill="#163047"/>
<path d="M6234.13 204.037C6234.38 172.947 6246.3 142.287 6265.81 122.56C6267.77 120.568 6270.23 118.58 6272.66 119.459C6275.65 120.537 6276.61 125.119 6276.74 128.939C6277.31 145.689 6271.46 161.799 6264.19 175.971C6256.92 190.139 6248.12 203.131 6241.7 217.908C6240.81 219.971 6239.36 222.428 6237.53 221.838C6236.98 221.67 6236.51 221.228 6236.1 220.76C6233.23 217.498 6234.07 212.33 6234.13 204.037Z" fill="#163047"/>
<path d="M6229.76 122.678C6223.98 121.229 6218.97 116.479 6215.53 110.58C6212.08 104.67 6210.06 97.6777 6208.68 90.6074C6207.48 84.4277 6206.73 77.9902 6207.54 71.7207C6208.35 65.4395 6210.89 59.2988 6215.15 55.7207C6218.02 53.3301 6222.04 52.2871 6224.9 54.6973C6226.51 56.0488 6227.5 58.2598 6228.19 60.498C6232.21 73.5098 6227.99 88.959 6232.77 101.568C6234.41 105.908 6237.06 109.678 6238.18 114.268C6239.3 118.857 6238.15 124.787 6229.76 122.678Z" fill="#163047"/>
<path d="M6291.88 294.99C6281.3 280.9 6276.99 261.15 6276.21 241.971C6275.22 217.26 6279.58 192.248 6288.73 170.221C6290.09 166.971 6292.04 163.369 6295 163.189C6297.14 163.061 6299.11 164.9 6300.13 167.197C6301.16 169.51 6301.42 172.209 6301.53 174.838C6302.81 203.709 6289.65 232.818 6296.1 260.619C6297.57 266.947 6300.04 273.107 6299.9 279.678C6299.77 286.248 6295.58 293.4 6291.88 294.99Z" fill="#163047"/>
<path d="M6287.5 236.537C6287.01 223.428 6292.85 211.197 6299.71 201.15C6302.88 196.498 6306.75 191.85 6311.65 191.229C6312.77 191.088 6313.95 191.19 6314.91 191.889C6316.21 192.85 6316.87 194.729 6317.17 196.561C6317.92 201.17 6316.85 205.99 6315.05 210.139C6313.24 214.287 6310.74 217.889 6308.38 221.588C6302.65 230.568 6297.65 240.248 6293.49 250.459C6293.23 251.107 6292.93 251.811 6292.4 252.131C6291.25 252.818 6290.04 251.318 6289.42 249.94C6287.47 245.537 6287.64 240.49 6287.5 236.537Z" fill="#163047"/>
<path d="M6361.43 179.639C6349.79 172.33 6340.29 160.357 6333.58 146.537C6326.88 132.709 6322.87 117.08 6320.72 101.197C6318.43 84.2675 6318.48 65.6698 6326.26 51.4198C6327.14 49.7987 6328.17 48.1972 6329.59 47.3183C6332.83 45.3105 6336.83 47.7987 6339.1 51.2792C6343.31 57.7206 6343.67 66.6386 6343.85 74.9003C6344.04 84.2401 6344.25 93.58 6344.45 102.92C6344.75 116.838 6345.41 131.978 6352.8 142.51C6355.84 146.857 6359.81 150.037 6363.25 153.928C6366.68 157.81 6369.71 162.818 6369.91 168.549C6370.09 173.697 6367.75 178.85 6361.43 179.639Z" fill="#163047"/>
<path d="M6344.52 140.568C6342.04 125.35 6346.19 109.799 6350.27 95.1192C6352.09 88.5997 6353.97 81.92 6357.55 76.6309C6358.9 74.6309 6360.8 72.7286 6362.88 73.1309C6365.54 73.6309 6366.79 77.4083 6367.29 80.6583C6368.22 86.8379 6368.19 93.2403 6367.19 99.4083C6365.86 107.678 6362.86 115.369 6359.88 122.947C6357.9 127.99 6355.92 133.029 6353.95 138.061C6353.21 139.928 6352.37 141.939 6350.84 142.818C6349.31 143.697 6347 142.549 6344.52 140.568Z" fill="#163047"/>
<path d="M6327.76 119.068C6318.33 117.318 6308.79 115.221 6300.25 109.99C6291.71 104.76 6284.19 95.9278 6281.61 84.6192C6280.71 80.6387 6280.62 75.8106 6283.05 72.9707C6285.73 69.8692 6290.04 70.6778 6293.49 72.2481C6301.91 76.0684 6309.2 83.0801 6317.64 86.8809C6322.48 89.0606 6327.97 90.4082 6331.3 95.2598C6335.98 102.08 6334.15 112.588 6327.76 119.068Z" fill="#163047"/>
<path d="M6334.41 386.607C6325.87 380.9 6320.6 369.338 6319.14 357.498C6317.68 345.658 6319.63 333.537 6322.7 322.178C6325.62 311.42 6329.71 300.811 6336.38 292.978C6338.33 290.689 6340.58 288.607 6343.2 287.881C6345.83 287.15 6348.91 288.068 6350.43 290.811C6351.46 292.631 6351.66 294.971 6351.6 297.178C6351.15 313.549 6338.44 325.381 6334.71 341.088C6332.92 348.619 6333.33 356.92 6335.86 364.119C6337.68 369.299 6340.52 373.857 6342.41 378.998C6342.8 380.061 6343.15 381.26 6342.81 382.338C6342.48 383.4 6341.58 383.998 6340.76 384.51C6338.49 385.9 6336.08 387.728 6334.41 386.607Z" fill="#163047"/>
<path d="M6325.66 334.818C6321.43 327.408 6318.62 318.658 6318.21 309.619C6317.8 300.568 6319.91 291.248 6324.54 284.221C6324.83 283.779 6325.14 283.338 6325.55 283.088C6326.63 282.447 6327.89 283.389 6328.73 284.447C6331.63 288.15 6332.56 293.607 6332.56 298.76C6332.57 303.908 6331.78 309.029 6331.84 314.178C6331.89 318.311 6332.48 322.447 6332.01 326.537C6331.54 330.619 6329.7 334.838 6325.66 334.818Z" fill="#163047"/>
<path d="M6383.11 289.178C6393.65 280.26 6404.44 271.037 6411.64 258.018C6416.79 248.697 6420.43 237.119 6428.56 231.971C6431.04 230.4 6434.49 229.787 6436.28 232.428C6436.96 233.428 6437.26 234.729 6437.48 235.998C6439.93 249.881 6434.9 264.471 6427.11 274.928C6419.32 285.4 6409.05 292.471 6398.94 299.279C6395.21 301.787 6391.07 304.369 6386.91 303.318C6382.75 302.268 6377.94 293.549 6383.11 289.178Z" fill="#163047"/>
<path d="M6402.87 277.338C6403.27 262.229 6405.44 247.197 6409.3 232.85C6411.21 225.779 6413.61 218.697 6417.8 213.33C6418.58 212.33 6419.76 211.33 6420.75 211.998C6421.43 212.471 6421.65 213.518 6421.8 214.459C6423.76 226.779 6423.98 239.76 6420.86 251.709C6417.75 263.658 6411.02 274.498 6402.87 277.338Z" fill="#163047"/>
<path d="M3165.59 2099.36C3163.93 2072.67 3149.56 2048.67 3135.59 2025.87C3132.78 2021.28 3128.45 2016.02 3123.23 2017.33C3121.39 2017.79 3119.87 2019.03 3118.29 2020.07C3112.62 2023.85 3105.5 2025.38 3098.78 2024.27C3092.74 2023.27 3086.13 2018.15 3087.89 2012.28C3089.46 2007.04 3096.12 2005.76 3101.54 2004.97C3106.96 2004.19 3113.62 2001.42 3113.44 1995.95C3100.62 1995.28 3087.29 1994.47 3076.04 1988.28C3066.67 1983.14 3059.5 1974.65 3050.2 1969.39C3043.27 1965.48 3035.26 1963.42 3029.08 1958.42C3023.22 1953.68 3019.59 1946.78 3016.14 1940.08C3012.22 1932.5 3008.18 1924.23 3009.6 1915.82C3009.78 1914.77 3010.18 1913.56 3011.19 1913.24C3012.27 1912.88 3013.34 1913.73 3014.15 1914.53C3021.67 1921.93 3027.84 1930.7 3032.27 1940.27C3037.15 1935.76 3035.08 1927.72 3032.23 1921.73C3029.37 1915.74 3026.07 1908.6 3029.43 1902.87C3030.6 1900.9 3033.04 1899.29 3035.12 1900.25C3036.44 1900.85 3037.15 1902.27 3037.75 1903.59C3045.79 1921.18 3051.4 1939.84 3060.1 1957.11C3061.53 1959.95 3064.49 1963.23 3067.25 1961.65C3068.16 1961.13 3068.73 1960.18 3069.18 1959.23C3073.07 1951.15 3071.34 1941.5 3068.31 1933.05C3065.29 1924.61 3061.03 1916.46 3059.95 1907.56C3059.71 1905.63 3060.04 1903.08 3061.94 1902.64C3063.45 1902.29 3064.8 1903.61 3065.77 1904.83C3069.82 1909.92 3073.43 1915.37 3076.55 1921.08C3077.46 1916.69 3078.37 1912.3 3079.28 1907.92C3079.46 1907.02 3079.69 1906.06 3080.37 1905.46C3082.1 1903.96 3084.66 1905.97 3085.82 1907.96C3088.99 1913.36 3090.28 1919.84 3089.42 1926.04C3088.51 1932.56 3085.37 1938.53 3083.45 1944.83C3081.54 1951.13 3081.04 1958.51 3084.96 1963.79C3089.63 1970.08 3098.48 1971.03 3105.46 1974.57C3109.83 1976.79 3113.54 1980.1 3117.17 1983.39C3138.25 2002.52 3159.37 2023.95 3166.16 2051.71C3167.23 2037.56 3168.28 2023.16 3165.2 2009.3C3163.01 1999.43 3158.78 1990.14 3154.22 1981.11C3143.2 1959.29 3129.81 1938.23 3111.46 1922.08C3101.41 1913.23 3089.9 1905.87 3081.4 1895.53C3074.21 1886.79 3069.49 1876.31 3065.18 1865.85C3054.3 1839.45 3045.32 1811.24 3048.06 1782.82C3048.27 1780.59 3048.66 1778.16 3050.33 1776.67C3052.62 1774.62 3056.43 1775.34 3058.66 1777.45C3060.89 1779.55 3061.9 1782.62 3062.68 1785.58C3067.36 1803.38 3067.01 1822.28 3072.36 1839.89C3078.54 1860.24 3091.96 1877.6 3106.63 1893C3121.29 1908.4 3137.49 1922.37 3151.02 1938.78C3164.56 1955.19 3175.51 1974.66 3177.23 1995.85C3178.44 2010.72 3175.2 2026.5 3180.49 2039.67C3183.95 2030.89 3187.4 2022.12 3190.85 2013.34C3193.27 2007.2 3195.72 2000.85 3195.49 1994.25C3195.06 1982.25 3186.1 1972.59 3178.76 1963.09C3171.79 1954.07 3165.82 1944.05 3163.02 1933C3160.7 1923.88 3160.62 1914.36 3160.54 1904.95C3160.28 1870.31 3160.23 1834.5 3173.95 1802.69C3175 1800.26 3176.34 1797.64 3178.8 1796.66C3182.63 1795.13 3186.93 1798.71 3187.8 1802.74C3188.66 1806.77 3187.2 1810.89 3185.87 1814.79C3175.88 1844.04 3172.29 1875.45 3175.43 1906.2C3176.65 1918.18 3178.99 1930.35 3185.18 1940.68C3191.85 1951.81 3202.62 1960.18 3208.59 1972.46C3210.02 1951.77 3222.78 1933.71 3236.17 1917.87C3249.57 1902.03 3264.42 1886.6 3271.58 1867.13C3281.42 1840.39 3275.32 1809.78 3285.3 1783.09C3288.22 1775.28 3293.44 1767.25 3301.62 1765.62C3302.57 1765.42 3303.62 1765.34 3304.47 1765.82C3305.3 1766.29 3305.78 1767.2 3306.07 1768.11C3307.49 1772.53 3305.56 1777.23 3304.04 1781.61C3299.04 1796.06 3298.3 1811.66 3299.2 1826.92C3299.76 1836.51 3300.95 1846.21 3299.28 1855.67C3297.68 1864.7 3293.52 1873.12 3288.54 1880.83C3269.09 1910.94 3236.45 1932.58 3224.17 1966.26C3221.08 1974.74 3219.42 1983.67 3216.53 1992.21C3214.04 1999.53 3210.67 2006.51 3207.31 2013.46C3201.52 2025.44 3195.73 2037.42 3188.32 2050.74C3201.73 2038.58 3215.25 2026.34 3230.74 2016.98C3239.45 2011.71 3248.77 2007.37 3256.89 2001.22C3265 1995.07 3272.03 1986.66 3273.78 1976.63C3274.89 1970.33 3273.85 1963.87 3273.76 1957.47C3273.56 1942.29 3278.73 1927.57 3284.61 1913.57C3288.73 1903.79 3294.06 1893.34 3303.87 1889.29C3307.47 1902.04 3304.37 1915.69 3300.14 1928.23C3295.91 1940.78 3290.51 1953.17 3289.43 1966.37C3288.55 1977.16 3290.52 1988.56 3286.15 1998.46C3283.92 2003.5 3280.21 2007.72 3276.32 2011.62C3270.21 2017.74 3263.51 2023.28 3256.34 2028.12C3234.75 2042.72 3207.99 2052.01 3193.92 2073.94C3189.53 2080.78 3186.66 2088.52 3184.79 2096.44C3184.31 2098.47 3183.84 2100.62 3182.48 2102.21C3180.27 2104.81 3176.21 2105.13 3173.07 2103.81C3169.93 2102.48 3167.54 2099.86 3165.59 2099.36Z" fill="#163047"/>
<path d="M3057.78 1835.42C3052.33 1837.37 3046.2 1835.55 3041.24 1832.57C3028.39 1824.87 3021.17 1810.2 3018.18 1795.52C3016.82 1788.89 3016.59 1780.97 3021.63 1776.46C3022.1 1776.04 3022.66 1775.65 3023.28 1775.7C3023.84 1775.75 3024.29 1776.16 3024.68 1776.57C3028.58 1780.62 3030.11 1786.32 3031.62 1791.73C3034.64 1802.55 3038.75 1814.05 3048.1 1820.27C3050.84 1822.1 3053.95 1823.4 3056.4 1825.6C3058.86 1827.79 3060.56 1831.32 3057.78 1835.42Z" fill="#163047"/>
<path d="M3080.84 1873.24C3086.88 1865.92 3090.32 1856.79 3092.63 1847.58C3094.94 1838.38 3096.23 1828.94 3098.55 1819.74C3099.15 1817.36 3100.19 1814.63 3102.56 1814.03C3103.86 1813.71 3105.24 1814.15 3106.4 1814.82C3112.08 1818.11 3113.32 1825.79 3112.7 1832.32C3111.88 1840.87 3108.98 1849.07 3105.88 1857.08C3103.7 1862.69 3101.36 1868.36 3097.48 1872.96C3095.44 1875.37 3092.84 1877.52 3089.73 1878.1C3086.62 1878.67 3082.99 1877.23 3080.84 1873.24Z" fill="#163047"/>
<path d="M3096.07 1857.37C3091.87 1856.97 3088.1 1854.36 3085.53 1851.01C3082.95 1847.67 3081.44 1843.63 3080.26 1839.57C3078.45 1833.38 3077.35 1826.8 3078.63 1820.47C3079.01 1818.61 3079.83 1816.52 3081.65 1815.94C3083.91 1815.22 3086.08 1817.27 3087.31 1819.29C3093.82 1830.04 3091.27 1845.23 3096.07 1857.37Z" fill="#163047"/>
<path d="M3173.5 1946.45C3166.68 1946.17 3160.22 1943.08 3154.83 1938.89C3149.44 1934.7 3144.99 1929.44 3140.64 1924.18C3136.91 1919.67 3133.22 1915.13 3129.56 1910.56C3125.77 1905.81 3121.99 1901 3119.1 1895.65C3112.51 1883.45 3110.95 1868.62 3114.87 1855.31C3115.41 1853.44 3116.39 1851.32 3118.3 1850.98C3119.25 1850.81 3120.23 1851.15 3121.05 1851.65C3123.43 1853.1 3124.81 1855.81 3125.35 1858.55C3125.89 1861.28 3125.71 1864.1 3125.65 1866.89C3125.56 1871.49 3125.8 1876.1 3126.4 1880.65C3126.84 1884.03 3127.82 1887.88 3130.9 1889.34C3127.5 1881.06 3127.22 1871.53 3130.15 1863.07C3130.84 1861.05 3131.75 1859.05 3133.25 1857.53C3134.75 1856.02 3136.95 1855.06 3139.04 1855.51C3141.41 1856.02 3143.12 1858.22 3143.78 1860.55C3144.44 1862.89 3144.24 1865.37 3144.05 1867.78C3143.36 1876.86 3142.96 1886.05 3144.62 1895.01C3146.27 1903.95 3150.16 1912.73 3156.9 1918.84C3160.02 1921.67 3163.65 1923.85 3167.01 1926.39C3170.36 1928.92 3173.53 1931.94 3175.18 1935.81C3176.84 1939.67 3176.69 1944.54 3173.5 1946.45Z" fill="#163047"/>
<path d="M3170.8 1896.88C3171 1876.86 3180.45 1857.11 3195.93 1844.4C3197.48 1843.13 3199.43 1841.84 3201.37 1842.41C3203.73 1843.1 3204.5 1846.05 3204.61 1848.52C3205.05 1859.3 3200.41 1869.68 3194.64 1878.81C3188.88 1887.94 3181.89 1896.3 3176.8 1905.82C3176.09 1907.15 3174.95 1908.73 3173.49 1908.35C3173.05 1908.24 3172.69 1907.96 3172.36 1907.65C3170.08 1905.55 3170.74 1902.22 3170.8 1896.88Z" fill="#163047"/>
<path d="M3167.33 1844.48C3162.74 1843.55 3158.77 1840.49 3156.04 1836.68C3153.3 1832.88 3151.7 1828.38 3150.6 1823.82C3149.65 1819.84 3149.06 1815.7 3149.7 1811.66C3150.34 1807.62 3152.35 1803.66 3155.74 1801.36C3158.01 1799.81 3161.2 1799.15 3163.47 1800.7C3164.75 1801.57 3165.53 1802.99 3166.08 1804.43C3169.27 1812.81 3165.92 1822.76 3169.71 1830.88C3171.02 1833.68 3173.12 1836.11 3174.01 1839.06C3174.9 1842.02 3173.99 1845.84 3167.33 1844.48Z" fill="#163047"/>
<path d="M3216.61 1955.47C3208.22 1946.39 3204.8 1933.67 3204.19 1921.32C3203.39 1905.4 3206.86 1889.29 3214.12 1875.1C3215.19 1873.01 3216.74 1870.69 3219.09 1870.57C3220.79 1870.49 3222.35 1871.67 3223.16 1873.16C3223.98 1874.64 3224.18 1876.38 3224.27 1878.07C3225.29 1896.67 3214.85 1915.42 3219.96 1933.33C3221.13 1937.4 3223.09 1941.37 3222.98 1945.6C3222.87 1949.83 3219.55 1954.44 3216.61 1955.47Z" fill="#163047"/>
<path d="M3213.14 1917.81C3212.75 1909.37 3217.39 1901.49 3222.83 1895.02C3225.34 1892.03 3228.41 1889.03 3232.3 1888.63C3233.19 1888.54 3234.12 1888.6 3234.89 1889.06C3235.92 1889.67 3236.45 1890.88 3236.68 1892.06C3237.28 1895.03 3236.43 1898.14 3235 1900.81C3233.56 1903.48 3231.58 1905.81 3229.71 1908.19C3225.16 1913.97 3221.2 1920.21 3217.89 1926.78C3217.68 1927.2 3217.45 1927.65 3217.03 1927.85C3216.11 1928.3 3215.15 1927.34 3214.66 1926.44C3213.12 1923.61 3213.25 1920.36 3213.14 1917.81Z" fill="#163047"/>
<path d="M3271.8 1881.17C3262.56 1876.46 3255.02 1868.75 3249.7 1859.85C3244.38 1850.94 3241.2 1840.88 3239.5 1830.65C3237.68 1819.74 3237.72 1807.76 3243.89 1798.59C3244.59 1797.54 3245.41 1796.51 3246.54 1795.94C3249.1 1794.65 3252.28 1796.25 3254.08 1798.49C3257.42 1802.64 3257.7 1808.39 3257.84 1813.71C3258 1819.72 3258.16 1825.74 3258.32 1831.76C3258.56 1840.72 3259.08 1850.47 3264.95 1857.26C3267.36 1860.05 3270.51 1862.11 3273.24 1864.61C3275.96 1867.11 3278.37 1870.33 3278.53 1874.03C3278.67 1877.34 3276.81 1880.66 3271.8 1881.17Z" fill="#163047"/>
<path d="M3258.38 1856C3256.42 1846.2 3259.7 1836.19 3262.94 1826.73C3264.38 1822.53 3265.88 1818.23 3268.72 1814.82C3269.79 1813.54 3271.29 1812.31 3272.95 1812.57C3275.06 1812.89 3276.05 1815.32 3276.44 1817.42C3277.18 1821.4 3277.16 1825.52 3276.37 1829.5C3275.31 1834.82 3272.93 1839.77 3270.56 1844.66L3265.86 1854.39C3265.28 1855.59 3264.61 1856.89 3263.39 1857.45C3262.18 1858.02 3260.35 1857.28 3258.38 1856Z" fill="#163047"/>
<path d="M3245.08 1842.16C3237.6 1841.03 3230.03 1839.67 3223.25 1836.3C3216.48 1832.94 3210.51 1827.25 3208.47 1819.97C3207.75 1817.4 3207.68 1814.29 3209.61 1812.47C3211.73 1810.47 3215.15 1810.99 3217.89 1812C3224.58 1814.46 3230.36 1818.97 3237.05 1821.42C3240.89 1822.83 3245.25 1823.7 3247.89 1826.82C3251.6 1831.21 3250.15 1837.98 3245.08 1842.16Z" fill="#163047"/>
<path d="M3250.36 2014.47C3243.58 2010.79 3239.4 2003.35 3238.24 1995.72C3237.09 1988.1 3238.63 1980.29 3241.07 1972.98C3243.38 1966.04 3246.63 1959.21 3251.92 1954.17C3253.47 1952.69 3255.25 1951.35 3257.34 1950.88C3259.42 1950.41 3261.86 1951.01 3263.07 1952.77C3263.88 1953.94 3264.05 1955.45 3264 1956.88C3263.64 1967.41 3253.56 1975.04 3250.59 1985.16C3249.18 1990.01 3249.5 1995.35 3251.51 1999.99C3252.95 2003.33 3255.2 2006.26 3256.71 2009.58C3257.01 2010.25 3257.29 2011.03 3257.02 2011.72C3256.76 2012.41 3256.05 2012.79 3255.39 2013.12C3253.59 2014.02 3251.68 2015.19 3250.36 2014.47Z" fill="#163047"/>
<path d="M3243.42 1981.12C3240.06 1976.35 3237.83 1970.71 3237.51 1964.88C3237.18 1959.06 3238.85 1953.06 3242.53 1948.53C3242.76 1948.24 3243 1947.96 3243.33 1947.8C3244.19 1947.39 3245.19 1947.99 3245.85 1948.67C3248.16 1951.06 3248.89 1954.57 3248.89 1957.89C3248.9 1961.21 3248.28 1964.51 3248.32 1967.83C3248.36 1970.48 3248.83 1973.15 3248.45 1975.78C3248.08 1978.41 3246.62 1981.13 3243.42 1981.12Z" fill="#163047"/>
<path d="M3289 1951.72C3297.36 1945.97 3305.92 1940.03 3311.64 1931.65C3315.72 1925.65 3318.61 1918.19 3325.06 1914.87C3327.03 1913.87 3329.76 1913.47 3331.18 1915.17C3331.72 1915.81 3331.96 1916.65 3332.14 1917.47C3334.08 1926.41 3330.09 1935.81 3323.91 1942.55C3317.73 1949.28 3309.58 1953.84 3301.56 1958.23C3298.6 1959.84 3295.32 1961.51 3292.02 1960.83C3288.72 1960.15 3284.9 1954.54 3289 1951.72Z" fill="#163047"/>
<path d="M3304.68 1944.1C3304.99 1934.37 3306.72 1924.68 3309.78 1915.44C3311.29 1910.89 3313.2 1906.33 3316.52 1902.87C3317.14 1902.22 3318.08 1901.58 3318.86 1902.01C3319.4 1902.31 3319.58 1902.99 3319.7 1903.6C3321.25 1911.53 3321.43 1919.89 3318.95 1927.59C3316.48 1935.28 3311.14 1942.26 3304.68 1944.1Z" fill="#163047"/>
<path d="M5539.59 436.619C5537.84 438.498 5535.47 440.08 5530.19 437.529C5526.44 435.721 5524.43 431.529 5523.53 427.459C5522.91 424.697 5522.68 421.76 5523.63 419.088C5525.03 415.139 5529.09 412.338 5533.28 412.287C5537.47 412.248 5541.53 414.9 5543.31 418.689C5544.47 421.15 5544.71 423.971 5544.33 426.658C5543.81 430.357 5542.13 433.881 5539.59 436.619ZM5505.19 318.189C5502.19 313.619 5501.53 307.58 5503.52 302.49C5505.11 298.428 5508.44 294.959 5512.63 293.779C5516.82 292.588 5521.77 293.978 5524.3 297.518C5525.34 298.959 5525.95 300.67 5526.47 302.357C5527.17 304.619 5527.75 306.928 5527.88 309.287C5528.14 313.697 5526.84 318.068 5524.97 322.068C5523.97 324.221 5522.36 326.318 5518.89 326.1C5513.43 325.76 5508.19 322.76 5505.19 318.189ZM5426.39 379.869C5422.11 382.447 5416.76 382.689 5411.87 381.697C5408.69 381.061 5405.25 379.588 5404.12 376.549C5402.89 373.248 5405.04 369.498 5405.87 370.811C5409.67 365.221 5416.29 361.658 5423.05 361.561C5425.93 361.518 5429.06 362.209 5430.86 364.459C5431.49 365.26 5431.93 366.209 5432.19 367.189C5433.49 372.01 5430.66 377.299 5426.39 379.869ZM5554 427.389C5554.49 425.178 5554.83 422.881 5554.38 420.67C5553.87 418.228 5552.43 416.068 5550.7 414.279C5545.11 408.478 5536.58 406.228 5528.54 406.709C5520.5 407.178 5512.82 410.088 5505.45 413.338C5498.92 416.228 5492.24 419.639 5488.13 425.478C5488.11 416.678 5489.97 407.779 5494.21 400.197C5497.22 394.799 5501.35 390.131 5505.45 385.51C5511.15 379.08 5516.85 372.658 5522.54 366.228C5529.81 358.029 5537.13 349.76 5542.53 340.228C5547.94 330.709 5551.35 319.697 5550.13 308.818C5548.91 297.928 5542.47 287.299 5532.44 282.9C5524.32 279.338 5514.76 280.158 5506.57 283.568C5498.39 286.971 5491.41 292.76 5485.14 299.029C5464.33 319.9 5450.13 347.279 5445.07 376.318C5440.75 366.971 5435.29 357.779 5426.98 351.697C5418.67 345.607 5406.97 343.279 5397.93 348.209C5395.69 349.428 5393.64 351.107 5392.37 353.318C5388.84 359.478 5392.36 367.131 5395.77 373.357C5415.25 408.9 5432.34 447.088 5434.21 487.588C5434.32 490.018 5439.44 495.178 5445.18 497.58C5450.92 499.978 5457.98 499.209 5462.81 495.287C5466.21 492.537 5468.32 488.568 5470.81 484.978C5483.31 466.9 5505.35 458.178 5526.59 452.518C5532.74 450.881 5539.15 449.311 5544.11 445.311C5549.53 440.947 5552.52 434.189 5554 427.389Z" fill="#163047"/>
<path d="M5309.93 452.15C5310.83 453.197 5312.06 454.1 5314.96 452.857C5317.03 451.971 5318.2 449.76 5318.78 447.588C5319.18 446.119 5319.37 444.549 5318.92 443.088C5318.27 440.928 5316.15 439.33 5313.89 439.209C5311.64 439.088 5309.39 440.42 5308.35 442.408C5307.67 443.709 5307.47 445.229 5307.62 446.678C5307.81 448.678 5308.63 450.619 5309.93 452.15ZM5331.19 389.24C5332.91 386.85 5333.41 383.619 5332.46 380.83C5331.7 378.619 5329.99 376.67 5327.76 375.928C5325.54 375.197 5322.84 375.83 5321.39 377.678C5320.8 378.428 5320.44 379.33 5320.11 380.229C5319.69 381.428 5319.32 382.658 5319.19 383.928C5318.95 386.287 5319.55 388.67 5320.46 390.869C5320.95 392.049 5321.77 393.209 5323.64 393.178C5326.59 393.119 5329.47 391.631 5331.19 389.24ZM5372.15 424.26C5374.39 425.748 5377.26 425.998 5379.91 425.58C5381.64 425.311 5383.53 424.6 5384.2 422.99C5384.94 421.24 5383.87 419.178 5383.4 419.857C5381.48 416.768 5378 414.697 5374.37 414.49C5372.82 414.4 5371.12 414.697 5370.1 415.857C5369.74 416.279 5369.49 416.779 5369.32 417.299C5368.51 419.857 5369.91 422.768 5372.15 424.26ZM5302.39 446.85C5302.18 445.65 5302.05 444.4 5302.35 443.221C5302.67 441.92 5303.5 440.799 5304.47 439.869C5307.62 436.881 5312.25 435.869 5316.57 436.311C5320.88 436.76 5324.95 438.498 5328.84 440.42C5332.28 442.119 5335.8 444.107 5337.87 447.35C5338.09 442.619 5337.29 437.787 5335.19 433.607C5333.7 430.639 5331.58 428.029 5329.49 425.447C5326.57 421.857 5323.66 418.268 5320.74 414.678C5317.02 410.1 5313.28 405.479 5310.59 400.229C5307.91 394.979 5306.33 388.979 5307.24 383.15C5308.15 377.33 5311.86 371.76 5317.36 369.619C5321.81 367.9 5326.93 368.561 5331.26 370.58C5335.58 372.607 5339.2 375.881 5342.42 379.4C5353.14 391.107 5360.13 406.17 5362.18 421.908C5364.72 416.979 5367.87 412.17 5372.48 409.088C5377.1 406.01 5383.45 405.018 5388.19 407.889C5389.37 408.6 5390.44 409.549 5391.07 410.768C5392.82 414.158 5390.75 418.197 5388.77 421.471C5377.46 440.131 5367.38 460.279 5365.43 482.018C5365.31 483.318 5362.44 485.979 5359.29 487.139C5356.15 488.299 5352.37 487.721 5349.86 485.498C5348.1 483.939 5347.06 481.748 5345.8 479.768C5339.5 469.748 5327.85 464.537 5316.56 460.998C5313.28 459.979 5309.87 458.979 5307.29 456.721C5304.48 454.24 5303.03 450.537 5302.39 446.85Z" fill="#163047"/>
<path d="M100.719 1069.16C105.676 1049.6 96.4884 1023.04 102.879 1005.16C105.672 997.338 110.906 993.428 112.949 984.74C116.047 971.588 110.152 957.24 109.371 942.818C108.016 917.729 121.793 900.107 125.965 876.268C130.754 848.881 122.262 816.561 128.664 790.49C131.383 779.428 136.43 771.318 139.777 760.959C144.024 747.811 145.301 731.9 147.731 717.061C150.156 702.209 154.469 686.959 161.871 681.568C158.774 690.279 158.051 702.107 160.016 712.018C161.75 720.779 165.402 728.049 166.129 737.35C167.191 750.908 161.727 762.857 156.293 771.4C150.863 779.939 144.598 788.631 143.008 801.99C140.524 822.881 150.777 845.311 146.176 864.748C142.895 878.631 132.949 885.26 132.359 900.529C132.031 908.998 134.93 917.229 134.125 925.58C133.184 935.35 127.68 940.818 125.738 949.998C123.379 961.15 126.891 973.67 126.738 985.748C126.43 1009.89 112.356 1024.26 108.41 1047.12C107.024 1055.15 106.949 1064 105.121 1071.68C103.297 1079.36 96.8712 1084.36 100.719 1069.16Z" fill="#163047"/>
<path d="M110.973 1017.78C110.527 999.588 97.2032 995.229 92.4024 979.689C85.8243 958.389 97.9336 926.85 90.1641 907.178C88.4454 902.83 85.9219 899.779 84.5196 895.01C80.9883 883.018 86.0938 868.529 86.793 854.721C87.7657 835.471 79.9141 816.588 82.6094 797.99C83.5469 791.537 85.7188 784.869 84.4102 778.678C82.7579 770.857 76.9258 770.408 74.3438 763.65C70.2383 752.908 77.1641 737.1 74.7579 724.51C73.8008 719.518 71.4922 715.908 70.5196 710.92C69.4532 705.447 70.1719 699.318 69.961 693.471C69.4688 679.658 62.9961 667.74 55.9961 667.76C59.0391 680.229 59.8008 694.83 58.1055 708.268C55.9141 725.639 49.836 743.748 53.8125 759.838C55.5547 766.9 59.0977 772.33 59.6875 780.088C60.5235 791.088 55.1016 800.088 54.0704 811.029C52.2852 829.998 63.7852 844.588 64.4961 863.83C65.1133 880.51 57.4844 897.74 61.4922 912.471C63.6368 920.369 68.5704 924.318 70.4141 932.498C73.6289 946.768 66.0313 966.51 71.543 977.697C74.6993 984.107 80.7852 983.49 82.9375 991.357C84.5625 997.311 82.9414 1004.87 83.961 1011.32C85.3399 1020.03 90.7422 1023.13 95.3516 1023.64C99.961 1024.14 105.094 1023.77 110.973 1017.78Z" fill="#163047"/>
<path d="M99.2929 1052.9C95.2421 1037.24 97.2772 1016.35 103.984 1004.79C108.945 996.229 115.996 992.479 119.836 981.908C124.144 970.049 123.297 952.4 128.523 942.08C133.308 932.631 141.293 933.15 146.766 925.287C156.605 911.139 155.09 875.42 166.437 866.729C168.18 865.4 170.16 864.811 171.504 862.24C172.926 859.518 173.238 855.318 173.637 851.479C177.734 811.838 201.203 784.857 220.656 797.428C213.723 796.768 211.082 815.369 211.902 828.998C212.723 842.619 213.98 859.549 208.238 867.26C204.82 871.85 199.746 871.4 197.269 877.928C195.164 883.479 195.941 891.697 194.062 897.561C191.058 906.928 183.984 904.471 178.543 907.189C165.656 913.631 161.933 950.498 149.242 958.318C145.031 960.92 139.504 960.979 137.68 968.92C136.918 972.229 137.098 976.061 136.746 979.639C134.848 998.99 119.512 1002.09 116.43 1020.84C115.387 1027.19 116 1034.34 114.703 1040.51C112.156 1052.62 104.098 1054.78 99.2929 1052.9Z" fill="#163047"/>
<path d="M1796.44 1963.83C1793.05 1967.72 1789.66 1971.62 1786.27 1975.52C1783.05 1979.22 1779.82 1982.93 1776.6 1986.63C1773.63 1987.49 1771.08 1989.74 1769.86 1992.58C1769.1 1994.35 1768.81 1996.36 1767.59 1997.84C1765.12 2000.85 1759.9 2000.51 1757.68 2003.71C1755.48 2006.88 1757.31 2012.12 1754.28 2014.51C1753 2015.52 1751.26 2015.62 1749.69 2016.07C1742.91 2018.04 1740.22 2026.17 1739.55 2033.2C1739.28 2036.06 1738.97 2039.33 1736.66 2041.04C1735.39 2041.98 1733.77 2042.24 1732.23 2042.54C1723.03 2044.38 1714.18 2049.24 1708.92 2057.01C1703.66 2064.78 1702.58 2075.6 1707.49 2083.6C1713.56 2080 1721.22 2080.31 1728.06 2082.07C1734.9 2083.83 1741.35 2086.91 1748.21 2088.59C1761.59 2091.86 1776.27 2089.46 1787.92 2082.09C1791.92 2079.56 1795.68 2076.31 1797.59 2071.99C1802.39 2061.14 1793.9 2049.05 1784.65 2041.63C1789.5 2041.21 1792.86 2036.04 1792.86 2031.17C1792.86 2026.3 1790.36 2021.8 1787.63 2017.77C1791.98 2018.43 1795.9 2013.92 1795.73 2009.53C1795.56 2005.13 1792.32 2001.35 1788.48 1999.19C1791.03 1999.58 1793.73 1997.94 1794.55 1995.51C1795.38 1993.07 1794.23 1990.12 1791.98 1988.89C1795.84 1981.08 1798.3 1972.6 1796.44 1963.83Z" fill="#163047"/>
<path d="M2427.73 1327.42C2424.24 1331.23 2420.76 1335.05 2417.27 1338.86C2413.96 1342.48 2410.65 1346.11 2407.33 1349.73C2404.34 1350.52 2401.74 1352.7 2400.45 1355.51C2399.65 1357.26 2399.3 1359.26 2398.05 1360.72C2395.51 1363.67 2390.3 1363.19 2388 1366.34C2385.72 1369.46 2387.43 1374.73 2384.34 1377.05C2383.03 1378.03 2381.29 1378.09 2379.71 1378.5C2372.88 1380.3 2369.99 1388.36 2369.16 1395.38C2368.81 1398.23 2368.42 1401.5 2366.07 1403.15C2364.78 1404.05 2363.15 1404.27 2361.61 1404.54C2352.36 1406.15 2343.4 1410.8 2337.95 1418.43C2332.5 1426.07 2331.16 1436.86 2335.86 1444.98C2342.02 1441.52 2349.68 1442.02 2356.47 1443.95C2363.26 1445.88 2369.64 1449.11 2376.45 1450.96C2389.75 1454.56 2404.49 1452.52 2416.31 1445.44C2420.37 1443 2424.21 1439.85 2426.23 1435.57C2431.29 1424.85 2423.1 1412.56 2414.04 1404.91C2418.89 1404.61 2422.38 1399.52 2422.5 1394.65C2422.62 1389.79 2420.23 1385.23 2417.6 1381.13C2421.93 1381.9 2425.96 1377.49 2425.89 1373.09C2425.83 1368.69 2422.69 1364.82 2418.91 1362.57C2421.44 1363.03 2424.18 1361.45 2425.06 1359.04C2425.95 1356.63 2424.88 1353.65 2422.66 1352.36C2426.71 1344.66 2429.37 1336.23 2427.73 1327.42Z" fill="#163047"/>
</svg>
