<svg width="3751" height="2625" viewBox="0 0 3751 2625" fill="none" xmlns="http://www.w3.org/2000/svg">
<path d="M0.0117188 2625H3750.01V0H0.0117188V2625Z" fill="#DDF2F8"/>
<path d="M1682.97 410.352C1680.88 410.352 1679 410.5 1677.31 410.809C1668.43 411.57 1660.17 414.371 1652.55 419.191C1568.27 472.23 1508.92 505.66 1474.49 519.461C1344.99 547.078 1226.29 588.27 1118.41 643.02L990.719 712.66C897.723 785.199 822.328 836.461 764.527 866.43L575.207 943.75L294.691 1093.82C178.371 1138.43 80.1406 1176.45 0 1207.89H0.0117188V1413.67L141.418 1466.29C142.293 1466.52 143.824 1466.63 146.004 1466.63C166.812 1466.63 246.953 1456.25 386.422 1435.47C466.543 1425.36 583.141 1406.11 736.215 1377.75L808.43 1369.43C826.645 1368.07 848.09 1367.39 872.762 1367.39C883.438 1367.39 894.719 1367.52 906.605 1367.78L1219.94 1377.07C1253.68 1377.16 1283.54 1377.2 1309.52 1377.2C1383.82 1377.2 1426.44 1376.85 1437.36 1376.14C1524.82 1374.75 1635.01 1363.7 1767.94 1343C2030.81 1352.96 2248.82 1363.35 2421.99 1374.16L2721.2 1385.12L3001.74 1411.29C3038.81 1414.27 3075.09 1415.75 3110.57 1415.75C3113.66 1415.75 3116.74 1415.74 3119.82 1415.71C3122.11 1415.77 3124.48 1415.8 3126.91 1415.8C3157.09 1415.8 3197.84 1411.45 3249.17 1402.74C3329.7 1378.54 3412 1358.38 3496.08 1342.26C3530.62 1336.96 3565.89 1334.31 3601.88 1334.31C3610.58 1334.31 3619.32 1334.46 3628.11 1334.77C3659.14 1335.28 3699.78 1340.12 3750.01 1349.31V990.691H3749.99C3725.75 991.039 3697.68 991.34 3665.75 991.59C3629.24 994.25 3600.4 999.148 3579.24 1006.3C3562.52 1011.18 3543.59 1020.49 3522.43 1034.23C3456.69 1089.9 3414.58 1120.9 3396.09 1127.24C3338.48 1143.05 3263.59 1172.23 3171.43 1214.77C3167.31 1216.29 3162.76 1217.04 3157.8 1217.04C3153.31 1217.04 3148.48 1216.43 3143.31 1215.19C3097 1200.15 3048.98 1179.38 2999.24 1152.86L2730.99 977.328L2391.09 804.078L2287.53 731.5C2181.79 629.68 2112.93 571.988 2080.95 558.43C2059.68 543.121 1988.04 519.109 1866.02 486.391C1775.56 441.199 1726.29 418.371 1718.19 417.891C1703.13 412.859 1691.39 410.352 1682.97 410.352Z" fill="#A4DBE9"/>
<path d="M311.641 661.391L242.266 760.738C235.281 770.66 228.227 778.391 221.105 783.93C186.957 808.102 144.344 826.172 93.2656 838.141C75.0703 876.59 43.9844 909.859 0 937.961H0.0117188V1207.88C80.1523 1176.44 178.379 1138.43 294.691 1093.82L575.207 943.75L738.84 876.922H738.844C691.516 850.07 645.473 827.52 600.723 809.301C581.629 800.16 544.914 788.879 490.586 775.469C477.945 771.59 464.082 765.77 448.996 758.012C424.281 748.25 378.496 716.039 311.641 661.391Z" fill="#A4DBE9"/>
<path d="M3416.41 741.52L3337.3 790.34C3317.24 801.16 3297.31 810.051 3277.49 817C3259.34 823.301 3239.09 828.559 3216.73 832.781C3204.21 835.559 3169.77 840.691 3113.42 848.191C3098.72 850.699 3086.86 853.109 3077.86 855.43C3051.07 861.949 3022.31 872.828 2991.56 888.07C2965.64 900.73 2940.25 916.422 2915.41 935.141C2901.84 944.84 2870.91 972.891 2822.61 1019.31L2810.21 1029.17L2999.24 1152.86C3048.98 1179.38 3097 1200.15 3143.31 1215.19C3148.48 1216.43 3153.31 1217.04 3157.8 1217.04C3162.76 1217.04 3167.31 1216.29 3171.43 1214.77C3263.59 1172.23 3338.48 1143.05 3396.09 1127.24C3414.58 1120.9 3456.69 1089.9 3522.43 1034.23C3543.59 1020.49 3562.52 1011.18 3579.24 1006.3C3600.4 999.148 3629.24 994.25 3665.75 991.59C3697.68 991.34 3725.75 991.039 3749.99 990.691H3750.01V903.48H3750.04C3736.07 897.641 3723.36 892.672 3711.88 888.578C3624.84 859.559 3578.54 843.23 3573.01 839.57C3558.76 835.77 3522.86 808.48 3465.33 757.691C3446.4 746.949 3430.1 741.559 3416.41 741.52Z" fill="#A4DBE9"/>
<path d="M3416.41 741.52L3377.73 765.391H3377.75C3380.61 767.211 3383.41 769.172 3386.18 771.27C3414.4 794.43 3434.56 809.711 3446.66 817.09C3469.04 831.34 3494.57 844.621 3523.26 856.93C3525.92 859.91 3526.68 863.398 3525.54 867.391L3512.81 916.238C3512.37 925.41 3515.31 936.07 3521.63 948.219C3539.38 980.262 3571.22 1009.32 3617.14 1035.38C3605.5 1067.35 3564.03 1097.72 3492.75 1126.49C3492.43 1127.02 3494.07 1127.28 3497.67 1127.28C3500.82 1127.28 3505.47 1127.07 3511.63 1126.68C3559.97 1121.1 3587.98 1118.31 3595.66 1118.31C3596.39 1118.31 3596.94 1118.34 3597.3 1118.39C3598.14 1118.35 3598.98 1118.34 3599.82 1118.34C3609.32 1118.34 3618.46 1120.45 3627.22 1124.68C3628.85 1125.68 3629.61 1127.75 3629.48 1130.87C3625.93 1156.13 3624.44 1170.2 3625 1173.07C3625.02 1179.02 3626.21 1186.27 3628.58 1194.79C3631.32 1204.52 3635.19 1213.94 3640.2 1223.06C3645.53 1233.27 3653.39 1244.05 3663.77 1255.41C3664.69 1256.79 3664.96 1258.43 3664.56 1260.36C3664.13 1262.83 3659.29 1265.32 3650.03 1267.84L3579.16 1283.77L3513.18 1315.27C3534.32 1311.29 3553.64 1309.3 3571.14 1309.3C3578.64 1309.3 3585.8 1309.66 3592.63 1310.39C3592.8 1310.39 3592.98 1310.38 3593.16 1310.38C3603.76 1310.38 3640.48 1319.11 3703.33 1336.56C3717.69 1323.77 3725.64 1289.63 3727.17 1234.14V1232.84C3726.89 1204.02 3725.13 1179.55 3721.86 1159.43C3720.63 1152.12 3719.19 1144.97 3717.53 1137.96C3707.44 1099.64 3699.71 1067.33 3694.33 1041.05C3687.91 1006.61 3683.65 977.84 3681.55 954.738C3679.19 929.469 3677.92 905.371 3677.74 882.43L3677.82 877.18H3677.85C3612.72 855.25 3577.77 842.719 3573.01 839.57C3558.76 835.77 3522.86 808.48 3465.33 757.691C3446.4 746.949 3430.1 741.559 3416.41 741.52Z" fill="#7FCAE0"/>
<path d="M3471.69 797.391L3553.7 871.691C3563.98 881.41 3573.22 891.512 3581.4 901.988C3601.07 925.891 3621.65 962.141 3643.14 1010.74C3658.24 1046.14 3668.85 1081.62 3674.97 1117.16C3678.15 1135.87 3680.28 1156.14 3681.38 1177.96L3678.21 1254.09C3677.97 1262.59 3678.22 1270.51 3678.96 1277.86C3680.37 1292.19 3686.47 1306.31 3697.25 1320.24C3710.78 1336.54 3728.37 1347.29 3750.01 1352.48V889.52H3750.04C3745.68 887.309 3741.18 885.039 3736.55 882.73C3723.03 875.961 3706.35 869.949 3686.52 864.711C3637.66 861.559 3603.53 856.41 3584.14 849.27C3537.54 834.23 3500.06 816.93 3471.71 797.391H3471.69Z" fill="#7FCAE0"/>
<path d="M1606 448.031C1546.03 484.539 1502.19 508.359 1474.49 519.461C1422.41 530.57 1372.09 543.871 1323.5 559.359C1309.31 567.691 1296.07 576.66 1283.77 586.262C1272.69 595.629 1262.85 605.762 1254.25 616.641C1224.74 663.711 1203.79 692.781 1191.39 703.84C1186.3 711.859 1152.46 740.031 1089.86 788.34C1076.91 799.641 1052.78 825.891 1017.47 867.07C1074.7 813.43 1118.87 782.262 1150 773.559C1164.25 768.98 1179.7 766.379 1196.36 765.75C1197.28 765.559 1199.03 765.461 1201.6 765.461C1212.5 765.461 1238.24 767.238 1278.81 770.809C1280.53 770.859 1282.26 770.891 1283.99 770.891C1295.33 770.891 1306.92 769.73 1318.76 767.43C1347.29 761.559 1379.65 745.68 1415.86 719.801C1422.41 717.949 1431.44 717 1442.93 716.941C1471.18 720.07 1491.58 721.629 1504.13 721.629C1511.82 721.629 1516.57 721.039 1518.38 719.871C1538.3 716.07 1556.88 705.789 1574.11 689.039C1582.07 680.699 1588.04 672.238 1592.04 663.672C1594.45 660.82 1601.89 640.172 1614.36 601.711C1617.83 593.371 1622.86 584.68 1629.44 575.648C1634.82 568.551 1640.73 562.469 1647.18 557.422C1677.94 539.98 1695.41 527.672 1699.57 520.5C1698.13 505.398 1668.91 483.59 1611.93 455.059C1609.37 453.16 1607.39 450.809 1606 448.031Z" fill="#EAF6FA"/>
<path d="M1313.61 1054.61C1394.88 1051.99 1460.57 1023.68 1510.69 969.68C1453.05 1008.4 1387.52 1036.54 1314.09 1054.11M1510.75 969.641C1524.41 959.91 1535.72 950.801 1544.69 942.309C1547.81 939.77 1546.67 940.41 1541.3 944.238L1529.18 953.379C1525.78 955.961 1519.9 961.129 1511.55 968.891M1560.77 1055.96C1641.28 1014.31 1641.49 1014.18 1561.4 1055.59ZM1546.24 940.84C1562.94 930.199 1576.64 923.359 1587.35 920.32C1589.88 918.77 1608.19 914.961 1642.28 908.891L1669.09 901.77C1676.01 900.539 1706.69 889.691 1761.11 869.219C1784.02 862.051 1799.01 858.309 1806.09 858C1807.4 857.801 1806.71 858.68 1804.02 860.609C1782.35 872.141 1763.16 883.148 1746.45 893.648L1714.3 915.34C1699.19 925.859 1678.81 943.238 1653.13 967.488L1621.12 990.789C1618.13 992.93 1618.71 994.07 1622.85 994.199C1631.37 993.691 1648.14 991.359 1673.17 987.191C1676.48 986.699 1678.89 987.262 1680.41 988.871C1681.81 990.551 1662.43 1002.29 1622.29 1024.1C1661.18 1004.78 1697.72 993.922 1731.92 991.488C1746.56 990.48 1759.18 990.828 1769.79 992.52C1814.52 1003.05 1836.91 1007.73 1836.97 1006.58C1848.04 1007.56 1858.31 1007.31 1867.8 1005.84C1889.38 1002.23 1911.07 990.711 1932.87 971.281L2059.2 740.09C2011.58 647.922 1955.77 598.441 1891.78 591.672C1869.43 591.59 1851.85 595.23 1839.04 602.578L1799.44 631.328C1753.13 654.441 1727.74 667.949 1723.29 671.852C1703.97 684.75 1690.04 695.93 1681.51 705.391C1668.26 718.531 1658.73 731.109 1652.91 743.141L1646.43 759.379C1642.65 778.711 1639 793.621 1635.49 804.102C1631.41 815.73 1627.08 825.281 1622.5 832.73L1573.48 909.359C1565.39 920.719 1556.37 931.148 1546.42 940.66" fill="#EAF6FA"/>
<path d="M1682.97 410.352C1680.88 410.352 1679 410.5 1677.31 410.809C1668.43 411.57 1660.17 414.371 1652.55 419.191C1634.97 430.25 1618.48 440.461 1603.07 449.82C1648.88 479.25 1691.03 503.891 1729.54 523.738L1653.24 573.41C1630.33 597.859 1610.16 623.969 1592.73 651.77C1548.43 710.09 1531.35 769.66 1541.48 830.461C1565.59 827.469 1593.93 810.801 1626.5 780.441C1635.71 769.25 1644.22 756.172 1652.01 741.191L1705.25 630.531C1728.67 623.52 1753.62 620.012 1780.09 620.012C1811.15 620.012 1844.3 624.84 1879.56 634.48C1897.92 639.762 1904.13 646.07 1898.18 653.41C1801.73 738.109 1762.36 791.75 1780.09 814.34C1780.93 817.84 1784.66 819.859 1791.28 820.43C1841.27 794.68 1885.93 781.801 1925.27 781.801C1925.6 781.801 1925.92 781.801 1926.25 781.801C1929.46 782.762 1930.16 788.129 1928.35 797.898C1914.41 838.93 1905.1 875.602 1900.42 907.93C1898.56 913.871 1899.47 919.422 1903.14 924.578C1905.81 927.691 1910.43 929.59 1916.99 930.27C1931.75 929.66 1944.69 929.359 1955.83 929.359C1977.59 929.359 1992.44 930.52 2000.38 932.84C2015.61 935.32 2032.89 942.629 2052.23 954.77C2075.39 963.891 2118.38 1011.32 2181.19 1097.07C2193.44 1108.96 2205.97 1117.55 2218.78 1122.83C2345.07 1175.89 2414.38 1202.42 2426.71 1202.42C2427.28 1202.42 2427.73 1202.36 2428.06 1202.25C2466.51 1175.91 2513.16 1162.74 2568.04 1162.74C2617.69 1162.74 2674.07 1173.52 2737.18 1195.09C2759.16 1203.58 2784.86 1217.37 2814.29 1236.46L3047.3 1397.92C3059.87 1403.15 3073.32 1409.03 3087.64 1415.55H3087.66C3095.34 1415.68 3102.97 1415.75 3110.57 1415.75C3113.66 1415.75 3116.74 1415.74 3119.82 1415.71C3122.11 1415.77 3124.48 1415.8 3126.91 1415.8C3157.09 1415.8 3197.84 1411.45 3249.17 1402.74C3293.67 1389.37 3338.71 1377.23 3384.29 1366.32H3384.31C3366.31 1361.38 3347.29 1356.3 3327.28 1351.08C3301.78 1342.69 3279.69 1334.71 3261.02 1327.16C3202.97 1303.47 3158.77 1281.53 3128.41 1261.36L2946.79 1133.21L2796.64 1041.86C2756.83 1010.39 2717.68 980.078 2679.18 950.93H2679.2H2679.19L2679.15 950.91L2391.09 804.078L2287.53 731.5C2181.79 629.68 2112.93 571.988 2080.95 558.43C2059.68 543.121 1988.04 519.109 1866.02 486.391C1775.56 441.199 1726.29 418.371 1718.19 417.891C1703.13 412.859 1691.39 410.352 1682.97 410.352Z" fill="#7FCAE0"/>
<path d="M1006.71 735.328L885.805 822.781C820.848 845.762 770.555 871.672 734.922 900.5C721.691 910.48 711.199 920.77 703.441 931.34C684.324 967.449 670.238 990.211 661.184 999.609C650.57 1012.25 634.914 1025.72 614.211 1040.01L457.969 1137C453.508 1140.54 425.27 1153.78 373.254 1176.72C356.305 1185.03 344.453 1191.23 337.691 1195.32C314.805 1208.9 299.195 1220.26 290.871 1229.4L250.926 1276.82C296.656 1243.32 342.23 1216.79 387.648 1197.22L429.012 1181.3L465.09 1169.64C469.574 1167.59 491.422 1162.93 530.625 1155.67L552.816 1149.34C571.562 1142.83 586.555 1135.46 597.805 1127.24C608.449 1120.69 621.031 1109.36 635.555 1093.23L694.539 1017.13C707.145 1002.07 719.539 988.711 731.727 977.051L757.602 954.238C827.609 900.48 872.492 864.309 892.25 845.738C912.922 827.609 935.875 806.441 961.105 782.211L1006.21 735.84M250.695 1276.99C222.57 1298.62 222.437 1298.75 250.297 1277.39Z" fill="#EAF6FA"/>
<path d="M311.641 661.391L242.266 760.738C235.281 770.66 228.227 778.391 221.105 783.93C188.559 806.961 148.324 824.461 100.398 836.422H100.41C94.7656 850.691 89.0781 870.352 83.3477 895.41L68.3672 930.93C100.414 906.77 126.492 889.551 146.605 879.281C148.02 878.578 150.293 878.23 153.418 878.23C153.809 878.23 154.211 878.23 154.629 878.238C168.465 880.238 179.723 881.23 188.402 881.23C192.574 881.23 196.148 881 199.125 880.539C210.141 879.309 222.281 875.281 235.547 868.449C245.121 863.5 257.121 855.109 271.551 843.301L343.328 779.66C348.445 775.961 354.418 774.109 361.242 774.109C361.926 774.109 362.613 774.121 363.312 774.16C369.695 775.07 376.461 778.301 383.605 783.84L414.289 813.09C419.961 818.191 424.695 821.941 428.492 824.34C432.863 828.191 442.836 832.359 458.414 836.852C462.52 838.891 466.375 841.301 469.973 844.07C476.949 849.43 482.996 855.238 488.117 861.531C490.133 864.012 491.211 866.898 491.344 870.199C491.695 873.512 489.664 880.641 485.25 891.59C468.383 931.781 456.66 956.961 450.078 967.129C443.727 978.621 435.859 990.93 426.48 1004.08L389.133 1051.87C381.016 1063.94 375.121 1074.43 371.445 1083.34L451.246 1028.98C496.551 1003.51 520.211 989.09 522.223 985.711C567.129 949.91 598.727 893.371 617.016 816.102H617.023C611.57 813.77 606.137 811.5 600.723 809.301C581.629 800.16 544.914 788.879 490.586 775.469C477.945 771.59 464.082 765.77 448.996 758.012C424.281 748.25 378.496 716.039 311.641 661.391Z" fill="#EAF6FA"/>
<path d="M311.641 661.391L288.508 694.52H288.516C292.156 699.051 295.867 703.309 299.656 707.309C313.945 720.922 331.648 733.309 352.766 744.5C367.574 753.18 396.652 765.109 440.008 780.27C446.699 783.262 454.262 787.68 462.691 793.531C472.211 799.5 495.609 823.648 532.883 865.98C542.613 875.73 553.531 884.441 565.641 892.109C567.988 894.34 569.152 896.289 569.133 897.949C553.652 926.93 510.746 953.512 440.414 977.691C437.863 979.961 435.836 983.828 434.34 989.32C432.16 1017.12 427.672 1039.12 420.871 1055.33C415.953 1068.75 406.129 1084.41 391.395 1102.31L323.496 1173.47C277.906 1201 252.656 1216.92 247.746 1221.25C239.109 1227.28 230.801 1233.76 222.824 1240.68L206.457 1255.24C205.582 1256.04 205.402 1256.44 205.91 1256.44C206.078 1256.44 206.313 1256.4 206.625 1256.32C218.453 1250.92 252.012 1230.8 307.293 1195.96C388.613 1139.51 438.172 1106.19 455.965 1096.01C469.563 1088.68 498.879 1085.02 543.914 1085.02C545.727 1085.02 547.563 1085.02 549.426 1085.03C554.457 1084.44 559.051 1082.35 563.211 1078.76C568.977 1073.36 574.785 1066.72 580.641 1058.84C614.098 1007.22 632.934 980.77 637.152 979.5C645.59 971.27 653.035 965.281 659.488 961.52L699 942.859L719.973 929.469C734.445 918.488 748.027 904.031 760.723 886.109C766.715 877 772.359 868.109 777.648 859.43H777.645C773.176 861.879 768.805 864.211 764.527 866.43L738.844 876.922C691.512 850.059 645.473 827.52 600.723 809.301C581.629 800.16 544.914 788.879 490.586 775.469C477.945 771.59 464.082 765.77 448.996 758.012C424.281 748.25 378.496 716.039 311.641 661.391Z" fill="#7FCAE0"/>
<path d="M3377.58 765.48L3337.3 790.34C3317.24 801.16 3297.31 810.051 3277.49 817C3259.34 823.301 3239.09 828.559 3216.73 832.781C3204.21 835.559 3169.77 840.691 3113.42 848.191C3098.72 850.699 3086.86 853.109 3077.86 855.43C3051.07 861.949 3022.31 872.828 2991.56 888.07C2965.64 900.73 2940.25 916.422 2915.41 935.141C2908.8 939.859 2898.09 948.93 2883.26 962.34H2883.28C2889.82 964.871 2896.27 967.422 2902.61 970C2903.06 970.031 2903.52 970.051 2903.97 970.051C2906.25 970.051 2908.48 969.629 2910.66 968.801C2918.71 964.781 2930.75 960.75 2946.79 956.711C2954.12 954.84 2965.75 953 2981.7 951.219C2993.57 949.879 3005.77 949.191 3018.3 949.141C3019.25 949.051 3020.9 949 3023.26 949C3031.21 949 3047.18 949.539 3071.16 950.621C3071.67 950.621 3072.17 950.629 3072.66 950.629C3078.43 950.629 3082.56 950.391 3085.06 949.922C3090.96 949.27 3097.5 947.43 3104.68 944.391C3124.5 932.93 3139.14 925.961 3148.62 923.5C3157.51 920.328 3177.13 916.48 3207.5 911.949C3212.29 910.961 3216.99 909.52 3221.59 907.621C3228.54 905.691 3243.68 895.578 3267.02 877.281C3274.65 872.641 3283.14 868.801 3292.48 865.75C3298.13 863.859 3305.16 862.059 3313.58 860.34C3342.46 857.07 3373.99 851.25 3408.16 842.879C3408.22 842.879 3408.27 842.879 3408.32 842.879C3410.14 842.879 3411.63 845.031 3412.78 849.34C3413.2 867.949 3414.18 878.691 3415.72 881.578L3433.78 921.691C3435.34 927 3434.53 940.941 3431.39 963.512C3438.86 981.859 3445.04 993.93 3449.94 999.73C3464.87 1020.48 3480.43 1036.43 3496.64 1047.55L3480.57 995.23C3479.8 987.578 3481.32 975.82 3485.12 959.949L3484.74 951.34V951.32C3485.1 949.75 3480.73 941.359 3471.64 926.129L3406.5 822.988C3401.61 815.012 3391.97 795.84 3377.6 765.48H3377.58Z" fill="#EAF6FA"/>
<path d="M0.0117188 1345.82V1491.97C25.0664 1485.48 39.8203 1481.87 44.2734 1481.12C93.3789 1472.07 120.859 1466.74 126.715 1465.13C140.469 1461.97 152.434 1458.81 162.613 1455.66L221.828 1433.18C230.422 1430.29 238.59 1428.18 246.328 1426.87C253.191 1425.65 261.613 1424.75 271.598 1424.14C322.785 1422.33 359.234 1420.66 380.938 1419.14C394.656 1418.25 409.512 1416.84 425.504 1414.9C435.484 1413.62 447.809 1411.69 462.48 1409.11L602.32 1384.26C604.863 1383.64 635.246 1379.19 693.477 1370.91L693.496 1370.89H693.492C659.293 1375.78 629.543 1378.89 604.246 1380.22C594.891 1380.76 587.227 1381.11 581.258 1381.25C534.789 1381.98 504.77 1382.73 491.191 1383.5C491.102 1383.5 490.992 1383.5 490.875 1383.5C485.859 1383.5 455.594 1385.47 400.074 1389.43C373.754 1390.86 352.961 1391.65 337.707 1391.82C335.793 1391.86 333.82 1391.88 331.793 1391.88C319.18 1391.88 304.332 1391.14 287.258 1389.67C287.184 1389.67 287.098 1389.68 287 1389.68C282.855 1389.68 257.609 1386.62 211.262 1380.52C194.578 1378.8 181.418 1377.7 171.785 1377.23C161.164 1376.89 152.477 1376.72 145.723 1376.72C142.844 1376.72 140.312 1376.75 138.137 1376.82L95.1914 1379.82C93.2891 1379.89 91.1992 1379.93 88.9258 1379.93C84.1289 1379.93 78.5039 1379.78 72.0547 1379.48C56.7852 1378.34 45.5547 1375.93 38.3555 1372.25C34.0937 1370.38 30.4062 1368.41 27.293 1366.32C16.6328 1358.11 7.54297 1351.27 0.0234374 1345.82H0.0117188Z" fill="#EAF6FA"/>
<path d="M3539.84 397.32L3385.82 361.301C3352.04 330.602 3322.93 307.281 3298.48 291.328C3289.01 285.109 3280 280.398 3271.46 277.211C3265.77 274.84 3258.41 273.5 3249.39 273.18C3242.61 273.16 3235.67 274.019 3228.56 275.738C3186.79 287.852 3161.46 294.289 3152.55 295.07C3135.51 298.281 3118.81 299.98 3102.45 300.141C3083.77 300.559 3069.61 300.269 3059.98 299.281C3057.64 299.48 3027.04 295.84 2968.17 288.371C2960.82 287.5 2952.8 287.059 2944.09 287.019C2932.29 286.852 2913.14 287.84 2886.65 289.988C2834.58 294.352 2804.12 297.441 2795.27 299.25C2779.53 299.762 2760.24 299.602 2737.39 298.781C2720.28 298.09 2701.45 296.578 2680.9 294.25C2677.93 294.25 2636.39 289.16 2556.29 278.949L2517.93 274.578C2515.12 274.34 2511.97 274.211 2508.47 274.191C2499.77 274.18 2490.88 274.519 2481.8 275.238C2479.08 276 2428.6 280.18 2330.38 287.781L2202.66 293.621C2193.93 294.059 2177.7 295.102 2153.95 296.73C2152.17 296.762 2151.5 296.961 2151.94 297.328C2169.07 300.488 2193.51 303.59 2225.25 306.641C2285.23 311.441 2337.41 315.949 2381.77 320.18L2570.72 334.66L2651.98 342.75L2758.02 349.621L2850.45 353.602L2903.57 357.809L2995.33 364.121C3065.78 370.238 3123.42 376.98 3168.24 384.34C3146.82 376.809 3104.45 365.441 3041.14 350.219C3015 344.23 2985.96 339.43 2954.01 335.809C2951.79 335.019 2969.52 335.289 3007.21 336.621C3047.7 338.238 3076.95 339.699 3094.98 341.019C3135.27 343.969 3183.89 348.801 3240.87 355.512C3239.6 355.059 3279.38 360.699 3360.22 372.422C3368.13 373.328 3395.63 378.5 3442.7 387.941C3454.48 390.051 3465.12 391.769 3474.62 393.109C3491.13 395.98 3512.39 397.379 3538.39 397.309" fill="#FAFDFE"/>
<path d="M94.4258 329.781L343.465 358.461C410.707 375.941 459.84 385.219 490.863 386.301C495.91 386.422 503.836 385.781 514.637 384.359C550.371 377.238 579.566 372.449 602.223 369.98C617.004 368 637.887 366.539 664.863 365.602C690.789 364.871 724.836 365.289 767.004 366.859C779.297 367.398 796.578 368.48 818.855 370.09L887.504 375.789C893.238 375.012 886.969 369.711 868.691 359.891L776.898 320.672C776.391 320.238 779.277 320.59 785.555 321.719C816.957 328.68 847.129 334.609 876.074 339.5C905.406 344.309 927.066 347.09 941.047 347.852C944.172 348.051 949.062 347.5 955.715 346.211C980.531 338.769 1003.47 333.199 1024.52 329.512C1040.77 326.531 1059.88 324.461 1081.84 323.281C1097.95 322.551 1116 322.699 1135.97 323.762C1208.64 330.25 1253.14 333.34 1269.46 333.059C1347.93 333.961 1398.97 332.469 1422.59 328.57C1436.12 327.051 1449.09 325 1461.48 322.43C1509.91 308.73 1552.59 299.34 1589.53 294.262C1633.43 288.379 1678.57 285.16 1724.94 284.602L1585.26 270.07C1390.93 247.059 1289.38 235.281 1280.61 234.762C1231.96 229.91 1198.63 227.43 1180.62 227.32C1171.72 227.269 1163.5 227.949 1155.97 229.371C1118.29 238.789 1080.78 246.73 1043.43 253.211C1016.07 257.859 993.754 260.859 976.484 262.199C948.75 264.461 923.078 265.609 899.465 265.641C880.445 266.039 833.723 265.289 759.305 263.379C756.773 263.449 755.543 263.602 755.613 263.84C796.266 276.129 866.375 288.352 965.945 300.519C949.953 300.32 925.676 299.559 893.117 298.211C766.562 292.25 704.18 289.512 705.969 289.969C663.801 288.648 624.551 288.512 588.219 289.531C570.906 290.219 554.598 291.398 539.297 293.07C458.969 304.07 398.305 311.18 357.309 314.398C328.664 316.672 306.734 318.109 291.516 318.711C273.984 319.488 241.914 320.352 195.309 321.269C188.07 321.5 181.27 321.809 174.918 322.18C153.82 323.41 127.023 325.941 94.5273 329.769M1726.64 284.762L1881.96 298.859C1897.68 300.219 1914.64 301.449 1932.84 302.559C1996.75 306.269 2046.89 307.559 2083.28 306.43C2088.34 306.09 2082.72 305.371 2066.43 304.281C1946.3 294.719 1878.48 289.648 1862.98 289.078C1798.47 285.391 1753.11 283.941 1726.89 284.73" fill="#FAFDFE"/>
<path d="M26.5977 471.68L184.406 489.859C227.016 500.93 258.152 506.809 277.812 507.5C281.008 507.57 286.031 507.16 292.875 506.27C315.52 501.762 334.02 498.719 348.379 497.16C357.742 495.898 370.977 494.98 388.07 494.379C404.5 493.922 426.074 494.18 452.797 495.18C460.586 495.52 471.535 496.199 485.652 497.23L529.152 500.84C532.789 500.34 528.812 496.98 517.23 490.762L459.066 465.91C458.742 465.641 460.57 465.859 464.551 466.57C484.449 470.988 503.566 474.738 521.91 477.84C540.5 480.891 554.223 482.648 563.082 483.129C565.063 483.262 568.16 482.91 572.375 482.09C588.102 477.379 602.637 473.852 615.98 471.512C626.277 469.621 638.383 468.309 652.297 467.559C662.512 467.102 673.945 467.199 686.602 467.871C732.652 471.98 760.848 473.941 771.188 473.75C820.91 474.328 853.258 473.391 868.227 470.922C876.801 469.949 885.016 468.648 892.867 467.02C923.559 458.34 950.605 452.391 974.008 449.172C1001.83 445.449 1030.43 443.41 1059.82 443.051L971.309 433.852C848.164 419.262 783.816 411.801 778.258 411.469C747.43 408.398 726.309 406.828 714.895 406.75C709.254 406.719 704.047 407.148 699.273 408.059C675.398 414.02 651.629 419.059 627.957 423.16C610.621 426.109 596.48 428.012 585.539 428.859C567.965 430.289 551.695 431.02 536.73 431.039C524.68 431.289 495.074 430.82 447.914 429.609C446.313 429.648 445.531 429.75 445.574 429.898C471.336 437.68 515.766 445.43 578.859 453.141C568.727 453.02 553.34 452.531 532.711 451.68C452.516 447.898 412.984 446.16 414.117 446.449C387.398 445.621 362.527 445.531 339.504 446.18C328.531 446.609 318.199 447.359 308.5 448.422C257.598 455.391 219.16 459.891 193.18 461.941C175.031 463.371 161.133 464.281 151.488 464.672C140.379 465.16 120.059 465.699 90.5234 466.289C85.9375 466.441 81.6289 466.629 77.6016 466.859C64.2344 467.648 47.2539 469.25 26.6602 471.68M1060.89 443.148L1159.32 452.09C1169.28 452.949 1180.03 453.73 1191.56 454.43C1232.06 456.781 1263.83 457.602 1286.89 456.879C1290.09 456.672 1286.54 456.211 1276.21 455.52C1200.09 449.461 1157.11 446.25 1147.29 445.891C1106.41 443.551 1077.66 442.629 1061.05 443.141" fill="#FAFDFE"/>
<path d="M2284.62 661.5L2442.43 679.672C2485.04 690.75 2516.17 696.629 2535.83 697.32C2539.03 697.391 2544.05 696.98 2550.9 696.09C2573.54 691.57 2592.04 688.539 2606.4 686.969C2615.77 685.719 2629 684.801 2646.09 684.199C2662.52 683.73 2684.09 684 2710.82 685C2718.61 685.34 2729.56 686.02 2743.67 687.051L2787.18 690.648C2790.81 690.16 2786.84 686.809 2775.25 680.578L2717.09 655.73C2716.77 655.461 2718.59 655.68 2722.57 656.391C2742.47 660.809 2761.59 664.559 2779.93 667.66C2798.52 670.711 2812.24 672.469 2821.11 672.949C2823.08 673.07 2826.18 672.73 2830.4 671.91C2846.13 667.191 2860.66 663.672 2874 661.328C2884.3 659.441 2896.41 658.121 2910.32 657.379C2920.53 656.91 2931.97 657.02 2944.62 657.68C2990.67 661.789 3018.87 663.762 3029.21 663.57C3078.93 664.148 3111.28 663.199 3126.25 660.73C3134.82 659.77 3143.04 658.469 3150.89 656.84C3181.58 648.16 3208.63 642.211 3232.03 638.988C3259.86 635.27 3288.46 633.23 3317.84 632.871L3229.33 623.66C3106.19 609.078 3041.84 601.621 3036.28 601.281C3005.45 598.211 2984.33 596.641 2972.92 596.57C2967.28 596.539 2962.07 596.969 2957.3 597.871C2933.42 603.84 2909.65 608.871 2885.98 612.98C2868.64 615.93 2854.5 617.828 2843.56 618.68C2825.98 620.109 2809.72 620.84 2794.75 620.859C2782.7 621.109 2753.09 620.641 2705.94 619.43C2704.33 619.469 2703.56 619.559 2703.6 619.711C2729.36 627.5 2773.79 635.25 2836.88 642.961C2826.75 642.84 2811.36 642.352 2790.73 641.5C2710.54 637.719 2671 635.98 2672.14 636.27C2645.42 635.441 2620.55 635.34 2597.52 636C2586.56 636.43 2576.22 637.18 2566.52 638.238C2515.62 645.211 2477.18 649.711 2451.2 651.762C2433.05 653.191 2419.15 654.109 2409.51 654.48C2398.4 654.98 2378.08 655.52 2348.55 656.109C2343.96 656.25 2339.65 656.441 2335.63 656.68C2322.25 657.461 2305.27 659.07 2284.68 661.488M3318.92 632.969L3417.34 641.898C3427.3 642.77 3438.05 643.551 3449.58 644.25C3490.08 646.602 3521.86 647.422 3544.91 646.699C3548.12 646.48 3544.56 646.031 3534.23 645.34C3458.11 639.281 3415.13 636.07 3405.31 635.711C3364.43 633.371 3335.69 632.449 3319.07 632.961" fill="#FAFDFE"/>
</svg>
