<svg width="1114" height="797" viewBox="0 0 1114 797" fill="none" xmlns="http://www.w3.org/2000/svg">
<path d="M992.242 98.6289C970.441 103.109 886.359 138.051 739.992 203.457C703.789 217.543 668.711 228.668 634.75 236.832C579.82 249.848 533.801 258.5 496.691 262.785C488.602 265.078 424.07 269.082 303.07 274.801C256.18 279.059 217 283.559 185.551 288.301C158.77 292.352 134.461 301.352 112.652 315.301C107.109 321.07 102.77 330.531 99.6406 343.691L55.2812 560.996C33.4219 635.051 22.0117 676.398 21.0508 685.051C16.7305 725.801 11.3516 762.891 4.91016 796.316H1113.47V177.559L992.242 98.6289Z" fill="#87CDD8"/>
<path d="M1041.4 263.859L334.902 286.258C309.57 380.086 285.012 518.195 261.211 700.594C261.34 704.41 263.961 699.426 269.102 685.641C318.391 541.211 351.801 449.234 369.32 409.715C370.723 408.258 371.32 408.055 371.141 409.102L371.402 419.207C370.25 457.227 368.09 490.344 364.91 518.555C364.832 522.941 365.531 524.59 367.02 523.496C370.551 521.363 375.461 513.566 381.77 500.109C401.461 459.93 419.012 421.785 434.391 385.676L410.449 548.723C423.23 507.172 435.512 478.742 447.27 463.445C457.02 447.449 472.531 436.516 493.812 430.648C504.531 427.621 517.25 425.859 531.992 425.352C583.672 427.688 610.262 428.34 611.742 427.32C621.133 427.098 633.801 423.922 649.742 417.797C652.992 417.727 659.02 419.809 667.84 424.035L710.109 448.203C714.691 450.758 719.371 452.426 724.152 453.203C741.211 455.812 762.461 451.586 787.891 440.523C790.602 439.973 793.551 440.809 796.742 443.035C823.781 492.008 841.832 585.934 850.891 724.812L893.891 518.055C901.5 508.66 913.391 528.965 929.551 578.98C932.109 581.723 935.98 579.48 941.16 572.25L955.922 538.223L962.449 502.434C997.242 460.988 1020.93 419.488 1033.5 377.926C1047.88 340.996 1050.55 303.152 1041.48 264.395" fill="#51B6C6"/>
<path d="M475.031 498.266C447.281 558.883 425.961 612.496 411.09 659.113C400.98 686.266 393.09 718.695 387.41 756.406C393.301 690.992 395.57 657.688 394.223 656.484C394.16 653.441 393.789 651.922 393.102 651.922C392.512 651.922 391.68 653.066 390.602 655.355L372.492 712.922L369.641 719.914L368.801 718.715C367.66 685.848 366.812 627.109 366.25 542.504C366.031 524.941 365.48 516.156 364.621 516.156C364.609 516.156 364.602 516.16 364.602 516.16C347.781 583.207 328.512 636.66 306.781 676.52C297.75 692.844 284.223 712.836 266.18 736.496C260.121 745.086 242.699 765.027 213.941 796.316H460.723L448.16 712.629C445.43 689.074 444.18 668.391 444.402 650.582C445.09 603.426 455.242 552.848 474.859 498.852L475.051 498.266H475.031Z" fill="#B1DFE6"/>
<path d="M279.68 266.414C208.992 277.465 171.152 285.215 166.16 289.664C152.019 295.906 140.441 310.066 131.461 332.145C126.769 344.027 123.98 356.402 123.102 369.27C122.66 375.691 122.652 381.832 123.07 387.691C127.602 418.73 129.352 437.316 128.301 443.449L119.992 513.078C119.383 511.98 117.41 548.82 114.07 623.598C112.441 644.496 109.48 668.336 105.172 695.113C105.051 697.492 105.199 698.344 105.602 697.672C116.769 676.664 142.062 609.195 181.461 495.266C194.93 453.348 206.199 411.016 215.27 368.266C215.801 368.316 216.25 370.93 216.621 376.094C217.441 377.273 219.133 378.023 221.691 378.336C227.32 379.746 240.789 378.492 262.109 374.574L274.25 374.562C275.762 374.793 277.031 375.66 278.07 377.16C279.352 379.211 279.973 383.223 279.922 389.195C275.41 424.098 274.012 445.762 275.742 454.18L301.262 401.801C308.531 387.832 316.281 374.34 324.5 361.332C343.73 331.965 363.562 305.691 384.012 282.516L280.02 266.465" fill="#65BECC"/>
<path d="M1065.52 0C1061.32 0 1057.82 0.484375 1055.01 1.45312C1044.64 3.125 1034.21 6.24609 1023.71 10.8125C976.601 34.5039 945.289 49.0117 929.781 54.3398C911.18 61.5078 892.57 67.2539 873.949 71.582C855.281 76.0117 831.801 79.8516 803.519 83.1016C784.422 85.6797 739.98 89.4922 670.211 94.5469C652.949 96.0039 641.859 97.582 636.941 99.2852L597.891 120.395C590.91 123.973 583.691 127.316 576.25 130.422L480.383 165.039C468.18 169.273 452.66 173.867 433.82 178.816C366.269 193.004 327.742 202.535 318.25 207.414L224.152 259C192.301 274.742 159.039 288.309 124.371 299.703C120.531 301.605 118.883 303.223 119.43 304.551C122.691 310.816 154.223 322.211 214.031 338.73C263.789 351.914 299.332 358.508 320.652 358.508C323.172 358.508 325.48 358.414 327.601 358.23C352.191 357.887 376.742 354.766 401.23 348.871C401.281 348.883 401.34 348.887 401.422 348.887C404.73 348.887 433.07 339.504 486.441 320.734C506.109 315.219 524.18 310.699 540.652 307.18C551.91 304.555 564.582 303.246 578.68 303.246C585.742 303.246 593.16 303.574 600.93 304.234L683.851 317.992C698.101 320 723.801 321.527 760.949 322.578C769.312 323.297 776.652 324.469 782.992 326.09C808.531 334.086 839.101 348.676 874.699 369.867C879.351 372.262 888.949 374.914 903.48 377.82C916.781 380.547 930.851 381.914 945.699 381.914C957.641 381.914 970.07 381.031 983.019 379.266C1003.09 376.5 1027.45 370.355 1056.09 360.84C1059.93 360.16 1079.04 353.246 1113.45 340.098H1113.47V10.168H1113.5C1092.64 3.39063 1076.64 0 1065.52 0Z" fill="#B1DFE6"/>
<path d="M1113.45 170.578C1100.45 174.211 1089.05 176.566 1079.23 177.652C1067.68 179.238 1046.25 180.215 1014.94 180.582C966.262 187.695 895.25 196.324 801.93 206.469L741.602 210.676C712.23 211.82 680.59 212.406 646.691 212.43C640.223 212.586 634.191 213.281 628.621 214.52C602.332 220.531 578.41 228.324 556.852 237.91C547.492 240.703 511.242 259.629 448.102 294.691C432.461 300.508 418.551 305.992 406.383 311.152C449.891 297.977 488.699 289.715 522.801 286.367C535.07 285.074 547.422 284.43 559.84 284.43C567.52 284.43 575.23 284.676 582.98 285.172C597.25 285.965 617.07 289.273 642.441 295.094C645.84 295.578 649.582 295.82 653.66 295.82C654.922 295.82 656.223 295.797 657.539 295.75C658 295.773 658.48 295.785 658.992 295.785C669.32 295.785 690.133 290.977 721.422 281.355C725.27 280.508 729.539 280.082 734.242 280.082C734.961 280.082 735.699 280.094 736.449 280.113C742.199 280.629 749.32 282.703 757.82 286.336L803.289 307.516C852.492 318.754 881.23 326.598 889.492 331.047C900.883 334.855 920.641 345.262 948.77 362.266C953.27 364.457 957.312 366.023 960.902 366.961C967.031 368.676 973.781 369.531 981.152 369.531C994.332 369.531 1009.5 366.789 1026.65 361.297C1036.49 358.023 1046.68 353.563 1057.21 347.914L1113.47 311.375V170.578H1113.45ZM549.711 266.074C508.93 276.145 481.68 283.43 467.98 287.934C490.859 280.223 518.07 272.938 549.633 266.078L549.691 266.074H549.711Z" fill="#E3F3F6"/>
<path d="M126.902 333.039L82.5312 474.832C79.6797 482.438 76.4805 489.828 72.9609 497C58.7422 523.574 51.0391 538.555 49.8828 541.945C45.5312 551.637 42.0703 560.98 39.5 569.98C37.7812 576.023 35.6211 587.289 32.9922 603.785C26.832 648.23 23.2695 672.461 22.3203 676.473C11.4414 733.344 4 773.293 0 796.316H66.9727L67.4492 770.344C68.2812 760.938 69.332 753.801 70.582 748.938C73.6094 736.141 77.0195 725.809 80.8125 717.945C83.5117 710.926 91.1797 696.348 103.812 674.207C106.352 669.234 108.68 664.078 110.781 658.738C114.73 649.941 117.781 638.742 119.941 625.133C120.77 617.52 120.711 610.738 119.77 604.789C119.191 600.352 118.602 596.84 118.012 594.262C113.609 579.141 110.961 568.426 110.07 562.113C108.359 552.078 107.672 541.906 108 531.594C108.711 512.215 111.152 489.918 115.332 464.703C124.652 408.555 130 379.676 131.352 378.062L126.91 333.125L126.902 333.039Z" fill="#D0EBF0"/>
</svg>
