<svg width="3751" height="1465" viewBox="0 0 3751 1465" fill="none" xmlns="http://www.w3.org/2000/svg">
<path d="M741.121 0C654.93 0 575.254 4.66016 502.086 13.9727C292.188 51.4609 124.824 98.9219 0 156.371H0.0117188V1464.35H3750.01V138.191H3750.04C3723.41 137.691 3703.92 136.113 3691.56 133.453C3690.85 133.66 3689.78 133.762 3688.35 133.762C3664.97 133.762 3545.81 105.672 3330.88 49.4922C3191.31 32.0703 3084.23 22.1328 3009.64 19.6719C2948.2 17.332 2889.29 16.1602 2832.9 16.1602C2784.07 16.1602 2737.13 17.043 2692.09 18.793C2188.77 56.6797 1870.91 75.6211 1738.5 75.6211C1726.97 75.6211 1716.84 75.4805 1708.12 75.1914C1622.13 75.1797 1536.63 71.6406 1451.6 64.5703C1077.53 22.332 876.148 1.21094 847.469 1.21094C844.047 1.21094 843.082 1.51172 844.578 2.11328C809.105 0.710937 774.621 0 741.121 0Z" fill="#5DC0C6"/>
<path d="M2481.32 83.2227C2473.13 83.2227 2465.2 83.25 2457.56 83.3125L2385.21 84.8828C2293.04 88.6719 2236.35 90.5625 2215.14 90.5625C2213.7 90.5625 2212.42 90.5625 2211.3 90.543C2193.82 90.7422 2176.77 90.832 2160.12 90.832C2152.31 90.832 2144.58 90.8125 2136.95 90.7734C2048.78 89.2109 1992.68 88.4414 1968.64 88.4414C1964.04 88.4414 1960.6 88.4609 1958.35 88.5234C1904.53 88.9102 1858.15 90.0508 1819.22 91.9531C1785.29 93.4102 1749.76 95.9727 1712.62 99.6523C1527.16 121.793 1400.07 135.063 1331.33 139.453C1308.48 141.18 1282.09 142.781 1252.14 144.23C1018.93 151.633 871.992 157.473 811.34 161.762C723.133 167.461 646.953 174.91 582.801 184.09C398.246 210.023 255.047 254.051 153.195 316.18C147.578 323.16 149.883 327.043 160.109 327.84C173.898 328.172 186.422 328.34 197.68 328.34C223.793 328.34 243.09 327.453 255.57 325.68C274.848 323.773 296.113 320.273 319.363 315.172C392.691 293.383 446.207 280.492 479.91 276.5C506.242 271.891 572.984 267.672 680.137 263.832C684.883 263.691 690.055 263.633 695.656 263.633C713.516 263.633 735.734 264.313 762.312 265.66C776.855 266.32 808.316 269.203 856.687 274.293C863.898 274.973 877.394 275.773 897.172 276.703C913.988 277.672 952.613 278.301 1013.04 278.582C1027.47 278.891 1040.6 279.371 1052.42 280.023C1089.33 281.68 1144.91 285.391 1219.15 291.141C1237.52 292.25 1252.33 292.812 1263.58 292.812H1263.65C1266.22 292.84 1268.84 292.863 1271.52 292.863C1316.23 292.863 1374.81 287.703 1447.27 277.383C1448.18 277.332 1449.29 277.312 1450.59 277.312C1454.35 277.312 1459.73 277.5 1466.75 277.891C1514.08 281.141 1558.02 283.441 1598.57 284.793C1610.85 285.25 1624.92 285.48 1640.77 285.48C1652.8 285.48 1665.86 285.352 1679.94 285.09C1706.44 284.813 1749.72 282.262 1809.74 277.453L1940.47 271.281L2028.48 265.082L2300.41 317.062C2303.52 317.703 2306.78 318.023 2310.2 318.023C2311.79 318.023 2313.42 317.953 2315.08 317.812C2348.7 324.441 2396.99 331.242 2459.96 338.23C2497.23 342.492 2529.95 345.07 2558.13 345.961C2568.86 346.383 2579.36 346.59 2589.64 346.59C2617.84 346.59 2644.39 344.992 2669.28 341.793C2669.39 341.801 2669.5 341.801 2669.61 341.801C2678.65 341.801 2714.04 335.012 2775.78 321.43L2800.65 318.301C2878.51 324.023 2931.24 326.883 2958.83 326.883C2960.29 326.883 2961.68 326.871 2963 326.863C2965.24 326.871 2967.49 326.871 2969.75 326.871C2996.74 326.871 3025.04 326.152 3054.64 324.711C3070.07 324.16 3115.68 320.973 3191.46 315.152L3212.34 315.43C3267.61 318.75 3306.5 320.582 3329.02 320.91C3343.19 321.203 3361.31 321.352 3383.35 321.352C3409.7 321.352 3441.66 321.141 3479.24 320.711C3490.07 320.691 3490.32 317.453 3479.96 310.992C3473.79 307.441 3447 298.352 3399.57 283.711C3394.54 281.141 3394.65 279.852 3399.9 279.852C3400.73 279.852 3401.68 279.883 3402.77 279.941C3467 281.492 3582.75 294.062 3750.01 317.652V140.59H3749.99C3729.84 141.023 3708.21 141.48 3685.08 141.98C3663.44 142.332 3635.62 142.531 3601.64 142.602C3597.46 142.621 3593.2 142.633 3588.86 142.633C3531.42 142.633 3459.4 141.113 3372.81 138.062C3337.58 136.691 3288.41 133.543 3225.31 128.602L2800.69 94.5312C2745.99 90.4531 2681.11 87.2617 2606.06 84.9727C2559.11 83.8125 2517.54 83.2227 2481.32 83.2227Z" fill="#4FA3AB"/>
<path d="M1337.87 546.609L0.0117188 694.613V831.527H0.0234374C69.7227 846.965 144.32 857.566 223.82 863.328C236.746 864.191 250.809 864.621 266.016 864.621C282.594 864.621 300.527 864.109 319.816 863.086C355.18 861.301 405.316 857.168 470.23 850.684C486.18 849.5 505.613 848.512 528.539 847.715C613.148 845.57 673.379 844.496 709.227 844.496C729.457 844.496 741.922 844.84 746.625 845.523C787.371 847.461 824.547 851.988 858.152 859.102C878.02 863.332 895.383 867.578 910.238 871.844L985.977 895.496C995.738 898.102 1005.72 900.035 1015.9 901.305C1023.34 902.41 1030.86 902.965 1038.43 902.965C1040.91 902.965 1043.41 902.906 1045.9 902.789C1046 902.789 1046.11 902.793 1046.21 902.793C1051.53 902.793 1067.67 899.313 1094.64 892.348C1100.34 891.664 1107.36 891.32 1115.68 891.32C1120.21 891.32 1125.14 891.422 1130.46 891.625C1156.22 892.352 1198.92 898.848 1258.56 911.109C1215.57 889.988 1140.18 864.219 1032.37 833.805H1032.38C1064.24 837.211 1090.17 839.121 1110.18 839.535C1117.98 839.883 1127.29 840.059 1138.1 840.059C1154.69 840.059 1174.82 839.648 1198.51 838.828L1218.36 839.852C1230.99 840.996 1242.36 842.352 1252.46 843.914L1364.27 861.652C1381.16 863.785 1395.29 865.074 1406.67 865.523C1412.35 865.727 1417.84 865.824 1423.15 865.824C1439.62 865.824 1454.31 864.859 1467.21 862.922C1489.61 859.273 1510.1 853.914 1528.69 846.844C1532.44 846.141 1535.19 845.789 1536.94 845.789C1537.5 845.789 1537.95 845.828 1538.31 845.898C1546.41 846.285 1553.32 847.016 1559.04 848.078L1636.36 861.203C1646.41 862.656 1656.33 863.684 1666.13 864.285C1671.75 864.648 1677.37 864.832 1682.96 864.832C1708.72 864.832 1734.1 860.973 1759.09 853.254L1819.92 864.352L1820.49 863.859C1787.47 842.781 1759.72 822.262 1737.27 802.289C1729.13 796.992 1692.81 758.988 1628.3 688.277C1616.42 676.332 1600.12 663.387 1579.4 649.438C1497.86 598.859 1417.35 564.582 1337.87 546.609Z" fill="#4FA3AB"/>
<path d="M0.0117188 580.848V818.57H0.0234374C19.2031 822.457 41.7656 825.289 67.7109 827.062C76.9648 827.66 86.6797 827.961 96.8555 827.961C129.02 827.961 165.785 824.965 207.164 818.973C216.359 817.938 236.914 813.223 268.828 804.824C314.008 800.113 340.707 796.629 348.926 794.367C363.883 791.688 386.609 783.625 417.102 770.184C424.961 767.871 434.32 766.562 445.184 766.25C446.492 766.211 447.781 766.195 449.059 766.195C452.422 766.195 455.668 766.32 458.801 766.574L533.469 773.938L584.195 776.824C584.234 776.824 584.273 776.824 584.312 776.824C590.062 776.824 620.309 785.422 675.055 802.617C684.457 805.117 694.816 807.074 706.133 808.488C712.328 809.438 719.906 809.914 728.863 809.914C741.625 809.914 757.191 808.949 775.562 807.023C789.812 805.324 803.461 802.852 816.504 799.602C854.23 786.859 876.316 780.133 882.766 779.418C890.82 777.332 906.469 775.445 929.711 773.75C934.195 773.203 937.734 772.203 940.328 770.75L941.008 766.402C926.828 753.531 915.586 741.957 907.285 731.684C904.91 727.496 905.105 725.215 907.875 724.836C918.457 725.422 958.348 732.391 1027.54 745.75C1041.65 748.078 1055.35 750.059 1068.65 751.688C1080.75 753.055 1091.98 753.902 1102.35 754.234C1116.47 754.105 1128.3 754.043 1137.82 754.043C1151.89 754.043 1160.94 754.184 1164.96 754.465C1178.76 755.219 1190.3 756.289 1199.58 757.668C1199.59 757.668 1199.61 757.668 1199.62 757.668C1206.54 757.668 1239.23 764.965 1297.71 779.551C1308.97 781.758 1319.11 783.059 1328.13 783.453C1330.42 783.531 1332.69 783.566 1334.93 783.566C1339.76 783.566 1344.46 783.391 1349.04 783.035C1372.81 779.328 1391.85 777.254 1406.17 776.805C1411.58 776.586 1417.06 776.477 1422.6 776.477C1424.16 776.477 1425.73 776.484 1427.31 776.5C1452.44 777.402 1469.33 777.852 1477.98 777.852C1480.19 777.852 1481.87 777.82 1483 777.762C1505.13 776.047 1520.38 775.191 1528.76 775.191C1531.2 775.191 1533.06 775.262 1534.33 775.41C1546.91 775.938 1558.46 777.289 1568.98 779.457C1576.67 780.84 1590.71 784.926 1611.09 791.723C1613.17 792.316 1614.93 792.609 1616.37 792.609C1616.93 792.609 1617.45 792.566 1617.91 792.477L1623.08 753.641L1623.09 753.48C1624.58 715.84 1608.83 684.48 1575.82 659.398C1568.71 652.434 1548.99 643.219 1516.67 631.75C1466.84 611.945 1431.03 600.242 1409.24 596.641L0.0117188 580.848Z" fill="#68C1CE"/>
<path d="M0.0117188 241.793V711.09L36.7305 726.191C48.1328 730.305 61.9648 734.176 78.2188 737.805C107.039 744 137.801 747.098 170.504 747.098C170.738 747.098 170.973 747.094 171.211 747.094L343.332 734.457C370.781 731.277 384.023 728.871 383.051 727.238C384.238 725.316 381.879 723.523 375.973 721.855L240.098 676.566C231.895 673.801 228.723 672.164 230.582 671.664H230.594C260.367 674.051 293.465 677.965 329.887 683.41C453.23 705.523 520.93 716.922 532.984 717.602C578.812 724.375 618.359 727.867 651.633 728.078C654.883 728.258 658.336 728.344 661.988 728.344C687.516 728.344 722.816 724.043 767.891 715.445C772.07 714.988 780.824 714.758 794.156 714.758C807.277 714.758 824.832 714.98 846.816 715.426C859.613 715.117 866.371 714.492 867.086 713.555C868.797 712.316 868.457 711.055 866.074 709.77C821.242 685.113 799.375 672.375 800.477 671.551C790.895 664.906 789.266 661.238 795.59 660.547H795.594L1067.81 703.902C1124.05 711.836 1166.05 715.965 1193.82 716.289C1200.46 716.41 1206.98 716.473 1213.38 716.473C1248.22 716.473 1279.41 714.66 1306.96 711.031C1339.81 706.93 1382.07 697.574 1433.75 682.969L1555.54 686.727C1583.5 685.504 1598.9 683.121 1601.76 679.578L1601.99 678.723C1564.21 650.625 1515.76 627.926 1456.66 610.625C1459.96 610.539 1406.35 596.281 1295.83 567.844C1292.93 566.402 1264.11 561.832 1209.38 554.129C1197.61 552.121 1185.84 549.684 1174.04 546.809C1152.73 541.508 1132.39 534.438 1113.02 525.605C1079.97 509.105 1054.27 490.805 1035.93 470.691C1029.79 464.102 1024.89 457.691 1021.24 451.461C1001.71 409.25 989.859 388.152 985.699 388.152C985.645 388.152 985.594 388.152 985.543 388.16C983.773 383.602 968.035 377.723 938.328 370.543C920.184 366.711 903.371 364.801 887.898 364.801C880.52 364.801 873.441 365.242 866.672 366.113C866.59 366.102 866.504 366.102 866.414 366.102C856.895 366.102 796.664 376.68 685.723 397.852C633.324 402.531 581.156 407.473 529.215 412.66C518.691 413.422 509.68 413.801 502.18 413.801C496.055 413.801 490.941 413.551 486.836 413.043C472.266 411.551 456.961 408.672 440.91 404.422L370.168 379.25L221.75 339.781C213.523 336.832 204.605 332.773 194.996 327.59C164.203 306.742 132.688 288.652 100.449 273.312C69.2383 258.73 44.6523 249.711 26.6836 246.262C17.9961 244.43 9.10937 242.941 0.0234374 241.793H0.0117188Z" fill="#B1DFE6"/>
<path d="M38.7773 422.41L39.7851 439.391L79.6562 509.555C129.469 536.922 171.211 553.215 204.883 558.438C219.91 561.02 233.996 561.953 247.133 561.242C252.512 561.141 260.168 560.547 270.102 559.461C304.16 553.59 322.688 550.832 325.676 551.191C336.641 550.535 348.633 551.141 361.656 553.004C376.105 554.934 390.109 558.164 403.668 562.691C476.629 589.316 515.824 602.801 521.254 603.141C540.16 608.434 572.66 613.676 618.754 618.871C614.348 608.836 590.352 588.746 546.773 558.598C523.477 542.609 494.395 526.535 459.535 510.371C457.949 509.781 460.906 509.879 468.41 510.664C496.695 515.449 515.945 518.25 526.156 519.066C538.156 520.262 548.895 520.633 558.379 520.18C563.703 520.063 570.566 518.973 578.965 516.906C604.355 506.559 619.023 501.289 622.977 501.098C629.301 499.613 637.051 499.059 646.227 499.434C655.102 499.711 664.723 501.148 675.082 503.75L754.844 525.996C761.145 527.68 770.492 529.621 782.883 531.813C789.805 533.098 799.305 534.215 811.379 535.156L877.008 539.09C889.539 540.242 899.5 541.648 906.891 543.313C919.465 546.148 932.527 549.695 946.074 553.953L1031.38 583.516C1047.62 588.191 1064.84 591.789 1083.05 594.301C1059.81 583.723 1039.25 571.293 1021.38 557.004C1004.19 544.121 981.383 522.328 952.965 491.633L936.754 479.059C916.047 466.246 895.918 458.281 876.367 455.16L798.586 447.07L760.715 442.133C760.719 442.941 718.723 435.051 634.73 418.473C616.266 415.293 598.348 412.793 580.973 410.941C555.527 408.441 495.148 406.891 399.836 406.293C373.902 405.141 354.215 403.543 340.77 401.512C327.48 399.68 311.746 395.492 293.566 388.922C286.488 386.883 265.641 377.871 231.027 361.891C221.562 358.063 212.027 354.66 202.422 351.691C182.687 345.383 161.848 341.75 139.914 340.813C104.703 339.633 79.9883 344.453 65.7695 355.262C46.6914 370.762 37.6953 393.082 38.7734 422.203M1083.53 594.527C1123.27 613.09 1157.62 623.609 1186.57 626.082C1214.07 630.066 1239.84 631.18 1263.89 629.426C1285.63 627.789 1302.05 625.785 1313.16 623.414C1335.35 619.254 1344.02 616.434 1339.19 614.957C1333.52 613.699 1316.05 611.828 1286.76 609.344C1264.11 607.383 1209.77 603.805 1123.75 598.613C1107.93 597.445 1094.83 596.125 1084.46 594.652" fill="#D0EBF0"/>
<path d="M1243.45 614.039L1062.16 592.703L901.617 557.156C863.684 547.969 832.836 539.785 809.074 532.613C798.715 529.461 788.988 526.293 779.898 523.102C736.93 506.734 701.746 494.188 674.344 485.453C651.488 478.164 636.484 474.504 629.332 474.469C624.703 474.344 620.125 475.082 615.598 476.684C591.375 488.449 574.227 495.719 564.148 498.488C552.844 502 539.797 504.898 525.008 507.18C519.527 508.746 479.574 512.676 405.16 518.969C385.598 520.43 363.773 520.848 339.684 520.23C336.746 520.406 335.238 520.672 335.152 521.027C328.387 521.27 342.391 527.465 377.156 539.617C408.434 550.512 434.207 558.293 454.469 562.965C432.832 559.73 403.27 556.941 365.781 554.598C350.5 553.777 337.473 553.313 326.695 553.203C275.371 553.375 248.168 553.27 245.086 552.887C232.547 552.559 217.578 551.203 200.176 548.82C247.578 561.176 298.188 575.68 352.008 592.336C360.117 594.652 368.34 596.746 376.672 598.625C418.227 607.078 457.227 611.48 493.676 611.832C537.684 613.078 575.402 613.02 606.836 611.664C624.961 611.383 643.668 609.414 662.961 605.762C670.437 604.852 672.543 603.563 669.281 601.902C612.328 578.582 584.152 564.621 584.758 560.02C584.813 555.852 591.723 552.813 605.484 550.898C623.949 547.941 643.391 546.688 663.809 547.141C700.883 548.203 733.742 552.703 762.387 560.633C774.574 564.07 786.637 568.352 798.574 573.48C846.059 596.172 871.926 607.938 876.18 608.773C888.906 613.578 903.758 617.078 920.73 619.27C935.32 621.02 952.395 621.285 971.961 620.066C984.211 619.238 994.055 618.391 1001.5 617.512L1053.75 610.504C1060.1 609.813 1069.48 609.359 1081.91 609.137C1087.47 608.996 1095.46 609.137 1105.88 609.551C1137.37 611.613 1157.66 612.711 1166.73 612.848C1207.73 614.008 1233.28 614.402 1243.38 614.039" fill="#E7F5F7"/>
<path d="M677.598 1093.47C659.316 1093.47 641.762 1094.25 624.941 1095.81C503.934 1110.55 433.73 1117.93 414.34 1117.93C410.797 1117.93 408.949 1117.68 408.801 1117.19L350.188 1116.77C267.762 1108.83 210.27 1104.62 177.711 1104.15C167.059 1103.77 156.164 1103.57 145.023 1103.57C120.797 1103.57 95.4141 1104.49 68.875 1106.31C42.7852 1107.95 19.8242 1110.4 0 1113.66H0.0117188V1464.35H2331.04C2298.34 1438.04 2270.81 1413.63 2248.45 1391.12C2215.01 1371.87 2190.08 1355.59 2173.65 1342.27L2111.75 1287.52C2047.35 1274.71 1986.46 1264.73 1929.07 1257.58L1758.95 1248C1735.78 1245.98 1710.06 1241.84 1681.76 1235.57C1653.52 1228.75 1630.21 1220.8 1611.82 1211.72C1594.87 1204.8 1572.06 1186.93 1543.41 1158.11C1536.9 1153.94 1523.44 1149.85 1503.04 1145.85C1473.5 1141.15 1438.61 1138.06 1398.39 1136.57C1359.97 1135.25 1311.79 1134.6 1253.83 1134.6C1212.82 1134.6 1166.92 1134.93 1116.13 1135.59C1057.23 1134.8 1019.11 1133.63 1001.76 1132.07C977.812 1130.56 954.383 1128.13 931.465 1124.77C863.402 1112.46 812.723 1104.39 779.422 1100.55C747.035 1096.63 719.898 1094.38 698.02 1093.79C691.113 1093.58 684.305 1093.47 677.598 1093.47Z" fill="#B1DFE6"/>
<path d="M2794.1 610.164C2786.14 609.223 2773.98 608.066 2757.62 606.703L2678.04 600.973C2665.39 599.926 2652.97 598.738 2640.77 597.41C2588.44 591.602 2561.59 588.516 2560.23 588.144C2543.33 586.023 2523.6 582.937 2501.03 578.891C2497.39 578.316 2493.37 577.898 2488.96 577.637C2476.54 576.836 2461.69 576.5 2444.39 576.621C2441.93 576.383 2411.05 577.441 2351.75 579.797C2338.41 580.102 2330.02 580.008 2326.58 579.512C2324.29 579.234 2323.62 578.777 2324.55 578.141C2361.2 562.246 2383.82 550.535 2392.39 543.004C2395.12 542.144 2389.46 541.469 2375.41 540.988C2361.14 540.43 2347.78 540.312 2335.33 540.629C2277.73 542.578 2224.97 551.703 2177.03 567.996L2329.91 569.738C2325.73 569.926 2319.18 570.637 2310.26 571.867L2200.13 587.582L2091.88 602.152L2065.41 606.094C2026.02 613.117 1992.09 621.336 1963.6 630.746C1962.43 631.617 1963.66 631.891 1967.29 631.559C1983.89 629.566 1999.71 627.949 2014.74 626.703C2074.77 622.418 2113.86 619.277 2132.02 617.273C2168.53 613.723 2210.62 607.816 2258.29 599.551L2243.79 606.391C2242.12 607.254 2242.03 607.785 2243.52 607.984C2248.06 607.941 2263.33 605.25 2289.33 599.906C2274.97 604.09 2261.35 608.285 2248.46 612.496C2239.41 615.469 2240.75 615.644 2252.47 613.016C2233.35 617.684 2207.79 626.031 2175.79 638.059C2158.58 644.262 2155.13 647.5 2165.41 647.769C2201.74 648.625 2236.25 647.289 2268.95 643.766C2284.45 642.266 2303.17 640.098 2325.1 637.262C2402.82 626.203 2452.18 619.535 2473.16 617.258C2507.69 613.269 2539.56 610.492 2568.74 608.918C2587.66 607.723 2607.97 607.273 2629.68 607.574C2654.95 607.723 2673.03 607.902 2683.89 608.109L2794 610.223" fill="#4FA3AB"/>
<path d="M3066.09 418.25C3066.09 417.891 3064.87 417.781 3062.43 417.91C3047.59 419.723 3029.62 420.891 3008.52 421.422C2997.83 421.621 2984.33 421.223 2968.02 420.223C2953.31 419.191 2939.04 417.602 2925.21 415.481C2919.07 414.602 2913.4 413.711 2908.2 412.82C2883.99 408.422 2867.84 405.621 2859.76 404.422C2845.81 402.211 2834.44 400.641 2825.64 399.691C2805.54 397.211 2782.75 396.262 2757.29 396.832C2724.14 398.352 2685.92 402.902 2642.63 410.481C2623.91 413.41 2596.36 421.141 2559.98 433.68L2584.44 447.012C2622.61 442.102 2661.27 440.262 2700.43 441.481C2712.94 441.922 2726.71 442.992 2741.73 444.68C2754.97 446.16 2763.72 447.172 2767.97 447.75L2815.2 454.242C2825.61 455.551 2833.85 456.473 2839.93 457C2857.55 458.602 2874.73 459.262 2891.48 458.981C2920.95 457.66 2946.82 454.102 2969.09 448.32C2984.62 444.883 3002.96 439.781 3024.1 433.043C3052.11 424.242 3066.11 419.32 3066.1 418.281" fill="#4FA3AB"/>
<path d="M368.449 1220.5C312.289 1220.5 205.961 1243.65 49.4727 1289.95L0.0117188 1309.64V1464.35H2276.45L2286.94 1456.81L2286.89 1456.4C2228.89 1447.11 2174.45 1434.55 2123.57 1418.73C2030.03 1388.32 1935.23 1352.66 1839.17 1311.75C1824.18 1305.61 1802.88 1300.74 1775.28 1297.15C1758.27 1295.28 1738.66 1294.34 1716.45 1294.34C1708.14 1294.34 1699.47 1294.47 1690.43 1294.73C1544.67 1302.1 1458.94 1305.79 1433.24 1305.79C1430.84 1305.79 1428.95 1305.75 1427.6 1305.69C1421.97 1305.92 1415.56 1306.04 1408.37 1306.04C1384.53 1306.04 1352.09 1304.76 1311.06 1302.22C1307.43 1302.2 1303.79 1302.19 1300.12 1302.19C1280.59 1302.19 1260.47 1302.46 1239.76 1303.02C1196.29 1303.64 1141.84 1307.98 1076.41 1316.04L1165.55 1280.14C1179.48 1273.92 1184.38 1270.36 1180.25 1269.45C1051.38 1279.45 940.516 1284.45 847.656 1284.45C817.449 1284.45 789.145 1283.93 762.746 1282.87C730.977 1281.11 696.945 1276.75 660.652 1269.8C648.969 1268.07 607.98 1257.68 537.684 1238.62L491.859 1229.72C460.184 1224.99 424.84 1222.22 385.824 1221.42C380.695 1220.8 374.902 1220.5 368.449 1220.5Z" fill="#D0EBF0"/>
<path d="M2180.98 1339.12C2172 1339.02 2097.87 1320.91 1958.57 1284.8C1932.34 1278.67 1912.28 1274.81 1898.38 1273.22C1882.04 1270.89 1862.81 1269.94 1840.72 1270.38C1837.82 1269.8 1805.47 1272.01 1743.66 1277C1733.65 1277.62 1723.89 1277.91 1714.38 1277.87C1688.56 1278.03 1662.57 1275.64 1636.42 1270.7C1609.14 1265.06 1584.77 1257.46 1563.3 1247.89C1554.2 1244.7 1527.35 1229.85 1482.75 1203.34C1463.53 1193.8 1448.54 1188 1437.76 1185.91L1422.48 1182.72L1280.79 1161.54L1194.69 1146.41C1182.17 1144.19 1159.96 1142.19 1128.08 1140.4C1081.81 1137.83 1045.05 1138.87 1017.79 1143.51C995.266 1146.9 978.293 1149.95 966.871 1152.64C898.371 1169.86 857.07 1179.83 842.973 1182.53C827.305 1185.82 814.172 1187.78 803.57 1188.39C797.691 1188.77 792.555 1188.9 788.148 1188.78C770.484 1188.06 752.141 1187.61 733.125 1187.41C718.887 1187.39 705.574 1187.71 693.184 1188.36C681.496 1189.04 665.973 1190.36 646.613 1192.3L565.352 1202.11C559.004 1202.82 551.781 1203.3 543.676 1203.54L469.395 1196.53C445.473 1194.55 426.469 1193.27 412.375 1192.68C373.969 1191.11 338.746 1191.46 306.711 1193.72C243.898 1200.21 195.258 1211.07 160.793 1226.32C140.785 1234.38 130.406 1239.9 129.656 1242.88C129.629 1244.86 130.981 1246.44 133.715 1247.63C146.461 1251.42 152.356 1253.61 151.398 1254.21C153.41 1255.74 152.09 1258.99 147.438 1263.95C147.367 1264.76 148.676 1265.45 151.371 1266.02C225.742 1270.14 288.816 1275.08 340.586 1280.85C362.621 1283.18 381.648 1285.48 397.676 1287.77L490.656 1302.83C498.969 1304.09 505.305 1304.72 509.66 1304.72C567.84 1303.16 602.617 1302.03 613.992 1301.31L753.371 1292.95C847.352 1295.44 917.25 1295.25 963.066 1292.37C987.125 1291.05 1019.57 1287.64 1060.38 1282.15C1079.74 1279.84 1114.21 1273.21 1163.81 1262.24C1168.84 1261.12 1182.22 1259.62 1203.96 1257.74C1260.54 1253.62 1324.7 1253.53 1396.46 1257.48C1405.41 1258.2 1416.17 1260.83 1428.74 1265.37C1516.36 1302.75 1566.75 1322.15 1579.91 1323.56C1600.85 1329.05 1615.29 1332.15 1623.23 1332.84C1627.73 1333.34 1632.67 1333.59 1638.07 1333.57L1674.69 1331.75C1687.48 1331.79 1696.73 1332.09 1702.44 1332.63C1726.14 1334.29 1751.22 1338.17 1777.68 1344.29C1834.07 1356.14 1906.13 1379.93 1993.86 1415.67L2179.73 1339.64" fill="#E8F5F7"/>
</svg>
